<svg xmlns="http://www.w3.org/2000/svg" xmlns:xlink="http://www.w3.org/1999/xlink" width="124" height="107" viewBox="0 0 124 107" fill="none"><g opacity="1" transform="translate(0.000013378622668369644 -0.00001260905924027611)  rotate(0 61.81545161665454 53.108130319859086)"><path id="路径 13" fill-rule="evenodd" style="fill:#FFD19F" transform="translate(68.57165130139208 0)  rotate(0 27.529625965958502 53.108130319859086)" opacity="1" d="M47.48,0L31.65,0C34.99,21.76 19.48,44.09 8.22,60.99C1.49,71.13 -3.27,83.01 2.78,94.66C12.43,113.29 37.83,107.27 47.26,91.6C54.53,79.56 55.37,64.24 54.98,50.53C54.53,36.08 52.31,21.73 49.22,7.63C48.67,5.09 48.09,2.54 47.48,0Z " /><path id="路径 14" fill-rule="evenodd" style="fill:#FFD19F" transform="translate(0 0)  rotate(0 49.176117289537665 33.98226510495945)" opacity="1" d="M27.48,20.12C16.09,22.4 4.85,27.26 1.06,39.2C-5,58.32 16.21,71.39 33.21,67.17C46.24,63.92 57.19,54.17 66.13,44.64C75.6,34.6 83.77,23.37 91.21,11.78C93.69,7.92 96.1,4.02 98.35,0.03L79.81,0.03L79.81,0C66.36,12.71 44.34,16.7 27.48,20.12Z " /></g></svg>