<svg xmlns="http://www.w3.org/2000/svg" xmlns:xlink="http://www.w3.org/1999/xlink" width="93" height="110" viewBox="0 0 93 110" fill="none"><path id="路径 3" fill-rule="evenodd" style="fill:#FFD19F" transform="translate(-0.0000252181184505762 0.0019146987403928506)  rotate(0 46.24327230577594 54.84826997101174)" opacity="1" d="M4.25,97.84C11.62,95.71 16.74,89.28 18.25,81.42C33.79,80.68 48.41,93.14 59.51,102.25C66.17,107.72 74.25,111.9 82.91,108.43C96.75,102.89 94.27,84.54 83.84,76.79C75.83,70.8 65.08,69.13 55.36,68.45C45.12,67.74 34.82,68.32 24.65,69.51C22.43,69.77 20.21,70.06 17.99,70.38C17.86,69.87 17.73,69.35 17.61,68.84C17.41,68.19 17.22,67.58 16.99,66.97C19.05,66.07 21.11,65.14 23.14,64.17C32.38,59.79 41.46,54.8 49.73,48.79C57.61,43.06 65.82,35.94 69.46,26.61C74.16,14.48 66.53,-2.39 51.85,0.28C42.68,1.96 38.04,9.78 35.31,17.95C30.67,31.6 24.91,50.01 11.2,57.57C8.05,54.29 0,51.1 0,51.1L0,98.51C0,98.51 2.83,98.22 4.25,97.84Z " /></svg>