<svg xmlns="http://www.w3.org/2000/svg" xmlns:xlink="http://www.w3.org/1999/xlink" width="186" height="36" viewBox="0 0 186 36" fill="none"><g opacity="1" transform="translate(-0.00003435511780480738 -0.0000027867850462826027)  rotate(0 92.51758982035922 17.60553892215574)"><path id="分组 131" fill-rule="evenodd" style="fill:#FF6010" transform="translate(51.17514970059912 0.032185628742581684)  rotate(0 7.0164670658681025 6.968188622754483)" opacity="1" d="M3.32 4.89222L0 4.89222L0 5.63222L2.57 5.63222L2.57 11.7822C2.57 12.1022 2.48 12.3622 2.32 12.5822C2.16 12.7822 2 12.9022 1.87 13.0022C1.96 13.1022 2.03 13.1922 2.12 13.3222C2.22 13.4522 2.29 13.5522 2.32 13.6422C2.35 13.5522 2.48 13.4522 2.61 13.3222C2.64 13.2922 2.7 13.2322 2.8 13.1622C2.93 13.0322 3.12 12.9022 3.32 12.7422C3.41 12.6822 3.51 12.6122 3.6 12.5222C3.89 12.2622 4.31 11.9722 4.8 11.5822C4.96 11.4222 5.15 11.2922 5.34 11.1722L5.34 11.1322C5.31 11.0722 5.25 10.9722 5.21 10.8822C5.15 10.7822 5.12 10.6522 5.09 10.5522L3.35 11.8422L3.32 11.8422L3.32 4.89222Z M2.99524 1.57841C2.57524 1.15841 2.15524 0.768413 1.73524 0.418413L1.25524 0.868413C1.64524 1.25841 2.05524 1.63841 2.47524 2.05841C2.89524 2.47841 3.21524 2.86841 3.47524 3.18841L3.95524 2.63841C3.73524 2.31841 3.37524 1.95841 2.99524 1.57841Z M13.6178 1.29L9.71784 1.29L9.71784 0L8.97784 0L8.97784 1.29L5.27784 1.29L5.27784 1.9L8.97784 1.9L8.97784 3.09L5.62784 3.09L5.62784 3.7L8.97784 3.7L8.97784 5.02L4.82784 5.02L4.82784 5.66L14.0378 5.66L14.0378 5.02L9.71784 5.02L9.71784 3.7L13.1278 3.7L13.1278 3.09L9.71784 3.09L9.71784 1.9L13.6178 1.9L13.6178 1.29Z M10.0465 13.5168C10.1065 13.6468 10.1365 13.7468 10.1365 13.8368C11.1965 13.8768 11.9065 13.8368 12.2665 13.7468C12.5565 13.6768 12.7165 13.4168 12.7165 12.9668L12.7165 6.7268L5.98653 6.7268L5.98653 13.9368L6.69653 13.9368L6.69653 11.4868L12.0065 11.4868L12.0065 12.9368C12.0065 13.0368 11.9765 13.0968 11.9365 13.1268C11.9065 13.1668 11.8465 13.1968 11.7165 13.1968C11.6165 13.1968 11.3965 13.1968 11.0765 13.1968C10.7465 13.1968 10.3665 13.1968 9.91653 13.1968C9.94653 13.2968 10.0065 13.3868 10.0465 13.5168Z M6.69461 7.37051L6.69461 8.79051L12.0046 8.79051L12.0046 7.37051L6.69461 7.37051Z M11.9724 10.876L11.9724 9.36602L6.66243 9.36602L6.66243 10.876L11.9724 10.876Z " /><g opacity="1" transform="translate(68.36227544910173 1.1368683772161603e-13)  rotate(0 7.000374251497006 6.903817365269438)"><path id="路径 538" fill-rule="evenodd" style="fill:#FF6010" transform="translate(0 5.793413173652652)  rotate(0 7.000374251497006 4.00711077844311)" opacity="1" d="M11.07,7.89C12.2,7.85 13.1,7.82 13.78,7.79C13.81,7.66 13.84,7.53 13.87,7.37C13.9,7.21 13.97,7.08 14,6.98C13.2,7.05 12.26,7.11 11.23,7.18C10.2,7.21 9.21,7.24 8.27,7.24C7.43,7.24 6.69,7.21 6.05,7.11C5.41,7.05 4.86,6.86 4.38,6.6C4.15,6.47 3.93,6.34 3.77,6.21C3.41,5.95 3.12,5.79 2.83,5.76L2.83,0.1L2.83,0L0.16,0L0.16,0.71L2.16,0.71L2.16,5.79C1.48,6.12 0.77,6.63 0,7.37L0.48,8.01C0.97,7.53 1.38,7.11 1.77,6.79C2.16,6.5 2.51,6.34 2.8,6.34C2.93,6.34 3.06,6.37 3.19,6.47C3.32,6.57 3.48,6.66 3.64,6.79C3.8,6.92 3.99,7.05 4.18,7.18C4.67,7.47 5.25,7.66 5.92,7.76C6.6,7.85 7.37,7.92 8.27,7.92C9.01,7.92 9.95,7.92 11.07,7.89Z " /><path id="路径 539" fill-rule="evenodd" style="fill:#FF6010" transform="translate(0.22529940119750336 0.5793413173652198)  rotate(0 1.5288173652695343 1.480538922155696)" opacity="1" d="M2,1.26C1.54,0.8 1.06,0.39 0.58,0L0,0.39C0.48,0.77 0.97,1.19 1.42,1.67C1.87,2.12 2.22,2.57 2.48,2.96L3.06,2.51C2.8,2.16 2.45,1.71 2,1.26Z " /><path id="路径 540" fill-rule="evenodd" style="fill:#FF6010" transform="translate(3.669161676646695 0)  rotate(0 5.085329341317498 5.761227544910172)" opacity="1" d="M8.95,10.59L7.34,10.59C7.11,10.59 6.98,10.59 6.92,10.52C6.86,10.46 6.82,10.36 6.82,10.2L6.82,6.12L10.11,6.12L10.11,5.44L5.7,5.44L5.7,2.9L9.46,2.9L9.46,2.22L5.7,2.22L5.7,0L4.92,0L4.92,2.22L2.74,2.22C2.93,1.67 3.15,1.13 3.32,0.55L2.61,0.42C2.22,1.87 1.61,3.12 0.74,4.12C0.84,4.15 0.97,4.22 1.09,4.28C1.22,4.38 1.32,4.44 1.42,4.51C1.77,4.06 2.09,3.51 2.41,2.9L4.89,2.9L4.89,5.44L0.45,5.44L0.45,6.12L3.38,6.12C3.32,7.27 3.03,8.27 2.54,9.08C2.06,9.91 1.19,10.52 0,10.94C0.06,11.01 0.16,11.07 0.26,11.2C0.35,11.33 0.42,11.43 0.45,11.52C1.71,11.04 2.61,10.36 3.15,9.46C3.7,8.56 3.99,7.47 4.12,6.15L6.05,6.15L6.12,6.15L6.12,10.24C6.12,10.65 6.21,10.98 6.37,11.1C6.53,11.26 6.82,11.33 7.31,11.33L9.04,11.33C9.46,11.33 9.75,11.17 9.91,10.85C10.04,10.52 10.14,9.88 10.17,8.95C10.07,8.92 9.95,8.85 9.82,8.82C9.69,8.79 9.59,8.72 9.49,8.66C9.49,9.21 9.46,9.62 9.43,9.91C9.4,10.2 9.33,10.36 9.27,10.46C9.21,10.56 9.08,10.59 8.95,10.59Z " /></g><path id="分组 133" fill-rule="evenodd" style="fill:#FF6010" transform="translate(85.09880239520905 0)  rotate(0 7.1613023952099475 7.0325598802396)" opacity="1" d="M0.13 3.22L0.13 3.93L2.32 3.93L2.32 7.53C2.06 7.6 1.83 7.66 1.61 7.76C1.38 7.85 1.16 7.92 0.93 7.98C0.77 8.05 0.61 8.08 0.45 8.14C0.29 8.21 0.13 8.24 0 8.3L0.26 9.01C0.48 8.92 0.74 8.85 1 8.75C1.13 8.72 1.29 8.69 1.42 8.63C1.71 8.5 2.03 8.4 2.35 8.3L2.35 12.91C2.35 13 2.32 13.1 2.29 13.13C2.25 13.16 2.19 13.2 2.06 13.2C2.03 13.2 2 13.2 1.93 13.2C1.67 13.23 1.29 13.23 0.77 13.2C0.71 13.2 0.64 13.2 0.55 13.2C0.55 13.23 0.58 13.29 0.58 13.32C0.61 13.39 0.64 13.45 0.68 13.55C0.74 13.68 0.77 13.81 0.77 13.9C1.77 13.9 2.38 13.87 2.64 13.78C2.8 13.71 2.9 13.61 2.99 13.49C3.06 13.36 3.09 13.16 3.09 12.91L3.09 8.05L4.96 7.4L4.86 6.69C4.25 6.89 3.67 7.08 3.06 7.31L3.06 3.93L4.99 3.93L4.99 3.22L3.06 3.22L3.06 0L2.32 0L2.32 3.22L0.13 3.22Z M10.2044 4.6012C11.5244 3.7012 12.5544 2.5412 13.2944 1.1912L12.8444 0.901198L12.6844 0.961198L5.4744 0.961198L5.4744 1.6412L6.5044 1.6412C7.1144 2.7712 7.9544 3.7612 9.0144 4.5712C7.6944 5.3412 6.3444 5.9212 4.9244 6.2812C4.9844 6.3412 5.0544 6.4412 5.1544 6.5612C5.2444 6.6912 5.3144 6.7912 5.3444 6.8912C6.7944 6.4712 8.2044 5.8612 9.5944 4.9912C10.8444 5.8612 12.2644 6.5012 13.8444 6.8912C13.9044 6.7912 13.9644 6.6912 14.0644 6.5612C14.1644 6.4712 14.2244 6.4012 14.2944 6.3112L14.3244 6.2812C12.7744 5.9512 11.3944 5.3712 10.2044 4.6012Z M9.88314 10.6259L9.88314 8.68587L12.9431 8.68587L12.9431 8.01587L9.88314 8.01587L9.88314 6.56587L9.14314 6.56587L9.14314 8.01587L5.85314 8.01587L5.85314 8.68587L9.14314 8.68587L9.14314 10.6259L5.05314 10.6259L5.05314 11.3259L9.14314 11.3259L9.14314 14.0659L9.88314 14.0659L9.88314 11.3259L14.0931 11.3259L14.0931 10.6259L9.88314 10.6259Z M7.20958 1.64147C7.81958 2.64147 8.58958 3.47147 9.55958 4.21147C10.6896 3.47147 11.5896 2.64147 12.1996 1.64147L7.20958 1.64147Z " /><path id="分组 134" fill-rule="evenodd" style="fill:#FF6010" transform="translate(102.2537425149703 0.5149700598803975)  rotate(0 6.952095808383131 6.742889221556882)" opacity="1" d="M2.16 11.9072C2.06 12.0672 1.96 12.1672 1.87 12.2272C1.9 12.2672 1.9 12.2972 1.93 12.3272C2 12.3872 2.03 12.4572 2.09 12.5572C2.16 12.6772 2.22 12.8072 2.25 12.9072C2.32 12.8372 2.38 12.7772 2.48 12.6772C2.57 12.5872 2.74 12.4872 2.93 12.3272C3.12 12.1672 3.41 11.9372 3.8 11.6872C4.18 11.4272 4.7 11.0672 5.31 10.6572C5.31 10.6172 5.31 10.5872 5.28 10.5572C5.28 10.4972 5.25 10.4272 5.21 10.3672C5.15 10.2372 5.12 10.1372 5.09 10.0372L3.06 11.3572L3.03 11.3572L3.03 4.37725L0 4.37725L0 5.08725L2.32 5.08725L2.32 11.2672C2.32 11.5572 2.25 11.7772 2.16 11.9072Z M2.73557 1.16C2.28557 0.74 1.86557 0.35 1.44557 -1.13687e-13L0.965569 0.45C1.38557 0.84 1.80557 1.26 2.22557 1.67C2.63557 2.12 2.99557 2.51 3.25557 2.83L3.73557 2.29C3.47557 1.96 3.12557 1.58 2.73557 1.16Z M12.3285 2.83437L11.8085 2.76437L11.7185 2.83437L8.3685 2.83437C8.5285 2.28437 8.6285 1.73437 8.7585 1.22437C8.7585 1.09437 8.7885 0.964371 8.8185 0.834371C8.8185 0.804371 8.8185 0.774371 8.8185 0.744371L13.3585 0.744371L13.3585 0.0643713L4.7585 0.0643713L4.7585 0.744371L8.0785 0.744371C7.9485 1.41437 7.7885 2.09437 7.6285 2.83437L5.3385 2.83437L5.3385 3.50437L7.4685 3.50437C7.2385 4.47437 7.0485 5.31437 6.8185 6.05437L4.2485 6.05437L4.2485 6.75437L13.9085 6.75437L13.9085 6.05437L11.9685 6.05437C12.1385 4.95437 12.2585 3.89437 12.3285 2.83437Z M6.3103 13.4895L6.3103 12.8395L12.1003 12.8395L12.1003 13.4495L12.8403 13.4495L12.8403 8.23952L5.6003 8.23952L5.6003 13.4895L6.3103 13.4895Z M6.30838 8.91542L6.30838 12.1654L12.0984 12.1654L12.0984 8.91542L6.30838 8.91542Z M8.20581 3.50823C7.98581 4.43823 7.78581 5.30823 7.59581 6.04823L11.2958 6.04823C11.2958 5.91823 11.3258 5.82823 11.3258 5.69823C11.4258 4.95823 11.4858 4.21823 11.5858 3.50823L8.20581 3.50823Z " /><path id="分组 135" fill-rule="evenodd" style="fill:#FF6010" transform="translate(119.40868263473058 1.1368683772161603e-13)  rotate(0 6.839446107784431 7.000374251496987)" opacity="1" d="M0 3.12611L13.68 3.12611L13.68 2.44611L0 2.44611L0 3.12611Z M2.89644 13.9973L2.89644 13.2573L10.6864 13.2573L10.6864 13.9373L11.4264 13.9373L11.4264 9.23728L2.15644 9.23728L2.15644 13.9973L2.89644 13.9973Z M2.28518 4.63473L2.28518 5.27473L11.2652 5.27473L11.2652 4.63473L2.28518 4.63473Z M2.28518 7.56772L11.2652 7.56772L11.2652 6.88772L2.28518 6.88772L2.28518 7.52772L2.28518 7.56772Z M2.89671 9.91317L2.89671 12.6132L10.6867 12.6132L10.6867 9.91317L2.89671 9.91317Z M7.2403 1.06C6.9203 0.68 6.6003 0.32 6.2803 0L5.6003 0.26C5.9203 0.61 6.2403 0.97 6.5303 1.35C6.8203 1.77 7.0503 2.09 7.2103 2.41L7.9503 2.09C7.7903 1.8 7.5603 1.45 7.2403 1.06Z " /><path id="分组 136" fill-rule="evenodd" style="fill:#FF6010" transform="translate(0 24.074850299401305)  rotate(0 2.6231287425149263 4.039296407185632)" opacity="1" d="M0.03 0L0.03 8.08L0.64 8.08L0.64 4.92L2.61 4.92C2.96 4.92 3.28 4.89 3.6 4.76C3.93 4.63 4.18 4.47 4.44 4.25C4.67 4.06 4.86 3.8 5.02 3.48C5.18 3.15 5.25 2.83 5.25 2.45C5.25 2.09 5.18 1.77 5.05 1.48C4.92 1.19 4.73 0.93 4.51 0.71C4.25 0.48 3.96 0.32 3.64 0.19C3.28 0.06 2.93 0 2.51 0L0 0L0.03 0Z M4.02371 1.09716C3.83371 0.937156 3.60371 0.807156 3.31371 0.677156C3.02371 0.577156 2.64371 0.547156 2.25371 0.547156L0.643713 0.547156L0.643713 4.37716L2.28371 4.37716C2.70371 4.37716 3.09371 4.31716 3.38371 4.21716C3.67371 4.11716 3.89371 3.95716 4.08371 3.76716C4.28371 3.57716 4.37371 3.37716 4.47371 3.15716C4.50371 2.95716 4.57371 2.70716 4.57371 2.47716C4.57371 2.18716 4.53371 1.92716 4.44371 1.70716C4.34371 1.47716 4.21371 1.28716 4.02371 1.09716Z " /><path id="路径 559" fill-rule="evenodd" style="fill:#FF6010" transform="translate(7.756736526946128 24.042664670658723)  rotate(0 1.0943113772455382 4.119760479041901)" opacity="1" d="M0.58,6.63L0.58,0L0,0L0,6.53C0,6.86 0.03,7.15 0.13,7.34C0.19,7.56 0.32,7.72 0.45,7.85C0.58,7.98 0.74,8.08 0.9,8.14C1.09,8.21 1.26,8.24 1.45,8.24C1.58,8.24 1.71,8.24 1.8,8.18C1.96,8.14 2.06,8.11 2.19,8.05L2.03,7.6C1.93,7.63 1.87,7.66 1.77,7.69C1.67,7.72 1.54,7.72 1.42,7.72C1.16,7.72 0.97,7.63 0.8,7.43C0.64,7.24 0.58,6.95 0.58,6.63Z " /><path id="分组 137" fill-rule="evenodd" style="fill:#FF6010" transform="translate(11.779940119760482 26.005988023952227)  rotate(0 2.8001497005987437 3.154191616766452)" opacity="1" d="M0.84 4.28C0.71 3.96 0.61 3.64 0.61 3.25L5.6 3.25C5.6 2.77 5.54 2.32 5.44 1.93C5.34 1.54 5.15 1.19 4.92 0.9C4.67 0.58 4.41 0.39 4.06 0.23C3.7 0.06 3.32 0 2.86 0C2.41 0 2.03 0.1 1.67 0.26C1.32 0.42 1.03 0.64 0.77 0.93C0.51 1.22 0.32 1.54 0.19 1.93C0.06 2.32 0 2.74 0 3.15C0 3.57 0.06 3.99 0.19 4.38C0.35 4.76 0.55 5.09 0.8 5.37C1.09 5.66 1.38 5.89 1.77 6.05C2.16 6.21 2.57 6.31 3.03 6.31C3.6 6.31 4.09 6.21 4.44 5.95C4.83 5.73 5.15 5.5 5.37 5.25L4.99 4.86C4.76 5.09 4.51 5.28 4.18 5.44C3.86 5.6 3.48 5.7 3.03 5.7C2.74 5.7 2.45 5.66 2.16 5.54C1.87 5.44 1.61 5.28 1.38 5.05C1.16 4.86 0.97 4.6 0.84 4.28Z M1.41371 1.15934C1.19371 1.31934 1.06371 1.57934 0.933713 1.83934C0.803713 2.08934 0.703713 2.37934 0.643713 2.69934L4.95371 2.69934C4.95371 2.40934 4.89371 2.15934 4.79371 1.86934C4.70371 1.60934 4.57371 1.37934 4.37371 1.18934C4.18371 0.999341 3.99371 0.839341 3.73371 0.739341C3.47371 0.639341 3.21371 0.579341 2.89371 0.579341C2.60371 0.579341 2.35371 0.639341 2.09371 0.739341C1.86371 0.839341 1.64371 0.999341 1.41371 1.15934Z " /><path id="分组 138" fill-rule="evenodd" style="fill:#FF6010" transform="translate(19.343562874251518 26.070359281437277)  rotate(0 2.961077844311392 3.1220059880239663)" opacity="1" d="M0.74 5.28C1 5.57 1.29 5.79 1.64 5.99C2 6.15 2.41 6.24 2.9 6.24C3.35 6.24 3.8 6.15 4.22 5.92C4.67 5.7 5.02 5.41 5.34 5.05L5.34 6.15L5.92 6.15L5.92 0.16L5.34 0.16L5.34 1.16C4.99 0.74 4.6 0.45 4.18 0.26C3.77 0.1 3.35 -1.13687e-13 2.9 -1.13687e-13C2.41 -1.13687e-13 2 0.06 1.64 0.26C1.29 0.42 1 0.68 0.74 0.97C0.51 1.26 0.32 1.58 0.19 1.96C0.06 2.35 0 2.74 0 3.12C0 3.54 0.06 3.89 0.19 4.28C0.32 4.63 0.51 4.99 0.74 5.28Z M5.34153 4.34497L5.34153 1.99497C5.24153 1.83497 5.12153 1.67497 4.96153 1.51497C4.79153 1.35497 4.63153 1.19497 4.44153 1.06497C4.25153 0.93497 4.02153 0.80497 3.76153 0.74497C3.51153 0.54497 3.22153 0.51497 2.93153 0.51497C2.54153 0.51497 2.22153 0.57497 1.93153 0.74497C1.64153 0.90497 1.41153 1.09497 1.22153 1.35497C1.03153 1.57497 0.871527 1.86497 0.771527 2.18497C0.671527 2.51497 0.611527 2.83497 0.611527 3.15497C0.611527 3.47497 0.671527 3.76497 0.771527 4.08497C0.871527 4.40497 1.03153 4.66497 1.22153 4.92497C1.41153 5.14497 1.64153 5.37497 1.93153 5.50497C2.22153 5.63497 2.54153 5.72497 2.93153 5.72497C3.22153 5.72497 3.51153 5.69497 3.76153 5.60497C4.02153 5.50497 4.25153 5.40497 4.44153 5.27497C4.63153 5.14497 4.83153 4.98497 4.96153 4.82497C5.12153 4.66497 5.21153 4.50497 5.34153 4.34497Z " /><path id="路径 564" fill-rule="evenodd" style="fill:#FF6010" transform="translate(27.904940119760454 25.97380239520976)  rotate(0 2.1403443113772016 3.170284431137713)" opacity="1" d="M2,0.55C2.35,0.55 2.67,0.61 2.96,0.71C3.25,0.8 3.54,0.93 3.77,1.13L4.02,0.58C3.73,0.39 3.41,0.23 3.06,0.13C2.74,0.03 2.38,0 2.06,0C1.77,0 1.51,0.06 1.26,0.13C1,0.23 0.8,0.32 0.61,0.48C0.45,0.64 0.29,0.84 0.19,1.03C0.1,1.22 0.03,1.48 0.03,1.74C0.03,2.03 0.1,2.25 0.23,2.45C0.32,2.64 0.48,2.77 0.68,2.9C0.87,3.03 1.09,3.12 1.32,3.19C1.58,3.25 1.83,3.32 2.06,3.35C2.25,3.38 2.48,3.41 2.67,3.48C2.86,3.54 3.06,3.6 3.22,3.67C3.38,3.77 3.51,3.86 3.6,3.99C3.7,4.09 3.73,4.25 3.73,4.44C3.73,4.67 3.7,4.86 3.6,5.02C3.51,5.18 3.38,5.34 3.22,5.44C3.06,5.57 2.86,5.63 2.67,5.7C2.48,5.76 2.25,5.79 2.03,5.79C1.71,5.79 1.42,5.76 1.09,5.63C0.8,5.57 0.51,5.44 0.23,5.28L0,5.83C0.32,6.02 0.64,6.12 1,6.21C1.32,6.31 1.67,6.34 2,6.34C2.29,6.34 2.57,6.31 2.86,6.21C3.15,6.12 3.38,5.99 3.6,5.83C3.8,5.66 3.96,5.47 4.09,5.25C4.22,5.02 4.28,4.76 4.28,4.47C4.28,4.18 4.22,3.93 4.09,3.73C3.96,3.54 3.8,3.38 3.6,3.25C3.41,3.12 3.19,3.03 2.93,2.96C2.67,2.9 2.45,2.83 2.19,2.8C1.96,2.74 1.74,2.7 1.54,2.64C1.35,2.57 1.19,2.51 1.03,2.45C0.87,2.38 0.77,2.29 0.68,2.16C0.58,2.03 0.55,1.87 0.55,1.71C0.55,1.35 0.71,1.09 0.97,0.87C1.22,0.64 1.58,0.55 2,0.55Z " /><path id="分组 139" fill-rule="evenodd" style="fill:#FF6010" transform="translate(34.40643712574857 26.005988023952227)  rotate(0 2.8001497005987437 3.154191616766452)" opacity="1" d="M5.37 5.25L4.99 4.86C4.76 5.09 4.51 5.28 4.18 5.44C3.86 5.6 3.48 5.7 3.03 5.7C2.74 5.7 2.45 5.66 2.16 5.54C1.87 5.44 1.61 5.28 1.38 5.05C1.16 4.86 0.97 4.6 0.84 4.28C0.71 3.96 0.61 3.64 0.61 3.25L5.6 3.25C5.6 2.77 5.54 2.32 5.44 1.93C5.34 1.54 5.15 1.19 4.92 0.9C4.67 0.58 4.41 0.39 4.06 0.23C3.7 0.06 3.32 0 2.86 0C2.41 0 2.03 0.1 1.67 0.26C1.32 0.42 1.03 0.64 0.77 0.93C0.51 1.22 0.32 1.54 0.19 1.93C0.06 2.32 0 2.74 0 3.15C0 3.57 0.06 3.99 0.19 4.38C0.35 4.76 0.55 5.09 0.8 5.37C1.09 5.66 1.38 5.89 1.77 6.05C2.16 6.21 2.57 6.31 3.03 6.31C3.6 6.31 4.09 6.21 4.44 5.95C4.83 5.73 5.15 5.5 5.37 5.25Z M4.37371 1.18934C4.18371 0.999341 3.99371 0.839341 3.73371 0.739341C3.47371 0.639341 3.21371 0.579341 2.89371 0.579341C2.60371 0.579341 2.35371 0.639341 2.09371 0.739341C1.86371 0.839341 1.64371 0.999341 1.41371 1.15934C1.19371 1.31934 1.06371 1.57934 0.933713 1.83934C0.803713 2.08934 0.703713 2.37934 0.643713 2.69934L4.95371 2.69934C4.95371 2.40934 4.89371 2.15934 4.79371 1.86934C4.70371 1.60934 4.57371 1.37934 4.37371 1.18934Z " /><path id="路径 567" fill-rule="evenodd" style="fill:#FF6010" transform="translate(46.44386227544905 25.97380239520976)  rotate(0 2.1403443113772016 3.170284431137713)" opacity="1" d="M3.06,0.13C2.74,0.03 2.38,0 2.06,0C1.77,0 1.51,0.06 1.26,0.13C1,0.23 0.8,0.32 0.61,0.48C0.45,0.64 0.29,0.84 0.19,1.03C0.1,1.22 0.03,1.48 0.03,1.74C0.03,2.03 0.1,2.25 0.23,2.45C0.32,2.64 0.48,2.77 0.68,2.9C0.87,3.03 1.09,3.12 1.32,3.19C1.58,3.25 1.83,3.32 2.06,3.35C2.25,3.38 2.48,3.41 2.67,3.48C2.86,3.54 3.06,3.6 3.22,3.67C3.38,3.77 3.51,3.86 3.6,3.99C3.7,4.09 3.73,4.25 3.73,4.44C3.73,4.67 3.7,4.86 3.6,5.02C3.51,5.18 3.38,5.34 3.22,5.44C3.06,5.57 2.86,5.63 2.67,5.7C2.48,5.76 2.25,5.79 2.03,5.79C1.71,5.79 1.38,5.76 1.09,5.63C0.8,5.57 0.51,5.44 0.23,5.28L0,5.83C0.32,6.02 0.64,6.12 1,6.21C1.32,6.31 1.67,6.34 2,6.34C2.29,6.34 2.57,6.31 2.86,6.21C3.15,6.12 3.38,5.99 3.6,5.83C3.8,5.66 3.96,5.47 4.09,5.25C4.22,5.02 4.28,4.76 4.28,4.47C4.28,4.18 4.22,3.93 4.09,3.73C3.96,3.54 3.8,3.38 3.6,3.25C3.41,3.12 3.19,3.03 2.93,2.96C2.67,2.9 2.45,2.83 2.19,2.8C1.96,2.74 1.74,2.7 1.54,2.64C1.35,2.57 1.19,2.51 1.03,2.45C0.87,2.38 0.77,2.29 0.68,2.16C0.58,2.03 0.55,1.87 0.55,1.71C0.55,1.35 0.71,1.09 0.97,0.87C1.22,0.64 1.58,0.55 2,0.55C2.35,0.55 2.67,0.61 2.96,0.71C3.25,0.8 3.54,0.93 3.77,1.13L4.02,0.58C3.73,0.39 3.41,0.23 3.06,0.13Z " /><path id="分组 140" fill-rule="evenodd" style="fill:#FF6010" transform="translate(52.94535928143716 26.005988023952227)  rotate(0 2.8001497005987437 3.154191616766452)" opacity="1" d="M0.77 0.93C0.51 1.22 0.32 1.54 0.19 1.93C0.06 2.32 0 2.74 0 3.15C0 3.57 0.06 3.99 0.19 4.38C0.35 4.76 0.55 5.09 0.8 5.37C1.09 5.66 1.38 5.89 1.77 6.05C2.16 6.21 2.57 6.31 3.03 6.31C3.57 6.31 4.06 6.21 4.44 5.95C4.83 5.73 5.15 5.5 5.37 5.25L4.99 4.86C4.76 5.09 4.51 5.28 4.18 5.44C3.86 5.6 3.48 5.7 3.03 5.7C2.74 5.7 2.45 5.66 2.16 5.54C1.87 5.44 1.61 5.28 1.38 5.05C1.16 4.86 0.97 4.6 0.84 4.28C0.71 3.96 0.61 3.64 0.61 3.25L5.6 3.25C5.6 2.77 5.54 2.32 5.44 1.93C5.34 1.54 5.15 1.19 4.92 0.9C4.67 0.58 4.41 0.39 4.06 0.23C3.7 0.06 3.32 0 2.86 0C2.41 0 2.03 0.1 1.67 0.26C1.32 0.42 1.03 0.64 0.77 0.93Z M1.41371 1.15934C1.19371 1.31934 1.06371 1.57934 0.933713 1.83934C0.803713 2.08934 0.703713 2.37934 0.643713 2.69934L4.95371 2.69934C4.95371 2.40934 4.89371 2.15934 4.79371 1.86934C4.70371 1.60934 4.57371 1.37934 4.37371 1.18934C4.18371 0.999341 3.99371 0.839341 3.73371 0.739341C3.47371 0.639341 3.21371 0.579341 2.89371 0.579341C2.60371 0.579341 2.35371 0.639341 2.09371 0.739341C1.86371 0.839341 1.64371 0.999341 1.41371 1.15934Z " /><path id="路径 570" fill-rule="evenodd" style="fill:#FF6010" transform="translate(61.15269461077847 24.042664670658723)  rotate(0 1.0943113772455382 4.119760479041901)" opacity="1" d="M1.8,8.18C1.96,8.14 2.06,8.11 2.19,8.05L2.03,7.6C1.93,7.63 1.87,7.66 1.77,7.69C1.67,7.72 1.54,7.72 1.42,7.72C1.16,7.72 0.97,7.63 0.8,7.43C0.64,7.24 0.58,6.95 0.58,6.63L0.58,0L0,0L0,6.53C0,6.86 0.03,7.15 0.13,7.34C0.19,7.56 0.32,7.72 0.45,7.85C0.58,7.98 0.74,8.08 0.9,8.14C1.09,8.21 1.26,8.24 1.45,8.24C1.58,8.24 1.71,8.24 1.8,8.18Z " /><path id="分组 141" fill-rule="evenodd" style="fill:#FF6010" transform="translate(65.17589820359285 26.005988023952227)  rotate(0 2.8001497005987437 3.154191616766452)" opacity="1" d="M5.41 5.25L5.02 4.86C4.8 5.09 4.54 5.28 4.22 5.44C3.89 5.6 3.51 5.7 3.06 5.7C2.77 5.7 2.48 5.66 2.19 5.54C1.9 5.44 1.64 5.28 1.42 5.05C1.19 4.86 1 4.6 0.87 4.28C0.74 3.96 0.64 3.64 0.64 3.25L5.6 3.25C5.6 2.77 5.54 2.32 5.44 1.93C5.34 1.54 5.15 1.19 4.92 0.9C4.67 0.58 4.41 0.39 4.06 0.23C3.7 0.06 3.32 0 2.86 0C2.41 0 2.03 0.1 1.67 0.26C1.32 0.42 1.03 0.64 0.77 0.93C0.51 1.22 0.32 1.54 0.19 1.93C0.06 2.32 0 2.74 0 3.15C0 3.57 0.06 3.99 0.19 4.38C0.35 4.76 0.55 5.09 0.8 5.37C1.09 5.66 1.38 5.89 1.77 6.05C2.16 6.21 2.57 6.31 3.03 6.31C3.6 6.31 4.09 6.21 4.47 5.95C4.86 5.73 5.18 5.5 5.41 5.25Z M2.89371 0.579341C2.60371 0.579341 2.35371 0.639341 2.09371 0.739341C1.86371 0.839341 1.64371 0.999341 1.41371 1.15934C1.19371 1.31934 1.06371 1.57934 0.933713 1.83934C0.803713 2.08934 0.703713 2.37934 0.643713 2.69934L4.95371 2.69934C4.95371 2.40934 4.89371 2.15934 4.79371 1.86934C4.70371 1.60934 4.57371 1.37934 4.37371 1.18934C4.18371 0.999341 3.99371 0.839341 3.73371 0.739341C3.47371 0.639341 3.21371 0.579341 2.89371 0.579341Z " /><path id="路径 573" fill-rule="evenodd" style="fill:#FF6010" transform="translate(72.90044910179643 26.005988023952227)  rotate(0 2.7840568862276474 3.154191616766452)" opacity="1" d="M1.93,6.05C2.32,6.21 2.74,6.31 3.19,6.31C3.48,6.31 3.77,6.28 3.96,6.28C4.22,6.21 4.44,6.12 4.63,6.02C4.83,5.89 5.02,5.79 5.18,5.66C5.34,5.54 5.47,5.38 5.57,5.25L5.15,4.86C5.05,4.96 4.96,5.09 4.83,5.18C4.7,5.28 4.57,5.38 4.41,5.47C4.22,5.57 4.02,5.63 3.83,5.7C3.6,5.76 3.38,5.79 3.12,5.79C2.83,5.79 2.51,5.73 2.22,5.6C1.93,5.47 1.64,5.31 1.42,5.09C1.19,4.86 1,4.6 0.84,4.28C0.68,3.96 0.61,3.6 0.61,3.22C0.61,2.83 0.68,2.48 0.8,2.16C0.93,1.83 1.13,1.54 1.35,1.32C1.58,1.09 1.83,0.9 2.12,0.77C2.41,0.64 2.7,0.58 3.03,0.58C3.38,0.58 3.73,0.64 4.09,0.77C4.41,0.9 4.7,1.09 4.96,1.29C5.02,1.19 5.09,1.09 5.12,1.03C5.15,0.97 5.21,0.9 5.28,0.8C4.96,0.55 4.6,0.35 4.22,0.19C3.83,0.06 3.44,0 3.03,0C2.57,0 2.19,0.1 1.8,0.26C1.42,0.42 1.09,0.64 0.84,0.93C0.58,1.22 0.39,1.54 0.23,1.93C0.06,2.32 0,2.74 0,3.15C0,3.57 0.1,3.99 0.26,4.38C0.42,4.76 0.64,5.09 0.93,5.37C1.22,5.66 1.54,5.89 1.93,6.05Z " /><path id="路径 574" fill-rule="evenodd" style="fill:#FF6010" transform="translate(80.2387724550899 24.52544910179654)  rotate(0 1.963323353293457 3.8944610778442996)" opacity="1" d="M1.77,6.5C1.71,6.34 1.67,6.12 1.67,5.89L1.67,2.22L3.77,2.22L3.77,1.67L1.67,1.67L1.67,0L1.09,0L1.09,1.67L0,1.67L0,2.22L1.09,2.22L1.09,5.89C1.09,6.24 1.13,6.57 1.22,6.79C1.32,7.02 1.45,7.21 1.61,7.37C1.77,7.53 1.96,7.63 2.16,7.69C2.35,7.76 2.54,7.79 2.77,7.79C2.96,7.79 3.15,7.76 3.41,7.72C3.6,7.66 3.77,7.6 3.93,7.5L3.7,7.02C3.57,7.08 3.44,7.15 3.32,7.18C3.19,7.21 2.99,7.24 2.8,7.24C2.64,7.24 2.51,7.21 2.38,7.15C2.25,7.11 2.12,7.02 2.03,6.92C1.9,6.79 1.83,6.66 1.77,6.5Z " /><path id="路径 575" fill-rule="evenodd" style="fill:#FF6010" transform="translate(90.08757485029946 26.199101796407263)  rotate(0 2.703592814371287 4.425523952095808)" opacity="1" d="M2.51,6.08L2.09,7.18C1.93,7.6 1.77,7.89 1.58,8.05C1.42,8.21 1.19,8.3 0.97,8.3C0.87,8.3 0.8,8.27 0.71,8.27C0.61,8.24 0.55,8.24 0.45,8.21L0.29,8.75C0.55,8.82 0.77,8.85 0.93,8.85C1.32,8.85 1.64,8.72 1.9,8.46C2.16,8.21 2.38,7.79 2.61,7.24L5.41,0L4.8,0L2.77,5.34L0.64,0L0,0L2.51,6.08Z " /><path id="分组 142" fill-rule="evenodd" style="fill:#FF6010" transform="translate(97.32934131736533 26.038173652694695)  rotate(0 3.073727544910165 3.1380988023952274)" opacity="1" d="M0.26 4.44C0.42 4.86 0.64 5.18 0.93 5.44C1.22 5.7 1.54 5.92 1.93 6.05C2.29 6.21 2.67 6.28 3.06 6.28C3.44 6.28 3.8 6.21 4.18 6.05C4.57 5.92 4.89 5.7 5.18 5.44C5.5 5.15 5.73 4.83 5.89 4.44C6.05 4.06 6.15 3.6 6.15 3.12C6.15 2.64 6.05 2.19 5.89 1.8C5.7 1.42 5.47 1.06 5.18 0.8C4.86 0.55 4.54 0.35 4.18 0.19C3.83 0.06 3.44 0 3.06 0C2.7 0 2.32 0.06 1.93 0.19C1.54 0.32 1.22 0.55 0.93 0.8C0.64 1.06 0.42 1.42 0.26 1.8C0.1 2.19 0 2.61 0 3.12C0 3.64 0.1 4.06 0.26 4.44Z M3.99153 0.707156C3.70153 0.577156 3.41153 0.547156 3.09153 0.547156C2.80153 0.547156 2.48153 0.607156 2.19153 0.707156C1.90153 0.837156 1.61153 0.997156 1.38153 1.22716C1.16153 1.44716 0.961527 1.73716 0.841527 2.05716C0.671527 2.37716 0.611527 2.73716 0.611527 3.11716C0.611527 3.50716 0.671527 3.86716 0.841527 4.18716C0.961527 4.50716 1.16153 4.76716 1.38153 4.98716C1.61153 5.21716 1.87153 5.40716 2.19153 5.50716C2.48153 5.63716 2.77153 5.69716 3.09153 5.69716C3.38153 5.69716 3.70153 5.63716 3.99153 5.50716C4.28153 5.37716 4.54153 5.21716 4.76153 4.98716C4.99153 4.76716 5.18153 4.50716 5.34153 4.18716C5.47153 3.89716 5.53153 3.50716 5.53153 3.11716C5.53153 2.73716 5.47153 2.37716 5.34153 2.05716C5.18153 1.73716 5.02153 1.47716 4.76153 1.22716C4.54153 0.997156 4.28153 0.837156 3.99153 0.707156Z " /><path id="路径 578" fill-rule="evenodd" style="fill:#FF6010" transform="translate(106.0194610778444 26.199101796407263)  rotate(0 2.7518712574850883 3.057634730538922)" opacity="1" d="M0.58,3.35L0.58,0L0,0L0,3.44C0,3.93 0.06,4.35 0.23,4.7C0.39,5.05 0.58,5.31 0.84,5.54C1.09,5.73 1.35,5.89 1.64,5.99C1.93,6.08 2.22,6.12 2.51,6.12C3.03,6.12 3.51,6.02 3.89,5.79C4.28,5.57 4.63,5.28 4.92,4.92L4.92,5.99L5.5,5.99L5.5,0L4.92,0L4.92,4.15C4.67,4.57 4.35,4.92 3.96,5.18C3.54,5.44 3.12,5.57 2.67,5.57C2.38,5.57 2.12,5.54 1.87,5.44C1.61,5.34 1.38,5.21 1.19,5.02C1,4.86 0.84,4.63 0.74,4.35C0.64,4.06 0.58,3.73 0.58,3.35Z " /><path id="路径 579" fill-rule="evenodd" style="fill:#FF6010" transform="translate(114.6773952095808 26.102544910179745)  rotate(0 1.4483532934131738 3.057634730538922)" opacity="1" d="M2.9,0.58L2.9,0C2.86,0 2.8,0 2.74,0C2.67,0 2.61,0 2.57,0C2.16,0 1.77,0.13 1.42,0.35C1.06,0.61 0.77,0.97 0.55,1.42L0.55,0.1L0,0.1L0,6.12L0.58,6.12L0.58,2.32C0.64,2.09 0.77,1.87 0.9,1.67C1.03,1.48 1.19,1.29 1.35,1.13C1.51,0.97 1.71,0.84 1.93,0.74C2.12,0.64 2.38,0.58 2.64,0.58C2.67,0.58 2.74,0.58 2.77,0.58C2.8,0.58 2.8,0.58 2.83,0.58C2.86,0.58 2.9,0.58 2.9,0.58Z " /><path id="路径 580" fill-rule="evenodd" style="fill:#FF6010" transform="translate(124.17215568862284 24.042664670658723)  rotate(0 1.0943113772455382 4.119760479041901)" opacity="1" d="M0,6.53C0,6.86 0.03,7.15 0.13,7.34C0.19,7.56 0.32,7.72 0.45,7.85C0.58,7.98 0.74,8.08 0.9,8.14C1.09,8.21 1.26,8.24 1.45,8.24C1.58,8.24 1.71,8.24 1.8,8.18C1.96,8.14 2.06,8.11 2.19,8.05L2.03,7.6C1.93,7.63 1.87,7.66 1.77,7.69C1.67,7.72 1.54,7.72 1.42,7.72C1.16,7.72 0.97,7.63 0.8,7.43C0.64,7.24 0.58,6.95 0.58,6.63L0.58,0L0,0L0,6.53Z " /><path id="分组 143" fill-rule="evenodd" style="fill:#FF6010" transform="translate(128.22754491017972 26.070359281437277)  rotate(0 2.961077844311392 3.1220059880239663)" opacity="1" d="M0.19 1.96C0.06 2.35 0 2.74 0 3.12C0 3.54 0.06 3.89 0.19 4.28C0.32 4.63 0.51 4.99 0.74 5.28C1 5.57 1.29 5.79 1.64 5.99C2 6.15 2.41 6.24 2.9 6.24C3.35 6.24 3.8 6.15 4.22 5.92C4.67 5.7 5.02 5.41 5.34 5.05L5.34 6.15L5.92 6.15L5.92 0.16L5.34 0.16L5.34 1.16C4.99 0.74 4.6 0.45 4.18 0.26C3.77 0.1 3.35 -1.13687e-13 2.9 -1.13687e-13C2.41 -1.13687e-13 2 0.06 1.64 0.26C1.29 0.42 1 0.68 0.74 0.97C0.51 1.26 0.32 1.58 0.19 1.96Z M1.93153 5.50497C2.22153 5.63497 2.54153 5.72497 2.93153 5.72497C3.22153 5.72497 3.51153 5.69497 3.76153 5.60497C4.02153 5.50497 4.25153 5.40497 4.44153 5.27497C4.63153 5.14497 4.83153 4.98497 4.96153 4.82497C5.12153 4.66497 5.21153 4.50497 5.34153 4.34497L5.34153 1.99497C5.24153 1.83497 5.12153 1.67497 4.96153 1.51497C4.79153 1.35497 4.63153 1.19497 4.44153 1.06497C4.25153 0.93497 4.02153 0.80497 3.76153 0.74497C3.51153 0.54497 3.22153 0.51497 2.93153 0.51497C2.54153 0.51497 2.22153 0.57497 1.93153 0.74497C1.64153 0.90497 1.41153 1.09497 1.22153 1.35497C1.03153 1.57497 0.871527 1.86497 0.771527 2.18497C0.671527 2.51497 0.611527 2.83497 0.611527 3.15497C0.611527 3.47497 0.671527 3.76497 0.771527 4.08497C0.871527 4.40497 1.03153 4.66497 1.22153 4.92497C1.41153 5.14497 1.64153 5.37497 1.93153 5.50497Z " /><path id="路径 583" fill-rule="evenodd" style="fill:#FF6010" transform="translate(137.27170658682638 26.005988023952114)  rotate(0 2.7518712574850155 3.0737275449101826)" opacity="1" d="M2.19,0.64C2.41,0.58 2.64,0.55 2.83,0.55C3.12,0.55 3.38,0.58 3.64,0.68C3.89,0.74 4.12,0.87 4.31,1.06C4.51,1.26 4.67,1.48 4.76,1.77C4.86,2.06 4.92,2.38 4.92,2.77L4.92,6.15L5.5,6.15L5.5,2.7C5.5,2.19 5.44,1.77 5.28,1.42C5.15,1.06 4.96,0.8 4.7,0.58C4.47,0.39 4.18,0.23 3.89,0.13C3.6,0.03 3.32,0 3.03,0C2.48,0 2.03,0.13 1.61,0.35C1.19,0.58 0.84,0.87 0.58,1.22L0.58,0.19L0,0.19L0,6.15L0.58,6.15L0.58,1.96C0.71,1.74 0.87,1.54 1.03,1.38C1.19,1.22 1.38,1.06 1.58,0.93C1.77,0.8 1.96,0.71 2.19,0.64Z " /><path id="分组 144" fill-rule="evenodd" style="fill:#FF6010" transform="translate(145.35029940119762 26.070359281437277)  rotate(0 2.961077844311392 4.570359281437104)" opacity="1" d="M0.19 4.28C0.32 4.63 0.51 4.99 0.74 5.28C1 5.57 1.29 5.79 1.64 5.99C2 6.15 2.41 6.24 2.9 6.24C3.38 6.24 3.83 6.15 4.22 5.99C4.63 5.79 4.99 5.5 5.28 5.15L5.28 6.44C5.28 6.79 5.21 7.11 5.09 7.37C4.96 7.66 4.8 7.85 4.57 8.05C4.38 8.24 4.12 8.37 3.86 8.46C3.6 8.56 3.32 8.63 3.06 8.63C2.57 8.63 2.16 8.53 1.8 8.37C1.45 8.21 1.13 8.01 0.87 7.79L0.55 8.27C0.9 8.5 1.26 8.72 1.67 8.88C2.09 9.04 2.54 9.14 3.06 9.14C3.41 9.14 3.73 9.08 4.09 8.98C4.41 8.88 4.73 8.72 4.99 8.5C5.28 8.27 5.5 7.98 5.66 7.63C5.83 7.27 5.92 6.86 5.92 6.37L5.92 0.16L5.34 0.16L5.34 1.16C4.99 0.74 4.6 0.45 4.18 0.26C3.77 0.1 3.35 -1.13687e-13 2.9 -1.13687e-13C2.41 -1.13687e-13 2 0.06 1.64 0.26C1.29 0.42 1 0.68 0.74 0.97C0.51 1.26 0.32 1.58 0.19 1.96C0.06 2.35 0 2.74 0 3.12C0 3.54 0.06 3.89 0.19 4.28Z M2.89716 0.51497C2.50716 0.51497 2.18716 0.57497 1.89716 0.74497C1.60716 0.90497 1.38716 1.09497 1.15716 1.35497C0.967156 1.57497 0.807156 1.86497 0.707156 2.18497C0.607156 2.51497 0.547156 2.83497 0.547156 3.15497C0.547156 3.47497 0.607156 3.76497 0.707156 4.08497C0.807156 4.40497 0.967156 4.66497 1.15716 4.92497C1.34716 5.14497 1.60716 5.37497 1.89716 5.50497C2.18716 5.63497 2.50716 5.72497 2.89716 5.72497C3.18716 5.72497 3.47716 5.69497 3.73716 5.60497C3.98716 5.50497 4.21716 5.40497 4.40716 5.27497C4.60716 5.14497 4.79716 4.98497 4.92716 4.82497C5.08716 4.66497 5.21716 4.50497 5.30716 4.34497L5.30716 1.99497C5.21716 1.83497 5.08716 1.67497 4.92716 1.51497C4.76716 1.35497 4.60716 1.19497 4.40716 1.06497C4.21716 0.93497 3.98716 0.80497 3.73716 0.74497C3.47716 0.54497 3.21716 0.51497 2.89716 0.51497Z " /><path id="路径 586" fill-rule="evenodd" style="fill:#FF6010" transform="translate(154.26571856287433 26.199101796407263)  rotate(0 2.7518712574850883 3.057634730538922)" opacity="1" d="M3.96,5.18C3.54,5.44 3.12,5.57 2.67,5.57C2.38,5.57 2.12,5.54 1.87,5.44C1.61,5.34 1.38,5.21 1.19,5.02C1,4.86 0.84,4.63 0.74,4.35C0.64,4.06 0.58,3.73 0.58,3.35L0.58,0L0,0L0,3.44C0,3.93 0.06,4.35 0.23,4.7C0.39,5.05 0.58,5.31 0.84,5.54C1.09,5.73 1.35,5.89 1.64,5.99C1.93,6.08 2.22,6.12 2.51,6.12C3.03,6.12 3.51,6.02 3.89,5.79C4.28,5.57 4.63,5.28 4.92,4.92L4.92,5.99L5.5,5.99L5.5,0L4.92,0L4.92,4.15C4.67,4.57 4.35,4.92 3.96,5.18Z " /><path id="分组 145" fill-rule="evenodd" style="fill:#FF6010" transform="translate(162.4408682634732 26.070359281437277)  rotate(0 2.961077844311392 3.1220059880239663)" opacity="1" d="M0.74 0.97C0.51 1.26 0.32 1.58 0.19 1.96C0.06 2.35 0 2.74 0 3.12C0 3.54 0.06 3.89 0.19 4.28C0.32 4.63 0.51 4.99 0.74 5.28C1 5.57 1.29 5.79 1.64 5.99C2 6.15 2.41 6.24 2.9 6.24C3.35 6.24 3.8 6.15 4.22 5.92C4.67 5.7 5.02 5.41 5.34 5.05L5.34 6.15L5.92 6.15L5.92 0.16L5.34 0.16L5.34 1.16C4.99 0.74 4.6 0.45 4.18 0.26C3.77 0.1 3.35 -1.13687e-13 2.9 -1.13687e-13C2.41 -1.13687e-13 2 0.06 1.64 0.26C1.29 0.42 1 0.68 0.74 0.97Z M4.44153 1.06497C4.25153 0.93497 4.02153 0.80497 3.76153 0.74497C3.51153 0.54497 3.22153 0.51497 2.93153 0.51497C2.54153 0.51497 2.22153 0.57497 1.93153 0.74497C1.64153 0.90497 1.41153 1.09497 1.22153 1.35497C1.03153 1.57497 0.871527 1.86497 0.771527 2.18497C0.671527 2.51497 0.611527 2.83497 0.611527 3.15497C0.611527 3.47497 0.671527 3.76497 0.771527 4.08497C0.871527 4.40497 1.03153 4.66497 1.22153 4.92497C1.41153 5.14497 1.64153 5.37497 1.93153 5.50497C2.22153 5.63497 2.54153 5.72497 2.93153 5.72497C3.22153 5.72497 3.51153 5.69497 3.76153 5.60497C4.02153 5.50497 4.25153 5.40497 4.44153 5.27497C4.63153 5.14497 4.83153 4.98497 4.96153 4.82497C5.12153 4.66497 5.21153 4.50497 5.34153 4.34497L5.34153 1.99497C5.24153 1.83497 5.12153 1.67497 4.96153 1.51497C4.79153 1.35497 4.63153 1.19497 4.44153 1.06497Z " /><path id="分组 146" fill-rule="evenodd" style="fill:#FF6010" transform="translate(171.0344311377246 26.070359281437277)  rotate(0 2.961077844311392 4.570359281437104)" opacity="1" d="M1.64 5.99C2 6.15 2.41 6.24 2.9 6.24C3.38 6.24 3.83 6.15 4.22 5.99C4.63 5.79 4.99 5.5 5.28 5.15L5.28 6.44C5.28 6.79 5.21 7.11 5.09 7.37C4.96 7.66 4.8 7.85 4.57 8.05C4.38 8.24 4.12 8.37 3.86 8.46C3.6 8.56 3.32 8.63 3.06 8.63C2.57 8.63 2.16 8.53 1.8 8.37C1.45 8.21 1.13 8.01 0.87 7.79L0.55 8.27C0.9 8.5 1.26 8.72 1.67 8.88C2.09 9.04 2.54 9.14 3.06 9.14C3.41 9.14 3.73 9.08 4.09 8.98C4.41 8.88 4.73 8.72 4.99 8.5C5.28 8.27 5.5 7.98 5.66 7.63C5.83 7.27 5.92 6.86 5.92 6.37L5.92 0.16L5.34 0.16L5.34 1.16C4.99 0.74 4.6 0.45 4.18 0.26C3.77 0.1 3.35 -1.13687e-13 2.9 -1.13687e-13C2.41 -1.13687e-13 2 0.06 1.64 0.26C1.29 0.42 1 0.68 0.74 0.97C0.51 1.26 0.32 1.58 0.19 1.96C0.06 2.35 0 2.74 0 3.12C0 3.54 0.06 3.89 0.19 4.28C0.32 4.63 0.51 4.99 0.74 5.28C1 5.57 1.29 5.79 1.64 5.99Z M2.92934 0.51497C2.53934 0.51497 2.21934 0.57497 1.92934 0.74497C1.63934 0.90497 1.41934 1.09497 1.18934 1.35497C0.999341 1.57497 0.839341 1.86497 0.739341 2.18497C0.639341 2.51497 0.579341 2.83497 0.579341 3.15497C0.579341 3.47497 0.639341 3.76497 0.739341 4.08497C0.839341 4.40497 0.999341 4.66497 1.18934 4.92497C1.37934 5.14497 1.63934 5.37497 1.92934 5.50497C2.21934 5.63497 2.53934 5.72497 2.92934 5.72497C3.21934 5.72497 3.50934 5.69497 3.76934 5.60497C4.01934 5.50497 4.24934 5.40497 4.43934 5.27497C4.63934 5.14497 4.82934 4.98497 4.95934 4.82497C5.11934 4.66497 5.24934 4.50497 5.33934 4.34497L5.33934 1.99497C5.24934 1.83497 5.11934 1.67497 4.95934 1.51497C4.79934 1.35497 4.63934 1.19497 4.43934 1.06497C4.24934 0.93497 4.01934 0.80497 3.76934 0.74497C3.50934 0.54497 3.21934 0.51497 2.92934 0.51497Z " /><path id="分组 147" fill-rule="evenodd" style="fill:#FF6010" transform="translate(179.43488023952096 26.005988023952227)  rotate(0 2.8001497005987437 3.154191616766452)" opacity="1" d="M4.18 5.44C3.86 5.6 3.48 5.7 3.03 5.7C2.74 5.7 2.45 5.66 2.16 5.54C1.87 5.44 1.61 5.28 1.38 5.05C1.16 4.86 0.97 4.6 0.84 4.28C0.71 3.96 0.61 3.64 0.61 3.25L5.6 3.25C5.6 2.77 5.54 2.32 5.44 1.93C5.34 1.54 5.15 1.19 4.92 0.9C4.67 0.58 4.41 0.39 4.06 0.23C3.7 0.06 3.32 0 2.86 0C2.41 0 2.03 0.1 1.67 0.26C1.32 0.42 1.03 0.64 0.77 0.93C0.51 1.22 0.32 1.54 0.19 1.93C0.06 2.32 0 2.74 0 3.15C0 3.57 0.06 3.99 0.19 4.38C0.35 4.76 0.55 5.09 0.8 5.37C1.09 5.66 1.38 5.89 1.77 6.05C2.16 6.21 2.57 6.31 3.03 6.31C3.6 6.31 4.09 6.21 4.44 5.95C4.83 5.73 5.15 5.5 5.37 5.25L4.99 4.86C4.76 5.09 4.51 5.28 4.18 5.44Z M2.89371 0.579341C2.60371 0.579341 2.35371 0.639341 2.09371 0.739341C1.86371 0.839341 1.64371 0.999341 1.41371 1.15934C1.19371 1.31934 1.06371 1.57934 0.933713 1.83934C0.803713 2.08934 0.703713 2.37934 0.643713 2.69934L4.95371 2.69934C4.95371 2.40934 4.89371 2.15934 4.79371 1.86934C4.70371 1.60934 4.57371 1.37934 4.37371 1.18934C4.18371 0.999341 3.99371 0.839341 3.73371 0.739341C3.47371 0.639341 3.21371 0.579341 2.89371 0.579341Z " /></g></svg>