<svg xmlns="http://www.w3.org/2000/svg" xmlns:xlink="http://www.w3.org/1999/xlink" width="88" height="36" viewBox="0 0 88 36" fill="none"><g opacity="1" transform="translate(-0.00003362415782248718 -0.0000030152099839142465)  rotate(0 43.65980538922151 17.863023952095805)"><g opacity="1" transform="translate(0 0)  rotate(0 43.65980538922151 17.863023952095805)"><path id="路径 596" fill-rule="evenodd" style="fill:#FF6010" transform="translate(1.2872254402948329 1.287425149700539)  rotate(0 42.3724800942238 16.57559880239521)" opacity="1" d="M0,8.59L0,24.56C0,29.29 3.83,33.15 8.59,33.15L84.74,33.15L84.74,0L8.59,0C3.83,0 -0.03,3.86 0,8.59Z " /><path id="分组 152" fill-rule="evenodd" style="fill:#FF6010" transform="translate(0 0)  rotate(0 43.65980538922151 17.863023952095805)" opacity="1" d="M87.32 0L9.88 0C4.44 0 0 4.44 0 9.88L0 25.85C0 31.28 4.44 35.73 9.88 35.73L87.32 35.73L87.32 0Z M2.57485 9.88485L2.57485 25.8449C2.57485 29.8649 5.85485 33.1549 9.88485 33.1549L84.7449 33.1549L84.7449 2.57485L9.88485 2.57485C5.85485 2.57485 2.57485 5.85485 2.57485 9.88485Z " /></g><g opacity="1" transform="translate(28.999251497005844 11.071856287425248)  rotate(0 15.1272455089821 7.0164670658682855)"><path id="分组 154" fill-rule="evenodd" style="fill:#FFFFFF" transform="translate(0 0.09655688622751768)  rotate(0 6.131362275449161 6.968188622754483)" opacity="1" d="M6.5 0L5.73 0L5.73 2.8L0 2.8L0 9.82L0.74 9.82L0.74 8.79L5.73 8.79L5.73 13.94L6.5 13.94L6.5 8.79L11.49 8.79L11.49 9.72L12.26 9.72L12.26 2.77L6.5 2.77L6.5 0Z M5.76245 8.04605L5.76245 3.47605L0.772455 3.47605L0.772455 8.04605L5.76245 8.04605Z M11.4915 8.04605L11.4915 3.47605L6.5015 3.47605L6.5015 8.04605L11.4915 8.04605Z " /><path id="分组 155" fill-rule="evenodd" style="fill:#FFFFFF" transform="translate(16.15718562874258 0)  rotate(0 7.048652694610809 7.0164670658682855)" opacity="1" d="M13.94 3.60452L14 3.60452L14 2.86452L0.19 2.86452L0.19 3.60452L2.57 3.60452C3.51 6.01452 4.83 8.11452 6.5 9.84452C4.76 11.3945 2.61 12.5245 0 13.3245C0.03 13.3545 0.06 13.4245 0.1 13.4545C0.13 13.5145 0.19 13.5845 0.26 13.6745C0.26 13.7145 0.26 13.7145 0.29 13.7445C0.35 13.8445 0.42 13.9345 0.45 14.0345C3.06 13.1645 5.25 11.9445 7.02 10.3945C8.79 12.0345 10.98 13.2245 13.55 13.9645L13.58 13.9345L13.61 13.9045C13.68 13.8045 13.74 13.7145 13.84 13.5845C13.94 13.4545 14 13.3545 14.1 13.2945C11.55 12.6145 9.37 11.4545 7.6 9.84452C9.24 8.24452 10.52 6.14452 11.49 3.60452L13.94 3.60452Z M3.28293 3.60479C4.15293 5.79479 5.37293 7.72479 7.01293 9.33479C8.56293 7.82479 9.75293 5.89479 10.6229 3.60479L3.28293 3.60479Z M7.46434 1.22C7.21434 0.77 6.95434 0.39 6.69434 0L5.95434 0.23C6.21434 0.61 6.46434 1.03 6.69434 1.48C6.95434 1.93 7.11434 2.32 7.21434 2.64L7.98434 2.38C7.85434 2.06 7.66434 1.67 7.46434 1.22Z " /></g></g></svg>