<svg xmlns="http://www.w3.org/2000/svg" xmlns:xlink="http://www.w3.org/1999/xlink" width="88" height="36" viewBox="0 0 88 36" fill="none"><g opacity="1" transform="translate(-0.000014984678955443087 -0.0000030152099839142465)  rotate(0 43.659844491620866 17.863023952095805)"><g opacity="1" transform="translate(0 0)  rotate(0 43.659844491620866 17.863023952095805)"><path id="路径 593" fill-rule="evenodd" style="fill:#FFFFFF" transform="translate(1.2874251497006526 1.287425149700539)  rotate(0 42.372480094223874 16.57559880239521)" opacity="1" d="M0,0L0,33.15L76.15,33.15C80.91,33.15 84.74,29.29 84.74,24.56L84.74,8.59C84.78,3.86 80.91,0 76.15,0L0,0Z " /><path id="分组 150" fill-rule="evenodd" style="fill:#FF6010" transform="translate(0 0)  rotate(0 43.659844491620866 17.863023952095805)" opacity="1" d="M87.32 25.85L87.32 9.88C87.32 4.44 82.88 0 77.44 0L0 0L0 35.73L77.44 35.73C82.91 35.73 87.35 31.28 87.32 25.85Z M77.4349 33.1549C81.4649 33.1549 84.7449 29.8649 84.7449 25.8449L84.7449 9.88485C84.7449 5.85485 81.4649 2.57485 77.4349 2.57485L2.57485 2.57485L2.57485 33.1549L77.4349 33.1549Z " /></g><g opacity="1" transform="translate(34.08458083832329 13.196107784431206)  rotate(0 9.607410179640688 5.439371257485059)"><path id="路径 605" fill-rule="evenodd" style="fill:#FF6010" transform="translate(0 -1.1368683772161603e-13)  rotate(0 3.2990269461077846 5.439371257485059)" opacity="1" d="M5.5,4.83L0.8,4.83L0.8,0.77L6.6,0.77L6.6,0L0,0L0,10.88L6.6,10.88L6.6,10.11L0.8,10.11L0.8,5.6L5.5,5.6L5.5,4.83Z " /><path id="路径 606" fill-rule="evenodd" style="fill:#FF6010" transform="translate(10.460329341317333 -1.1368683772161603e-13)  rotate(0 4.377245508982007 5.4071856287425)" opacity="1" d="M7.98,0L7.98,9.66L0.87,0L0,0L0,10.81L0.8,10.81L0.8,1.22L7.89,10.81L8.75,10.81L8.75,0L7.98,0Z " /></g></g></svg>