<svg xmlns="http://www.w3.org/2000/svg" xmlns:xlink="http://www.w3.org/1999/xlink" width="37" height="80" viewBox="0 0 37 80" fill="none"><g opacity="1" transform="translate(0.0004885356867490032 0.0019992311043210975)  rotate(0 18.439290559054697 39.73857822440166)"><path id="路径 44" fill-rule="evenodd" style="fill:#009245" transform="translate(4.829141354595748 1.672949116501968)  rotate(0 5.859924806879589 8.654403751418423)" opacity="1" d="M11.44,13.76L4.49,1.24C3.84,0.08 2.39,-0.34 1.24,0.3C0.08,0.95 -0.34,2.39 0.3,3.55L7.25,16.07C7.9,17.23 9.35,17.65 10.51,17.01C11.63,16.36 12.05,14.91 11.44,13.76Z " /><path id="路径 45" fill-rule="evenodd" style="fill:#009245" transform="translate(9.818617387794646 0)  rotate(0 3.14995765833929 9.52254370662887)" opacity="1" d="M4.78,16.91L6.29,2.65C6.42,1.33 5.48,0.14 4.16,0.01C2.84,-0.12 1.65,0.82 1.52,2.14L0.01,16.39C-0.12,17.71 0.82,18.9 2.14,19.03C3.46,19.16 4.65,18.2 4.78,16.91Z " /><path id="路径 46" fill-rule="evenodd" style="fill:#009245" transform="translate(0 6.338568240948007)  rotate(0 8.816628938349496 5.504292102766963)" opacity="1" d="M16.3,6.48L3.43,0.24C2.23,-0.34 0.82,0.17 0.24,1.33C-0.34,2.52 0.17,3.94 1.33,4.52L14.21,10.76C15.37,11.34 16.81,10.86 17.39,9.67C17.97,8.48 17.46,7.06 16.3,6.48Z " /><path id="路径 47" fill-rule="evenodd" style="fill:#FF6010" transform="translate(6.740073684769072 10.96655841983079)  rotate(0 15.06925371667016 34.255299014486255)" opacity="1" d="M8.47,11.09L2.51,14.41L14.26,44.21C14.48,44.76 15.13,44.98 15.64,44.69L18.67,43.02L28.42,67.93C28.81,68.93 30.29,68.54 30.13,67.48L27.36,47.75L24.2,49.49C24.04,49.59 23.85,49.55 23.72,49.39C23.59,49.2 23.62,48.94 23.82,48.85L27.23,46.95L24.11,24.74C24.04,24.29 23.56,24.06 23.17,24.26L18.6,26.8C18.54,26.83 18.44,26.8 18.44,26.7L16.09,13.31L10.53,16.4C10.36,16.5 10.17,16.47 10.04,16.31C9.91,16.11 9.95,15.86 10.14,15.76L15.93,12.54L14.13,2.21C13.84,0.41 11.78,-0.56 10.11,0.34L1.42,5.17C0.23,5.85 -0.32,7.29 0.19,8.58L2.22,13.7L8.08,10.45C8.24,10.35 8.43,10.38 8.56,10.55C8.69,10.74 8.66,11 8.47,11.09Z " /></g></svg>