<svg xmlns="http://www.w3.org/2000/svg" xmlns:xlink="http://www.w3.org/1999/xlink" width="178" height="61" viewBox="0 0 178 61" fill="none"><g opacity="1" transform="translate(-0.000013630859243107807 -0.000003346100157841647)  rotate(0 88.5192081283799 30.467932906530393)"><g opacity="1" transform="translate(45.592308472328654 0)  rotate(0 22.819610778443124 30.03342691850646)"><g opacity="1" transform="translate(4.852290677371002 0)  rotate(0 12.894213942751685 21.08642477045879)"><path id="路径 80" fill-rule="evenodd" style="fill:#009245" transform="translate(3.605255488541161 1.320807188553772)  rotate(0 4.53650473022663 6.524864013728616)" opacity="1" d="M8.83,10.34L3.39,0.91C2.9,0.04 1.78,-0.25 0.91,0.23C0.04,0.72 -0.25,1.84 0.23,2.71L5.67,12.14C6.15,13.01 7.28,13.3 8.15,12.82C9.02,12.33 9.34,11.21 8.83,10.34Z " /><path id="路径 81" fill-rule="evenodd" style="fill:#009245" transform="translate(7.562891413759814 0)  rotate(0 2.2936502441985582 7.234144256174585)" opacity="1" d="M3.61,12.82L4.58,1.97C4.68,0.97 3.94,0.11 2.94,0.01C1.94,-0.09 1.07,0.65 0.97,1.65L0.01,12.5C-0.09,13.49 0.65,14.36 1.65,14.46C2.65,14.56 3.55,13.82 3.61,12.82Z " /><path id="路径 82" fill-rule="evenodd" style="fill:#009245" transform="translate(0 4.92513253833593)  rotate(0 6.734535669934441 4.111406927419484)" opacity="1" d="M12.43,4.77L2.58,0.17C1.68,-0.25 0.59,0.14 0.17,1.04C-0.25,1.94 0.14,3.03 1.04,3.45L10.89,8.05C11.79,8.47 12.88,8.09 13.3,7.19C13.72,6.28 13.33,5.19 12.43,4.77Z " /><path id="路径 83" fill-rule="evenodd" style="fill:#FF6010" transform="translate(5.233606041466487 8.259877501862519)  rotate(0 10.27741092201845 16.956486019527542)" opacity="1" d="M1.05,4.04C0.15,4.56 -0.24,5.68 0.15,6.65L1.76,10.51L6.17,7.97C6.3,7.91 6.46,7.91 6.52,8.03C6.62,8.16 6.59,8.36 6.46,8.45L1.98,11.03C1.98,11.03 11.93,34.1 12.32,33.91L20.55,31.43L18.56,18.66C18.49,18.33 18.14,18.14 17.85,18.3L14.41,20.3C14.34,20.33 14.28,20.3 14.28,20.23L12.35,10.09L8.16,12.51C8.03,12.57 7.87,12.57 7.81,12.44C7.71,12.32 7.74,12.12 7.87,12.03L12.25,9.52L10.77,1.69C10.45,0.28 8.87,-0.43 7.62,0.28L1.05,4.04Z " /></g><path id="路径 84" fill-rule="evenodd" style="fill:#FF6010" transform="translate(1.1368683772161603e-13 14.427632280126687)  rotate(0 22.819610778443117 22.819610778443113)" opacity="1" d="M22.82,0C10.22,0 0,10.22 0,22.82C0,35.42 10.22,45.64 22.82,45.64C35.42,45.64 45.64,35.42 45.64,22.82C45.64,10.22 35.42,0 22.82,0Z " /><g opacity="1" transform="translate(10.748895753365332 23.224934341522484)  rotate(0 14.11147216848447 13.206887891457793)"><path id="路径 85" fill-rule="evenodd" style="fill:#F9E2C5" transform="translate(3.5093377795688525 9.498959463454412)  rotate(0 12.356803278700049 8.457408159730603)" opacity="1" d="M2.7,16.91C5.6,11.89 12.62,11.48 17.67,11.06C20.34,10.83 23.08,10.03 24.27,7.36C26.17,3.11 21.63,-0.47 17.61,0.05C14.52,0.44 11.72,2.4 9.4,4.36C6.95,6.42 4.76,8.8 2.74,11.28C1.8,12.44 0.87,13.63 0,14.89L2.7,16.91Z " /><path id="路径 86" fill-rule="evenodd" style="fill:#F9E2C5" transform="translate(0 0)  rotate(0 6.990226426315905 12.49880405912246)" opacity="1" d="M3.7,24.74C2.61,19.04 7.63,14.15 11.17,10.51C13.07,8.58 14.58,6.2 13.74,3.4C12.39,-1.07 6.63,-0.78 3.93,2.24C1.84,4.56 1.03,7.87 0.55,10.87C0.03,14.02 -0.06,17.27 0.03,20.46C0.07,21.97 0.16,23.48 0.32,25L3.7,24.74Z " /></g><path id="路径 87" fill-rule="evenodd" style="fill:#F9E2C5" transform="translate(6.340568862275518 45.776434675336276)  rotate(0 6.437125748502994 6.437125748502994)" opacity="1" d="M6.44,0C2.88,0 0,2.88 0,6.44C0,9.99 2.88,12.87 6.44,12.87C9.99,12.87 12.87,9.99 12.87,6.44C12.87,2.88 9.99,0 6.44,0Z " /></g><path id="路径 88" fill-rule="evenodd" style="fill:#FF6010" transform="translate(141.5368622167594 11.305626292102744)  rotate(0 17.750777020000225 24.799026946107794)" opacity="1" d="M1.03,41.04C3.48,45.57 12.65,49.6 17.41,49.6C28.81,49.6 35.5,44.54 35.5,38.2C35.5,31.7 27.58,27.65 19.09,25.17C18.64,25.07 18.02,24.88 19.09,24.46C27.46,21.89 35.5,17.93 35.5,11.49C35.5,5.15 28.81,0 17.41,0C12.2,0 6.41,1.29 2.61,5.15C0.9,6.89 -0.03,9.56 0,11.97C0.03,14.13 0.97,16.38 2.8,17.57C4.76,18.86 7.37,18.73 9.62,17.99C11.85,17.25 13.87,15.96 16,14.97C17.16,14.45 18.64,14.07 19.57,14.9C21.53,16.64 18.96,18.83 17.38,19.5C13.9,20.95 9.82,20.89 6.12,21.56C4.54,21.85 3.41,23.24 3.44,24.85C3.48,26.39 4.64,27.71 6.18,27.94C10.3,28.58 18.38,29.87 17.25,33.18C16.48,35.44 12.88,31.28 6.92,31.67C1.06,32.06 -1.22,36.85 1.03,41.04Z " /><path id="路径 89" fill-rule="evenodd" style="fill:#FF6010" transform="translate(96.33158682634735 11.303000901847525)  rotate(0 20.426822050336852 24.816432455606638)" opacity="1" d="M4.01,38.88C4.01,45.83 13.41,49.63 22.26,49.63C26.83,49.63 31.72,48.99 35.68,46.58C38.35,44.93 40.57,42.33 40.83,39.11C41.02,36.79 40.09,34.31 38,33.15C33.78,30.84 29.63,35.44 26.06,36.95C24.96,37.43 23.38,37.85 22.06,37.63C21.45,37.5 20.87,37.24 20.39,36.79C19.39,35.7 19.78,33.89 20.62,32.83C21.74,31.45 23.38,30.74 24.93,29.94C26.63,29.07 28.31,28.17 29.79,26.94C31.53,25.53 33.04,23.85 34.26,22.02C36.48,18.7 37.87,14.68 37.61,10.66C37.38,7.15 35.71,3.8 32.69,1.9C28.69,-0.61 23.55,-0.25 19.17,0.81C-6.61,7.12 -2.33,24.95 8.51,24.95C14.47,24.95 17.33,20.12 21.1,16.39C22.23,15.26 25.09,12.75 26.92,13.3C28.86,13.87 28.34,16.84 27.57,18.22C25.8,21.41 22.35,23.79 19.33,25.65C13.86,29.03 4.01,31.93 4.01,38.88Z " /><path id="路径 90" fill-rule="evenodd" style="fill:#FF6010" transform="translate(0 11.303000901847525)  rotate(0 20.44291486470818 24.816432455606638)" opacity="1" d="M38.03,33.15C33.81,30.84 29.66,35.44 26.09,36.95C24.99,37.43 23.42,37.85 22.1,37.63C21.49,37.5 20.91,37.24 20.39,36.79C19.39,35.7 19.78,33.89 20.62,32.83C21.74,31.45 23.38,30.74 24.93,29.94C26.63,29.07 28.31,28.17 29.79,26.94C31.53,25.53 33.04,23.85 34.26,22.02C36.48,18.7 37.87,14.68 37.61,10.66C37.38,7.15 35.71,3.8 32.69,1.9C28.69,-0.61 23.55,-0.25 19.17,0.81C-6.61,7.12 -2.33,24.95 8.51,24.95C14.5,24.95 17.37,20.12 21.13,16.39C22.26,15.26 25.12,12.75 26.96,13.3C28.89,13.87 28.37,16.84 27.6,18.22C25.83,21.41 22.39,23.79 19.36,25.65C13.89,29.03 4.04,31.93 4.04,38.88C4.04,45.83 13.44,49.63 22.29,49.63C26.86,49.63 31.75,48.99 35.71,46.58C38.38,44.93 40.6,42.33 40.86,39.11C41.05,36.79 40.12,34.31 38.03,33.15Z " /></g></svg>