<svg xmlns="http://www.w3.org/2000/svg" xmlns:xlink="http://www.w3.org/1999/xlink" width="395" height="359" viewBox="0 0 395 359" fill="none"><g opacity="1" transform="translate(0.000016993560620903736 0.0017284259628809195)  rotate(0 197.0176247502034 179.164340207768)"><g opacity="1" transform="translate(37.56869482828563 0)  rotate(0 31.71651398448034 55.87124591564141)"><path id="路径 9" fill-rule="evenodd" style="fill:#009245" transform="translate(41.716648764580356 0.4213760532475135)  rotate(0 6.659997598570532 13.596000592582529)" opacity="1" d="M6.89,24.72L13.16,4.57C13.74,2.7 12.68,0.74 10.84,0.16C8.98,-0.42 7.01,0.64 6.43,2.48L0.16,22.62C-0.42,24.49 0.64,26.45 2.48,27.03C4.31,27.61 6.31,26.55 6.89,24.72Z " /><path id="路径 10" fill-rule="evenodd" style="fill:#009245" transform="translate(39.693019248359036 5.671698632834705)  rotate(0 11.870004360300833 9.959337262343562)" opacity="1" d="M5.66,19.21L22.36,6.3C23.91,5.14 24.2,2.92 23.01,1.38C21.85,-0.17 19.63,-0.46 18.08,0.73L1.38,13.64C-0.17,14.8 -0.46,17.02 0.73,18.56C1.89,20.08 4.11,20.37 5.66,19.21Z " /><path id="路径 11" fill-rule="evenodd" style="fill:#009245" transform="translate(38.10889546582381 0)  rotate(0 6.727331735650451 13.550685029063656)" opacity="1" d="M13.29,22.53L6.86,2.45C6.28,0.61 4.28,-0.42 2.45,0.16C0.61,0.74 -0.42,2.74 0.16,4.57L6.6,24.65C7.18,26.49 9.17,27.52 11.01,26.94C12.84,26.36 13.87,24.37 13.29,22.53Z " /><path id="路径 12" fill-rule="evenodd" style="fill:#FF6010" transform="translate(0 17.06515798051703)  rotate(0 28.217489071890824 47.3386669253829)" opacity="1" d="M20.57,71.16L15.48,69.58C15.23,69.51 15.03,69.26 15.1,69C15.13,68.68 15.48,68.45 15.8,68.55L21.31,70.25L41.81,44.35C42.23,43.83 41.97,43.06 41.36,42.87L33.99,40.58C33.86,40.55 33.83,40.42 33.89,40.32L45.77,24.2L36.79,21.4C36.53,21.33 36.34,21.08 36.4,20.82C36.44,20.5 36.79,20.27 37.11,20.37L46.45,23.26L55.59,10.84C57.32,8.56 56.26,5.37 53.59,4.53L39.59,0.19C37.66,-0.42 35.57,0.51 34.7,2.34L31.29,9.71L40.68,12.64C40.94,12.71 41.13,12.96 41.07,13.22C41.04,13.54 40.68,13.77 40.36,13.67L30.8,10.71L11.01,53.55C10.66,54.32 11.07,55.26 11.88,55.51L16.74,57.03L0.13,92.78C-0.51,94.2 1.39,95.39 2.35,94.17L20.57,71.16Z " /></g><g opacity="1" transform="translate(0 10.093739075452618)  rotate(0 197.0176247502034 174.11747067004168)"><g opacity="1" transform="translate(0 0)  rotate(0 197.0176247502034 168.0193072956678)"><g opacity="1" transform="translate(154.54200680134818 0)  rotate(0 119.7466213495293 168.0193072956678)"><path id="路径 15" fill-rule="evenodd" style="fill:#A8A8FF" transform="translate(75.801933905466 203.7619825947371)  rotate(0 45.713778189352425 52.81884060438284)" opacity="1" d="M88.98,49.78L80.97,27.57C73.18,5.97 49.17,-5.32 27.57,2.46C5.97,10.25 -5.32,34.26 2.46,55.86L10.48,78.07C18.27,99.67 42.28,110.96 63.87,103.17C85.44,95.42 96.74,71.37 88.98,49.78Z " /><path id="路径 16" fill-rule="evenodd" style="fill:#A8A8FF" transform="translate(56.377642094077714 180.30418475820477)  rotate(0 56.977508942443755 52.00867436905911)" opacity="1" d="M37.31,5.1C7.79,17.49 -7.34,48.52 3.51,74.43C14.36,100.34 47.12,111.31 76.64,98.92C106.15,86.53 121.31,55.5 110.43,29.59C99.58,3.68 66.82,-7.29 37.31,5.1Z " /><path id="路径 17" fill-rule="evenodd" style="fill:#A8A8FF" transform="translate(148.3344721146393 184.72624936652653)  rotate(0 21.97298136474448 39.12171056899137)" opacity="1" d="M43.84,20.76C43.84,20.76 45.45,3.54 36.31,0.16C36.31,0.16 27.97,-2.67 21.31,15.42L0,73.25L13.42,78.24C13.42,78.24 39.91,54.81 43.84,20.76Z " /><path id="路径 18" fill-rule="evenodd" style="fill:#A8A8FF" transform="translate(26.537704837032948 246.49204987193184)  rotate(0 39.75242555497086 19.314718970034367)" opacity="1" d="M79.5,24.78L21.92,2.77C3.9,-4.12 0.55,4.02 0.55,4.02C-2.92,13.1 11.11,23.24 11.11,23.24C39.34,42.71 74.39,38.17 74.39,38.17L79.5,24.78Z " /><path id="路径 19" fill-rule="evenodd" style="fill:#A8A8FF" transform="translate(39.1097408989026 243.5057646062047)  rotate(0 6.793967742682917 8.511469424318742)" opacity="1" d="M10.38,16.57C13.09,15.34 14.34,12.13 13.12,9.42L10.35,3.21C9.13,0.47 5.91,-0.75 3.21,0.47C0.5,1.7 -0.75,4.92 0.47,7.62L3.24,13.83C4.46,16.54 7.68,17.76 10.38,16.57Z " /><path id="路径 20" fill-rule="evenodd" style="fill:#A8A8FF" transform="translate(142.3813427710694 277.2180204431421)  rotate(-13.10928464318455 31.009604306144777 6.887447142205525)" opacity="1" d="M0,13.77L62.02,13.77L62.02,0L0,0L0,13.77Z " /><path id="路径 21" fill-rule="evenodd" style="fill:#A8A8FF" transform="translate(185.53994632119844 245.331945953611)  rotate(0 9.817173076361168 20.8241017964072)" opacity="1" d="M6.21 41.65L19.63 38.53L17.61 29.8L15 18.6L10.65 0C3.25 1.74 -1.35 9.14 0.36 16.54L6.21 41.65Z" /><path id="路径 22" fill-rule="evenodd" style="fill:#A8A8FF" transform="translate(79.74621090044207 304.8455517355276)  rotate(-37.39357696155959 31.011528392340978 6.887874495029577)" opacity="1" d="M0,13.78L62.02,13.78L62.02,0L0,0L0,13.78Z " /><path id="路径 23" fill-rule="evenodd" style="fill:#A8A8FF" transform="translate(66.29330444996873 301.7580352298439)  rotate(0 17.47679640718563 17.120413445715837)" opacity="1" d="M18.57 27.13L11.59 17.99L0 2.83C6.05 -1.77 14.68 -0.65 19.31 5.4L34.95 25.87L24.01 34.24L18.57 27.13Z" /><path id="路径 24" fill-rule="evenodd" style="fill:#FFFFFF" transform="translate(108.69183733137811 203.33901882203634)  rotate(0 10.78821861559648 12.832747490856214)" opacity="1" d="M6.33,0.51C0.92,2.47 -1.49,9.55 0.96,16.37C3.43,23.2 9.81,27.12 15.25,25.16C20.65,23.2 23.07,16.12 20.62,9.29C18.17,2.47 11.77,-1.46 6.33,0.51Z " /><path id="路径 25" fill-rule="evenodd" style="fill:#000000" transform="translate(111.12547477925199 206.2438278737427)  rotate(0 8.354581167722703 9.93707430292082)" opacity="1" d="M4.93,0.4C0.71,1.91 -1.16,7.42 0.74,12.7C2.64,17.94 7.57,21 11.78,19.49C16,17.97 17.87,12.47 15.97,7.19C14.07,1.91 9.11,-1.14 4.93,0.4Z " /><path id="路径 26" fill-rule="evenodd" style="fill:#FFFFFF" transform="translate(109.99065410418018 209.0929404464281)  rotate(0 3.406318010459155 3.3999446929527903)" opacity="1" d="M2.26,0.19C0.49,0.83 -0.44,2.77 0.2,4.54C0.85,6.31 2.78,7.24 4.55,6.6C6.32,5.95 7.25,4.02 6.61,2.25C6,0.48 4.03,-0.42 2.26,0.19Z " /><path id="分组 4" fill-rule="evenodd" style="fill:#FF79B5" transform="translate(92.09067811181461 227.66440799442)  rotate(0 23.479701680889114 14.530622116639346)" opacity="1" d="M34.84 4.63C33.52 9.85 29.72 14.03 24.7 15.83C19.65 17.64 14.08 16.83 9.74 13.68C7 11.68 3.17 12.29 1.17 15.03C-0.82 17.76 -0.21 21.59 2.53 23.59C10.15 29.16 20 30.57 28.89 27.39C37.77 24.2 44.43 16.8 46.78 7.66C47.59 4.34 45.59 1.03 42.31 0.19C39.02 -0.65 35.68 1.35 34.84 4.63Z M18.6506 20.8204C14.6306 20.7204 10.6706 19.4104 7.32055 16.9604C6.39055 16.2804 5.07055 16.4804 4.39055 17.4104C3.72055 18.3404 3.91055 19.6604 4.84055 20.3404C9.35055 23.6204 14.7606 25.2004 20.1606 24.9704C22.3506 24.8804 24.5406 24.5204 26.7006 23.8104C26.9506 23.7204 27.2106 23.6904 27.4706 23.5904C27.7306 23.4904 27.9506 23.3604 28.2106 23.2704C30.3006 22.4304 32.2306 21.3404 33.9706 19.9804C38.2806 16.7004 41.4406 12.0704 42.8206 6.66036C43.1105 5.53036 42.4406 4.37036 41.2806 4.12036C40.1506 3.83036 39.0206 4.50036 38.7306 5.63036C37.7006 9.65036 35.4806 13.1904 32.4606 15.8304C30.7806 17.2804 28.8506 18.4404 26.7606 19.3104C26.5006 19.4104 26.2806 19.5304 26.0206 19.6304C25.7606 19.7304 25.5106 19.7604 25.2506 19.8604C23.0906 20.5604 20.8706 20.8904 18.6506 20.8204Z " /><path id="路径 29" fill-rule="evenodd" style="fill:#002B49" transform="translate(97.42112029959412 233.0167662820461)  rotate(0 18.112394485820055 9.183038937578935)" opacity="1" d="M35.63,0.02C35.21,-0.08 34.79,0.18 34.69,0.6C32.95,7.52 27.9,13.12 21.17,15.53C14.48,17.95 7.01,16.89 1.25,12.67C0.9,12.41 0.41,12.48 0.16,12.83C-0.1,13.18 -0.04,13.67 0.32,13.92C4.31,16.85 9.07,18.37 13.9,18.37C16.54,18.37 19.18,17.92 21.69,16.95C28.9,14.38 34.31,8.39 36.2,0.95C36.3,0.54 36.04,0.12 35.63,0.02Z " /><path id="路径 30" fill-rule="evenodd" style="fill:#FFFFFF" transform="translate(110.80602900086689 247.52056870810213)  rotate(0 4.296781437125756 3.846182634730553)" opacity="1" d="M0,0.97L1.51,5.12L2.45,7.69L8.59,5.47L8.05,3.96L6.6,0C4.44,0.68 2.19,1.03 0,0.97Z " /><path id="路径 31" fill-rule="evenodd" style="fill:#FFFFFF" transform="translate(118.88462181523812 243.49736511528772)  rotate(0 4.055389221556894 4.47380239520961)" opacity="1" d="M5.7,0C4.02,1.45 2.09,2.64 0,3.48L1.42,7.43L1.96,8.95L8.11,6.73L7.21,4.15L5.7,0Z " /><path id="路径 32" fill-rule="evenodd" style="fill:#A0A0F9" transform="translate(163.37186812500119 213.87018268740553)  rotate(0 3.6752619963132758 18.83679480675548)" opacity="1" d="M0.93,37.42C7.49,25.54 9.1,12.34 5.4,0.34C5.3,0.08 5.05,-0.05 4.79,0.02C4.53,0.11 4.4,0.37 4.47,0.63C8.07,12.38 6.53,25.28 0.06,36.97C-0.07,37.19 0.03,37.48 0.25,37.61C0.32,37.64 0.41,37.67 0.48,37.67C0.67,37.67 0.83,37.58 0.93,37.42Z " /><path id="路径 33" fill-rule="evenodd" style="fill:#A0A0F9" transform="translate(59.20792361847555 253.95315194846523)  rotate(0 13.216743106942278 12.570759278021999)" opacity="1" d="M26.4,24.85C26.49,24.63 26.4,24.34 26.14,24.24C14.55,19.41 5.6,10.92 0.94,0.29C0.81,0.04 0.55,-0.06 0.29,0.04C0.04,0.17 -0.06,0.42 0.04,0.68C4.8,11.53 13.91,20.22 25.72,25.11C25.79,25.14 25.85,25.14 25.91,25.14C26.11,25.14 26.27,25.04 26.4,24.85Z " /><path id="路径 34" fill-rule="evenodd" style="fill:#A8A8FF" transform="translate(0 0)  rotate(0 51.943059410613074 110.22622746782349)" opacity="1" d="M103.89,203.04C69.83,168.92 81.68,111.73 89.24,70.21C93.26,48.13 92.62,24.54 73.89,9.19C43.92,-15.34 5.3,13.37 0.73,46.84C-2.78,72.56 6.91,99.14 17.6,122.06C28.86,146.2 43.15,168.92 58.63,190.55C65.97,200.75 73.57,210.86 81.68,220.45L103.89,203.04Z " /><path id="路径 35" fill-rule="evenodd" style="fill:#A8A8FF" transform="translate(96.00063977931 17.220815514735136)  rotate(0 68.81541783836909 92.99007120746194)" opacity="1" d="M26.78,185.98C26.78,139.92 73.42,109.25 106.57,86.3C124.2,74.1 139.72,57.69 137.4,34.68C133.7,-2.14 88.25,-8.81 62.54,10.73C42.77,25.76 31.41,50.29 23.14,72.98C14.45,96.89 8.75,121.9 4.63,146.97C2.67,158.85 1,170.79 0,182.76L26.78,185.98Z " /><path id="路径 36" fill-rule="evenodd" style="fill:#009245" transform="translate(147.3187826463664 158.0265858266556)  rotate(0 11.888804602330605 8.064342162883715)" opacity="1" d="M22.07,9.96L4.88,0.4C3.3,-0.46 1.27,0.11 0.4,1.69C-0.46,3.27 0.11,5.3 1.69,6.17L18.88,15.72C20.46,16.59 22.48,16.01 23.35,14.44C24.25,12.86 23.67,10.86 22.07,9.96Z " /><path id="路径 37" fill-rule="evenodd" style="fill:#009245" transform="translate(153.7439980640612 151.38443597488902)  rotate(0 7.561282433811682 12.115548900877632)" opacity="1" d="M14.8,19.53L6.21,1.83C5.44,0.22 3.44,-0.45 1.83,0.32C0.22,1.09 -0.45,3.09 0.32,4.7L8.91,22.4C9.69,24.01 11.68,24.68 13.29,23.91C14.9,23.14 15.58,21.14 14.8,19.53Z " /><path id="路径 38" fill-rule="evenodd" style="fill:#009245" transform="translate(145.03796280101648 164.91867017292236)  rotate(0 13.06744334129978 4.310356619012175)" opacity="1" d="M22.51,0.01L2.94,2.07C1.14,2.27 -0.15,3.88 0.01,5.68C0.21,7.48 1.82,8.77 3.62,8.61L23.19,6.55C24.99,6.35 26.31,4.74 26.12,2.94C25.92,1.14 24.31,-0.15 22.51,0.01Z " /><path id="路径 39" fill-rule="evenodd" style="fill:#FF6010" transform="translate(160.0167811490271 160.82697335850628)  rotate(0 39.73823077501576 33.85231643773023)" opacity="1" d="M18.44,20L22.89,12.02L13.29,1.31C11.49,-0.69 8.37,-0.34 7.11,1.95L0.48,13.89C-0.45,15.53 0,17.62 1.55,18.75L7.63,23.26L12.07,15.24C12.2,15.02 12.46,14.92 12.68,14.98C12.97,15.08 13.1,15.43 12.94,15.69L8.4,23.87L43.74,50.07C44.39,50.55 45.32,50.36 45.7,49.65L48.02,45.5L77.5,67.45C78.66,68.32 80.11,66.8 79.18,65.68L61.64,44.66L59.22,49C59.09,49.23 58.84,49.33 58.61,49.26C58.32,49.17 58.19,48.81 58.35,48.55L60.96,43.85L41.23,20.23C40.84,19.75 40.1,19.84 39.78,20.36L36.27,26.67C36.21,26.76 36.08,26.76 36.02,26.7L23.56,12.8L19.31,20.46C19.18,20.68 18.93,20.78 18.7,20.71C18.41,20.62 18.28,20.26 18.44,20Z " /><path id="路径 40" fill-rule="evenodd" style="fill:#A8A8FF" transform="translate(168.43894649645847 187.67594129351403)  rotate(0 5.662113925336967 8.8143130433306)" opacity="1" d="M10.83,5.03C10.6,2.07 8.03,-0.18 5.03,0.01C2.07,0.24 -0.18,2.81 0.01,5.8L0.49,12.6C0.69,15.56 3.29,17.81 6.29,17.62C9.28,17.39 11.53,14.78 11.31,11.82L10.83,5.03Z " /><path id="路径 41" fill-rule="evenodd" style="fill:#FFFFFF" transform="translate(86.4837534990429 211.35324037892258)  rotate(0 10.788218615596444 12.832747490856214)" opacity="1" d="M6.33,0.51C0.92,2.47 -1.49,9.55 0.96,16.37C3.43,23.2 9.81,27.12 15.25,25.16C20.65,23.2 23.07,16.12 20.62,9.29C18.17,2.47 11.77,-1.46 6.33,0.51Z " /><path id="路径 42" fill-rule="evenodd" style="fill:#000000" transform="translate(88.91739094691673 214.23977770308693)  rotate(0 8.354581167722666 9.930117352320668)" opacity="1" d="M4.93,0.39C0.71,1.9 -1.16,7.4 0.74,12.68C2.64,17.93 7.57,20.99 11.78,19.47C16,17.96 17.87,12.46 15.97,7.18C14.07,1.93 9.14,-1.13 4.93,0.39Z " /><path id="路径 43" fill-rule="evenodd" style="fill:#FFFFFF" transform="translate(87.91131278681496 217.04279074582928)  rotate(0 3.4063180104591733 3.399944692952754)" opacity="1" d="M2.26,0.19C0.49,0.83 -0.44,2.77 0.2,4.54C0.85,6.31 2.78,7.24 4.55,6.6C6.32,5.95 7.25,4.02 6.61,2.25C6,0.48 4.03,-0.42 2.26,0.19Z " /></g><g opacity="1" transform="translate(0 113.16548298236324)  rotate(0 113.86878200022824 80.09297444799216)"><path id="路径 48" fill-rule="evenodd" style="fill:#FFFFFF" transform="translate(102.51465909767205 0)  rotate(0 62.6114524513922 48.57424944969578)" opacity="1" d="M68.59,61.49C83.82,60.3 100.62,57.62 112.78,48.58C128.65,36.83 131.29,9.47 109.15,1.52C94.12,-3.88 80.15,6.26 67.92,13.72C50.54,24.34 33.9,36.22 18.13,49.1C3.19,61.29 -6.33,79.19 4.96,97.15L25.53,68.99C36.73,58.36 52.57,62.74 68.59,61.49Z " /><path id="路径 49" fill-rule="evenodd" style="fill:#FF79B5" transform="translate(128.50216227617284 13.72915529509919)  rotate(0 41.65809422672491 28.86760593388269)" opacity="1" d="M46.31,39.42C56.29,38.71 67.29,37.04 75.24,31.28C85.61,23.75 87.25,6.17 72.7,0.99C63.85,-2.16 54.84,2.83 47.47,7.27C38.78,12.51 29.96,17.54 21.52,23.23C16.76,26.45 12.09,29.83 7.59,33.44C-2.16,41.22 -0.75,49.98 2.15,57.74L18.43,46.6C25.74,39.81 35.78,40.16 46.31,39.42Z " /><path id="路径 50" fill-rule="evenodd" style="fill:#FFFFFF" transform="translate(9.705594045349063 30.446905982053522)  rotate(0 71.50346734904606 26.59146813275322)" opacity="1" d="M142.8,48.48C145.05,27.4 128.61,15.53 109.81,11.15C89.98,6.51 69.8,3.2 49.53,1.33C35.24,0.01 18.21,-2.92 7.11,8.54C-9.25,25.47 5.17,48.84 24.58,52.41C39.48,55.15 55.74,50.16 69.93,44.53C84.87,38.6 97.16,27.69 111.9,32.3L142.8,48.48Z " /><path id="路径 51" fill-rule="evenodd" style="fill:#FF79B5" transform="translate(27.26488212917699 40.310899169046934)  rotate(0 46.51126246526151 17.334180836749887)" opacity="1" d="M93.02,25.78C92.22,17.54 89.64,9.04 77.44,6.34C71.84,5.08 66.15,4.12 60.45,3.31C50.41,1.93 40.27,1.32 30.16,0.42C21.57,-0.32 11.27,-0.84 4.74,5.89C-6.01,16.96 3.19,32.02 15.81,34.21C25.5,35.92 36.12,32.57 45.39,28.8C55.14,24.85 63.99,20.11 73.55,22.98L93.02,25.78Z " /><path id="路径 52" fill-rule="evenodd" style="fill:#FFFFFF" transform="translate(97.39451237658793 105.57222098274679)  rotate(0 17.2121312100582 16.809810850776667)" opacity="1" d="M33.9,21.09C36.19,12.21 30.78,3.07 21.9,0.78L20.83,0.52C11.95,-1.76 2.81,3.65 0.52,12.53C-1.76,21.41 3.65,30.55 12.53,32.84L13.59,33.1C22.47,35.38 31.62,29.97 33.9,21.09Z " /><path id="路径 53" fill-rule="evenodd" style="fill:#FFFFFF" transform="translate(85.43778348032771 112.13173995289435)  rotate(-88.72740517278862 3.9429235087362193 17.799483268009123)" opacity="1" d="M0,35.6L7.89,35.6L7.89,0L0,0L0,35.6Z " /><path id="路径 54" fill-rule="evenodd" style="fill:#FFFFFF" transform="translate(71.46180825730482 110.79520548621804)  rotate(0 4.120751323110407 11.40980538922157)" opacity="1" d="M0.13 17.32L0.29 10.72L0.51 0C4.89 0.1 8.34 3.7 8.24 8.08L7.89 22.82L0 22.66L0.13 17.32Z" /><path id="路径 55" fill-rule="evenodd" style="fill:#FFFFFF" transform="translate(134.85620456667033 116.02662875355372)  rotate(-88.78413721670815 3.942838714680056 17.799100483412726)" opacity="1" d="M0,35.6L7.89,35.6L7.89,0L0,0L0,35.6Z " /><path id="路径 56" fill-rule="evenodd" style="fill:#FFFFFF" transform="translate(148.6107603531132 115.46013996574538)  rotate(0 4.184131736526946 11.330332161433798)" opacity="1" d="M7.89 22.66L0 22.5L0.29 7.73C0.39 3.35 3.99 -0.09 8.37 0L8.14 10.72L8.01 17.32L7.89 22.66Z" /><path id="路径 57" fill-rule="evenodd" style="fill:#FFFFFF" transform="translate(83.95272418491982 57.30209834693733)  rotate(0 38.61986251549877 33.956430492573915)" opacity="1" d="M46.99,1.42C26.16,-3.93 5.53,6.31 0.93,24.27C-3.7,42.26 9.43,61.15 30.25,66.5C51.08,71.84 71.71,61.6 76.31,43.64C80.94,25.68 67.81,6.79 46.99,1.42Z " /><path id="路径 58" fill-rule="evenodd" style="fill:#FFFFFF" transform="translate(83.95272418491982 57.30209834693733)  rotate(0 38.61986251549877 33.956430492573915)" opacity="1" d="M46.99,1.42C26.16,-3.93 5.53,6.31 0.93,24.27C-3.7,42.26 9.43,61.15 30.25,66.5C51.08,71.84 71.71,61.6 76.31,43.64C80.94,25.68 67.81,6.79 46.99,1.42Z " /><path id="路径 59" fill-rule="evenodd" style="fill:#000000" transform="translate(108.21085743990048 72.58392532749622)  rotate(0 4.094513691655836 6.379693332374377)" opacity="1" d="M6.51,10.27L8.09,4.13C8.54,2.39 7.47,0.55 5.7,0.1C3.97,-0.35 2.13,0.72 1.68,2.49L0.1,8.63C-0.35,10.37 0.72,12.21 2.49,12.66C4.26,13.11 6.09,12.04 6.51,10.27Z " /><path id="路径 60" fill-rule="evenodd" style="fill:#000000" transform="translate(132.02822270936156 78.699194788574)  rotate(0 4.094513691655827 6.379693332374377)" opacity="1" d="M6.51,10.27L8.09,4.13C8.54,2.39 7.47,0.55 5.7,0.1C3.97,-0.35 2.13,0.72 1.68,2.49L0.1,8.63C-0.35,10.37 0.72,12.21 2.49,12.66C4.26,13.11 6.09,12.04 6.51,10.27Z " /><path id="路径 61" fill-rule="evenodd" style="fill:#000000" transform="translate(136.60552083215512 79.70388812094825)  rotate(0 3.395583832335333 2.273676462026767)" opacity="1" d="M2.8,4.44C4.83,4.06 6.24,2.67 6.79,0.55L4.67,0C3.89,2.99 0.9,2.35 0.55,2.25L0,4.38C0.16,4.41 1.38,4.7 2.8,4.44Z " /><path id="路径 62" fill-rule="evenodd" style="fill:#000000" transform="translate(112.78815556269404 73.58861865987046)  rotate(0 3.395583832335333 2.273676462026804)" opacity="1" d="M2.8,4.44C4.83,4.06 6.24,2.67 6.79,0.55L4.67,0C3.89,2.99 0.9,2.35 0.55,2.25L0,4.38C0.13,4.41 1.38,4.7 2.8,4.44Z " /><path id="路径 63" fill-rule="evenodd" style="fill:#FF79B5" transform="translate(117.1311899490644 93.12529530657707)  rotate(0 4.555279214000444 4.650823353293427)" opacity="1" d="M5.73,6.4C5.18,7.56 4.09,7.76 3.32,7.56C2.51,7.37 1.61,6.66 1.64,5.38C1.71,2.74 2.13,0.32 2.13,0.29L0.52,0C0.52,0.1 0.07,2.57 0,5.34C-0.06,7.5 1.42,8.82 2.93,9.17C3.25,9.27 3.54,9.3 3.86,9.3C5.31,9.3 6.6,8.5 7.21,7.11C7.95,5.57 8.6,3.89 9.11,2.09L7.53,1.64C7.02,3.35 6.44,4.96 5.73,6.4Z " /><path id="路径 64" fill-rule="evenodd" style="fill:#FF79B5" transform="translate(119.78807938102847 86.85216273255242)  rotate(0 3.370137311976901 2.169464909354085)" opacity="1" d="M1.3,3.44L4.55,4.28C5.49,4.54 6.45,3.96 6.68,3.02C6.94,2.09 6.36,1.12 5.42,0.9L2.17,0.06C1.24,-0.2 0.27,0.38 0.05,1.32C-0.18,2.25 0.4,3.22 1.3,3.44Z " /><path id="路径 65" fill-rule="evenodd" style="fill:#FF79B5" transform="translate(121.77379791435433 90.35733123472073)  rotate(0 5.066310560696782 3.5243263473054034)" opacity="1" d="M8.52,3.19C7.82,5.92 5.21,5.38 4.92,5.31C3.37,4.89 2.34,4.09 1.89,2.83C1.64,2.12 1.6,1.29 1.83,0.42L0.22,0C-0.1,1.19 -0.07,2.38 0.32,3.41C0.77,4.63 1.83,6.24 4.47,6.92C4.82,6.98 5.24,7.05 5.69,7.05C7.3,7.05 9.39,6.34 10.13,3.6L8.52,3.19Z " /><path id="路径 66" fill-rule="evenodd" style="fill:#FF79B5" transform="translate(112.99304223387648 89.13427734250536)  rotate(0 5.304742293151291 2.9288922155688693)" opacity="1" d="M8.87,4.57C9.71,3.86 10.29,2.83 10.61,1.64L9,1.22C8.77,2.09 8.36,2.8 7.78,3.32C6.78,4.18 5.49,4.41 3.95,4.02C3.66,3.96 1.08,3.19 1.79,0.42L0.18,0C-0.72,3.54 1.95,5.21 3.5,5.63C4.17,5.79 4.75,5.86 5.3,5.86C6.94,5.86 8.1,5.21 8.87,4.57Z " /><path id="路径 67" fill-rule="evenodd" style="fill:#FFFFFF" transform="translate(2.3039819229337084 65.37976263027122)  rotate(0 5.562638531566209 9.75300585911111)" opacity="1" d="M11,18.86C11.29,18.32 11.06,17.64 10.52,17.35C1.63,12.78 2.28,1.32 2.28,1.19C2.31,0.58 1.83,0.03 1.21,0C0.6,-0.03 0.06,0.45 0.02,1.06C-0.01,1.61 -0.75,14.13 9.49,19.38C9.65,19.47 9.84,19.51 10,19.51C10.42,19.51 10.81,19.28 11,18.86Z " /><path id="路径 68" fill-rule="evenodd" style="fill:#FFFFFF" transform="translate(0 82.84836728879327)  rotate(0 10.553025589322129 6.4419819729637915)" opacity="1" d="M20.19,12.59C20.8,12.47 21.19,11.89 21.09,11.27C20.96,10.66 20.38,10.28 19.77,10.37C8.06,12.47 2.39,1.14 2.13,0.62C1.84,0.07 1.17,-0.15 0.62,0.11C0.07,0.4 -0.15,1.07 0.11,1.62C0.17,1.75 1.75,5 5,7.99C8.51,11.21 12.59,12.88 16.97,12.88C18.03,12.88 19.1,12.79 20.19,12.59Z " /><path id="路径 69" fill-rule="evenodd" style="fill:#FFFFFF" transform="translate(198.9038399428269 52.40722301653204)  rotate(0 13.139891559746461 7.4847846480165)" opacity="1" d="M3.78,14.97C5.61,14.97 8.16,14.81 10.96,14.13C18.13,12.36 23.38,8.02 26.18,1.58C26.44,1 26.18,0.36 25.6,0.1C25.02,-0.16 24.38,0.1 24.12,0.68C21.61,6.5 17.01,10.3 10.51,11.91C5.58,13.13 1.3,12.59 1.27,12.59C0.66,12.49 0.11,12.94 0.01,13.55C-0.08,14.16 0.37,14.71 0.98,14.81C1.04,14.84 2.11,14.97 3.78,14.97Z " /><g opacity="1" transform="translate(69.42745899432776 135.19425760890817)  rotate(0 39.648605562258595 12.49584564353812)"><path id="路径 70" fill-rule="evenodd" style="fill:#009245" transform="translate(0 6.170640530500123)  rotate(0 9.27611573004292 2.7746187240548714)" opacity="1" d="M16.39,0.91L2.48,0.01C1.2,-0.09 0.1,0.88 0.01,2.16C-0.09,3.45 0.88,4.54 2.16,4.64L16.07,5.54C17.35,5.64 18.45,4.67 18.55,3.39C18.64,2.1 17.68,1 16.39,0.91Z " /><path id="路径 71" fill-rule="evenodd" style="fill:#009245" transform="translate(2.0688804275831956 0)  rotate(0 7.754390991082478 6.6761724282081)" opacity="1" d="M14.64,9.23L3.76,0.51C2.8,-0.29 1.32,-0.13 0.51,0.87C-0.29,1.83 -0.13,3.31 0.87,4.12L11.75,12.84C12.71,13.64 14.19,13.48 15,12.49C15.8,11.49 15.64,10.01 14.64,9.23Z " /><path id="路径 72" fill-rule="evenodd" style="fill:#009245" transform="translate(1.2400666964989 5.3508269874782854)  rotate(0 8.27744124911288 5.943983165280544)" opacity="1" d="M13.02,0.34L1.12,7.59C0.02,8.26 -0.33,9.68 0.34,10.77C1.02,11.87 2.44,12.22 3.53,11.54L15.44,4.3C16.53,3.63 16.89,2.21 16.21,1.12C15.54,0.02 14.12,-0.33 13.02,0.34Z " /><path id="路径 73" fill-rule="evenodd" style="fill:#FF6010" transform="translate(12.680935419344024 1.878091161061775)  rotate(0 33.30813785258658 11.556800063007163)" opacity="1" d="M0.65,2.53L0.01,12.18C-0.09,13.54 0.84,14.73 2.16,14.98L7.41,16.01L7.83,9.51C7.83,9.35 7.96,9.19 8.15,9.16C8.38,9.13 8.57,9.32 8.54,9.55L8.12,16.14L38.69,22.23C39.24,22.32 39.79,21.94 39.82,21.36L40.05,17.98L65.57,23.1C66.57,23.29 67.05,21.87 66.12,21.45L48.51,13.31L48.29,16.82C48.29,16.98 48.16,17.14 47.96,17.17C47.74,17.21 47.55,17.01 47.58,16.79L47.83,12.99L28.04,3.85C27.65,3.66 27.2,3.95 27.17,4.36L26.85,9.45C26.85,9.51 26.75,9.58 26.69,9.55L14.49,4.43L14.07,10.61C14.07,10.77 13.94,10.93 13.75,10.96C13.52,10.99 13.33,10.8 13.36,10.58L13.78,4.14L4.38,0.18C2.68,-0.46 0.78,0.69 0.65,2.53Z " /></g><path id="路径 74" fill-rule="evenodd" style="fill:#FFFFFF" transform="translate(86.33156873634675 110.21586416885248)  rotate(0 7.450973053892217 15.557511581876437)" opacity="1" d="M0,23.43C0,23.43 0.06,30.16 3.73,31.09C3.73,31.09 7.08,31.86 8.95,24.59L14.9,1.35L9.49,0C9.49,0 0.16,10.11 0,23.43Z " /><path id="路径 75" fill-rule="evenodd" style="fill:#FFFFFF" transform="translate(124.99171152111109 119.38876836046938)  rotate(0 6.389176388106107 15.773065740399243)" opacity="1" d="M6.53,0L0.57,23.24C-1.29,30.51 1.99,31.45 1.99,31.45C5.66,32.38 8.94,26.52 8.94,26.52C15.22,14.74 11.9,1.38 11.9,1.38L6.53,0Z " /></g></g><g opacity="1" transform="translate(110.98388468272628 300.2368831287352)  rotate(0 25.722395567938346 23.999029105674094)"><path id="路径 76" fill-rule="evenodd" style="fill:#009245" transform="translate(37.47476763537935 2.201188322801954)  rotate(0 5.398365520037586 6.267377496085542)" opacity="1" d="M3.34,11.84L10.39,3.05C11.03,2.24 10.9,1.05 10.1,0.41C9.29,-0.23 8.1,-0.11 7.46,0.7L0.41,9.49C-0.23,10.29 -0.11,11.48 0.7,12.13C1.5,12.77 2.69,12.64 3.34,11.84Z " /><path id="路径 77" fill-rule="evenodd" style="fill:#009245" transform="translate(36.844139845615786 6.430590473158645)  rotate(0 7.300325645130476 3.454143010399821)" opacity="1" d="M2.39,6.83L13.24,3.68C14.24,3.39 14.82,2.36 14.53,1.36C14.24,0.36 13.21,-0.22 12.21,0.07L1.36,3.23C0.36,3.52 -0.22,4.55 0.07,5.55C0.36,6.54 1.43,7.12 2.39,6.83Z " /><path id="路径 78" fill-rule="evenodd" style="fill:#009245" transform="translate(38.94551645745736 0)  rotate(0 2.2553517374656904 7.519089770983735)" opacity="1" d="M3.77,13.26L4.51,2C4.57,0.97 3.8,0.07 2.74,0C1.71,-0.06 0.81,0.71 0.74,1.77L0,13.04C-0.03,14.07 0.74,14.97 1.77,15.03C2.8,15.1 3.7,14.33 3.77,13.26Z " /><path id="路径 79" fill-rule="evenodd" style="fill:#FF6010" transform="translate(0 7.90285107635782)  rotate(0 22.404119429198857 20.047603567495155)" opacity="1" d="M31.9,3.59L36.02,6.87C36.11,6.97 36.18,7.13 36.11,7.26C36.02,7.42 35.82,7.45 35.7,7.36L31.51,4.01L13.29,21.45C12.97,21.78 12.97,22.32 13.36,22.61L15.48,24.32L0.23,38.87C-0.38,39.45 0.36,40.41 1.06,39.99L14.65,32.11L12.43,30.34C12.33,30.24 12.26,30.08 12.33,29.95C12.43,29.79 12.62,29.76 12.75,29.85L15.16,31.79L30.42,22.9C30.71,22.71 30.74,22.29 30.48,22.07L27.26,19.49C27.2,19.46 27.23,19.36 27.26,19.33L36.31,13.63L32.38,10.48C32.28,10.38 32.22,10.22 32.28,10.09C32.38,9.93 32.57,9.9 32.7,10L36.79,13.28L43.77,8.87C45.06,8.06 45.16,6.29 44,5.36L37.88,0.47C37.05,-0.21 35.82,-0.14 35.02,0.6L31.9,3.59Z " /></g></g></g></svg>