<svg xmlns="http://www.w3.org/2000/svg" xmlns:xlink="http://www.w3.org/1999/xlink" width="39" height="67" viewBox="0 0 39 67" fill="none"><g opacity="1" transform="translate(0.000009524410529593297 -0.000002476267297879531)  rotate(0 19.312245536368597 33.28771403026116)"><path id="路径 4" fill-rule="evenodd" style="fill:#009245" transform="translate(25.511774449032146 0.3831895785110646)  rotate(0 4.043301534252844 8.098690755809681)" opacity="1" d="M4.09,14.75L7.99,2.74C8.34,1.65 7.73,0.45 6.63,0.1C5.54,-0.25 4.35,0.36 4,1.45L0.1,13.46C-0.25,14.55 0.36,15.74 1.45,16.1C2.58,16.45 3.77,15.84 4.09,14.75Z " /><path id="路径 5" fill-rule="evenodd" style="fill:#009245" transform="translate(24.31575071419229 3.532225723910642)  rotate(0 7.154370179272445 5.908326609894576)" opacity="1" d="M3.39,11.4L13.46,3.81C14.4,3.1 14.59,1.78 13.88,0.85C13.17,-0.09 11.85,-0.28 10.92,0.43L0.85,8.02C-0.09,8.73 -0.28,10.05 0.43,10.98C1.14,11.92 2.46,12.08 3.39,11.4Z " /><path id="路径 6" fill-rule="evenodd" style="fill:#009245" transform="translate(23.48711780465294 0)  rotate(0 3.959799495997272 8.143931232524217)" opacity="1" d="M7.82,13.55L4.12,1.48C3.77,0.39 2.61,-0.26 1.48,0.1C0.39,0.45 -0.26,1.61 0.1,2.74L3.8,14.81C4.15,15.9 5.34,16.54 6.44,16.19C7.53,15.84 8.18,14.68 7.82,13.55Z " /><path id="路径 7" fill-rule="evenodd" style="fill:#FF6010" transform="translate(0 10.209029109922994)  rotate(0 17.16851642405565 28.183199475299677)" opacity="1" d="M27.87,14.51L22.52,12.77C22.36,12.71 22.27,12.58 22.3,12.42C22.33,12.23 22.52,12.1 22.72,12.16L28.28,13.96L33.85,6.59C34.85,5.27 34.24,3.34 32.66,2.83L24.32,0.12C23.17,-0.26 21.91,0.28 21.4,1.38L19.3,5.76L24.9,7.59C25.07,7.65 25.16,7.78 25.13,7.94C25.1,8.14 24.9,8.27 24.71,8.2L19.01,6.37L6.88,31.86C6.66,32.31 6.91,32.89 7.4,33.05L10.29,33.98L0.09,55.23C-0.33,56.06 0.83,56.8 1.41,56.06L12.48,42.42L9.46,41.42C9.29,41.35 9.2,41.22 9.23,41.06C9.26,40.87 9.46,40.74 9.65,40.81L12.93,41.87L25.39,26.55C25.64,26.23 25.48,25.78 25.13,25.65L20.72,24.23C20.66,24.2 20.62,24.13 20.66,24.07L27.87,14.51Z " /></g></svg>