<svg xmlns="http://www.w3.org/2000/svg" xmlns:xlink="http://www.w3.org/1999/xlink" width="277" height="28" viewBox="0 0 277 28" fill="none"><g opacity="1" transform="translate(-0.00000877151943257104 0.000003197949723698912)  rotate(0 138.28555389221543 13.759356287425156)"><path id="路径 372" fill-rule="evenodd" style="fill:#FF6010" transform="translate(37.30314371257491 0.6758982035927943)  rotate(0 2.671407185628728 3.604790419161673)" opacity="1" d="M1.96,1.29L1.96,7.21L3.41,7.21L3.41,1.29L5.34,1.29L5.34,0L0,0L0,1.29L1.93,1.29L1.96,1.29Z " /><path id="路径 373" fill-rule="evenodd" style="fill:#FF6010" transform="translate(44.41616766467054 0.6758982035928511)  rotate(0 2.687500000000044 3.6208832335329157)" opacity="1" d="M3.96,4.28L3.93,4.28L3.93,7.24L5.38,7.24L5.38,4.25C5.38,3.41 5.18,2.8 4.76,2.38C4.35,1.96 3.8,1.74 3.12,1.74C2.8,1.74 2.51,1.8 2.22,1.9C1.93,2 1.67,2.16 1.45,2.35L1.45,0L0,0L0,7.21L1.45,7.21L1.45,3.93C1.61,3.7 1.83,3.48 2.06,3.32C2.32,3.15 2.57,3.06 2.86,3.06C3.22,3.06 3.48,3.15 3.67,3.38C3.86,3.57 3.96,3.89 3.96,4.28Z " /><path id="分组 84" fill-rule="evenodd" style="fill:#FF6010" transform="translate(51.754491017964284 2.381736526946156)  rotate(0 2.864520958083715 2.8323353293413023)" opacity="1" d="M0 2.83C0 3.25 0.06 3.64 0.19 3.99C0.32 4.35 0.51 4.63 0.74 4.89C0.97 5.15 1.26 5.34 1.58 5.47C1.9 5.6 2.22 5.66 2.61 5.66C2.93 5.66 3.25 5.6 3.54 5.5C3.83 5.41 4.12 5.21 4.38 4.99L4.38 5.47L5.73 5.47L5.73 0.16L4.38 0.16L4.38 0.64C4.12 0.39 3.83 0.23 3.54 0.13C3.25 0.06 2.93 0 2.61 0C2.22 0 1.9 0.06 1.58 0.19C1.26 0.32 0.97 0.51 0.74 0.77C0.51 1.03 0.32 1.32 0.19 1.67C0.06 2.03 0 2.41 0 2.83Z M1.44835 2.8018C1.44835 3.0618 1.47835 3.2518 1.57835 3.4418C1.63835 3.6418 1.76835 3.7618 1.89835 3.8918C2.02835 4.0218 2.18835 4.1218 2.34835 4.1818C2.50835 4.2518 2.70835 4.2818 2.86835 4.2818C3.08835 4.2818 3.34835 4.2118 3.60835 4.1218C3.85835 3.9918 4.08835 3.8018 4.27835 3.4718L4.27835 2.1518C4.08835 1.8318 3.85835 1.6418 3.60835 1.5118C3.31835 1.4118 3.08835 1.3518 2.86835 1.3518C2.66835 1.3518 2.50835 1.3818 2.34835 1.4518C2.18835 1.5118 2.02835 1.6118 1.89835 1.7018C1.76835 1.8318 1.67835 1.9918 1.57835 2.1518C1.47835 2.3518 1.44835 2.5418 1.44835 2.8018Z " /><path id="路径 376" fill-rule="evenodd" style="fill:#FF6010" transform="translate(59.76871257485027 2.413922155688624)  rotate(0 2.7035928143712136 2.751871257485015)" opacity="1" d="M2.06,1.58C2.32,1.42 2.57,1.32 2.86,1.32C3.22,1.32 3.48,1.42 3.67,1.64C3.86,1.83 3.96,2.16 3.96,2.54L3.96,5.5L5.41,5.5L5.41,2.51C5.41,1.67 5.21,1.06 4.8,0.64C4.38,0.23 3.83,0 3.15,0C2.8,0 2.45,0.06 2.16,0.19C1.83,0.32 1.54,0.51 1.32,0.74L1.32,0.16L0,0.16L0,5.47L1.45,5.47L1.45,2.19C1.61,1.96 1.83,1.74 2.06,1.58Z " /><g opacity="1" transform="translate(67.36452095808374 0.6758982035927943)  rotate(0 2.832335329341376 3.604790419161673)"><path id="路径 377" fill-rule="evenodd" style="fill:#FF6010" transform="translate(0 0)  rotate(0 0.7241766467065869 3.604790419161673)" opacity="1" d="M0,7.21L1.45,7.21L1.45,0L0,0L0,7.21Z " /><path id="路径 378" fill-rule="evenodd" style="fill:#FF6010" transform="translate(1.641467065868369 1.8667664670659292)  rotate(0 2.0116017964071857 2.6714071856287274)" opacity="1" d="M2.16,5.34L4.02,5.34L1.64,2.67L3.73,0L2,0L0,2.67L2.16,5.34Z " /></g><path id="路径 379" fill-rule="evenodd" style="fill:#FF6010" transform="translate(77.37425149700616 2.5426646706587235)  rotate(0 3.089820359281335 3.958832335329326)" opacity="1" d="M3.64,5.83L6.18,0L4.51,0L3.19,3.48L1.67,0L0,0L2.48,5.18L2.35,5.5C2.25,5.79 2.09,6.05 1.9,6.24C1.71,6.44 1.48,6.53 1.16,6.53C1.06,6.53 0.97,6.53 0.87,6.47C0.77,6.44 0.68,6.4 0.55,6.37L0.16,7.72C0.58,7.85 0.9,7.92 1.22,7.92C1.51,7.92 1.77,7.89 2,7.79C2.22,7.69 2.45,7.56 2.64,7.37C2.83,7.21 3.03,6.98 3.19,6.73C3.35,6.44 3.51,6.15 3.64,5.83Z " /><path id="分组 86" fill-rule="evenodd" style="fill:#FF6010" transform="translate(84.77694610778448 2.413922155688624)  rotate(0 2.784056886227501 2.8162425149700594)" opacity="1" d="M5.57 2.8C5.57 2.38 5.5 2 5.34 1.64C5.21 1.29 4.99 1 4.73 0.74C4.47 0.51 4.18 0.32 3.83 0.19C3.51 0.06 3.15 0 2.8 0C2.45 0 2.09 0.06 1.77 0.19C1.42 0.32 1.13 0.51 0.87 0.74C0.58 1 0.39 1.29 0.23 1.64C0.06 2 0 2.38 0 2.8C0 3.22 0.06 3.6 0.23 3.96C0.39 4.31 0.61 4.63 0.87 4.86C1.13 5.12 1.45 5.31 1.77 5.44C2.09 5.57 2.45 5.63 2.8 5.63C3.15 5.63 3.51 5.57 3.83 5.44C4.18 5.31 4.47 5.12 4.73 4.86C4.99 4.6 5.18 4.31 5.34 3.96C5.5 3.6 5.57 3.22 5.57 2.8Z M4.02617 3.37961C4.08617 3.18961 4.11617 2.98961 4.11617 2.79961C4.11617 2.60961 4.08617 2.40961 4.02617 2.21961C3.95617 2.02961 3.86617 1.89961 3.73617 1.76961C3.60617 1.63961 3.47617 1.54961 3.31617 1.44961C3.15617 1.37961 2.99617 1.31961 2.76617 1.31961C2.57617 1.31961 2.38617 1.34961 2.21617 1.44961C2.05617 1.50961 1.92617 1.60961 1.80617 1.76961C1.67617 1.89961 1.57617 2.05961 1.51617 2.21961C1.44617 2.40961 1.41617 2.60961 1.41617 2.79961C1.41617 2.98961 1.44617 3.18961 1.51617 3.37961C1.57617 3.53961 1.67617 3.69961 1.80617 3.82961C1.92617 3.95961 2.05617 4.08961 2.21617 4.14961C2.38617 4.21961 2.57617 4.27961 2.76617 4.27961C2.95617 4.27961 3.15617 4.24961 3.31617 4.14961C3.47617 4.08961 3.63617 3.95961 3.73617 3.82961C3.86617 3.69961 3.95617 3.53961 4.02617 3.37961Z " /><path id="路径 382" fill-rule="evenodd" style="fill:#FF6010" transform="translate(92.27619760479038 2.510479041916142)  rotate(0 2.6875000000001172 2.751871257485015)" opacity="1" d="M1.54,3.41C1.48,3.25 1.45,3.09 1.45,2.86L1.45,0.03L0,0.03L0,2.99C0,3.83 0.19,4.44 0.61,4.86C1.03,5.28 1.58,5.5 2.25,5.5C2.57,5.5 2.86,5.44 3.15,5.34C3.44,5.25 3.7,5.12 3.93,4.92L3.93,5.31L5.38,5.31L5.38,0L3.93,0L3.93,3.25C3.8,3.51 3.6,3.73 3.35,3.86C3.09,4.02 2.83,4.09 2.57,4.09C2.45,4.09 2.29,4.09 2.16,4.02C2.03,3.99 1.9,3.89 1.8,3.8C1.71,3.7 1.61,3.57 1.54,3.41Z " /><path id="路径 383" fill-rule="evenodd" style="fill:#FF6010" transform="translate(102.99401197604791 0.1609281437126242)  rotate(0 2.092065868263473 3.846182634730535)" opacity="1" d="M0.84,2.41L0,2.41L0,3.64L0.84,3.64L0.84,7.69L2.29,7.69L2.29,3.6L3.44,3.6L3.44,2.38L2.29,2.38L2.29,2.12C2.29,1.96 2.32,1.83 2.38,1.74C2.41,1.64 2.48,1.54 2.57,1.48C2.64,1.45 2.74,1.38 2.83,1.35C2.93,1.32 3.03,1.32 3.12,1.32C3.38,1.32 3.67,1.35 3.96,1.45L4.18,0.19C3.96,0.1 3.77,0.06 3.54,0.03C3.32,0 3.12,0 2.93,0C2.64,0 2.38,0.03 2.12,0.13C1.87,0.23 1.64,0.35 1.45,0.55C1.26,0.74 1.09,0.97 1,1.22C0.9,1.51 0.84,1.8 0.84,2.16L0.84,2.41Z " /><path id="分组 87" fill-rule="evenodd" style="fill:#FF6010" transform="translate(108.33682634730536 2.413922155688624)  rotate(0 2.784056886227501 2.8162425149700594)" opacity="1" d="M5.34 3.96C5.5 3.6 5.57 3.22 5.57 2.8C5.57 2.38 5.5 2 5.34 1.64C5.21 1.29 4.99 1 4.73 0.74C4.47 0.51 4.18 0.32 3.83 0.19C3.51 0.06 3.15 0 2.8 0C2.45 0 2.12 0.06 1.77 0.19C1.42 0.32 1.13 0.51 0.87 0.74C0.58 1 0.39 1.29 0.23 1.64C0.06 2 0 2.38 0 2.8C0 3.22 0.1 3.6 0.23 3.96C0.39 4.31 0.61 4.63 0.87 4.86C1.13 5.12 1.45 5.31 1.77 5.44C2.09 5.57 2.45 5.63 2.8 5.63C3.15 5.63 3.51 5.57 3.83 5.44C4.18 5.31 4.47 5.12 4.73 4.86C4.99 4.6 5.18 4.31 5.34 3.96Z M3.76835 3.82961C3.89835 3.69961 3.98835 3.53961 4.05835 3.37961C4.11835 3.18961 4.14835 2.98961 4.14835 2.79961C4.14835 2.60961 4.11835 2.40961 4.05835 2.21961C3.98835 2.02961 3.89835 1.89961 3.76835 1.76961C3.63835 1.63961 3.50835 1.54961 3.34835 1.44961C3.18835 1.37961 3.02835 1.31961 2.79835 1.31961C2.60835 1.31961 2.41835 1.34961 2.24835 1.44961C2.08835 1.50961 1.95835 1.60961 1.83835 1.76961C1.70835 1.89961 1.60835 2.05961 1.54835 2.21961C1.47835 2.40961 1.44835 2.60961 1.44835 2.79961C1.44835 2.98961 1.47835 3.18961 1.54835 3.37961C1.60835 3.53961 1.70835 3.69961 1.83835 3.82961C1.95835 3.95961 2.08835 4.08961 2.24835 4.14961C2.41835 4.21961 2.60835 4.27961 2.79835 4.27961C2.98835 4.27961 3.18835 4.24961 3.34835 4.14961C3.50835 4.08961 3.66835 3.95961 3.76835 3.82961Z " /><path id="路径 386" fill-rule="evenodd" style="fill:#FF6010" transform="translate(115.9326347305389 2.446107784431149)  rotate(0 1.6736526946106467 2.719685628742511)" opacity="1" d="M1.32,0.13L0,0.13L0.06,0.13L0.06,5.44L1.51,5.44L1.51,2.67C1.54,2.51 1.64,2.35 1.74,2.19C1.83,2.03 1.96,1.9 2.12,1.8C2.29,1.71 2.45,1.61 2.64,1.54C2.83,1.48 3.03,1.45 3.22,1.45L3.35,1.45L3.35,0C3.32,0 3.32,0 3.28,0C3.25,0 3.22,0 3.22,0C3.19,0 3.19,0 3.15,0C3.12,0 3.09,0 3.09,0C2.96,0 2.8,0.03 2.64,0.06C2.48,0.1 2.32,0.16 2.16,0.23C2,0.29 1.83,0.39 1.71,0.51C1.54,0.64 1.42,0.77 1.32,0.97L1.32,0.13Z " /><path id="分组 88" fill-rule="evenodd" style="fill:#FF6010" transform="translate(124.62275449101779 2.446107784431149)  rotate(0 2.8806137724550314 3.9749251497005873)" opacity="1" d="M1.35 0.13L0 0.13L0 7.95L1.45 7.95L1.45 5.09C1.71 5.31 1.96 5.44 2.25 5.54C2.54 5.63 2.83 5.66 3.15 5.66C3.51 5.66 3.86 5.6 4.18 5.47C4.51 5.34 4.8 5.15 5.02 4.89C5.25 4.63 5.44 4.35 5.57 3.99C5.7 3.64 5.76 3.25 5.76 2.83C5.76 2.38 5.7 2 5.57 1.67C5.44 1.32 5.25 1.03 5.02 0.77C4.76 0.51 4.51 0.32 4.18 0.19C3.86 0.06 3.54 0 3.15 0C2.83 0 2.51 0.03 2.22 0.13C1.9 0.23 1.61 0.42 1.35 0.64L1.35 0.13Z M2.12835 4.08961C2.37835 4.17961 2.63835 4.24961 2.86835 4.24961C3.05835 4.24961 3.21835 4.21961 3.40835 4.14961C3.56835 4.08961 3.73835 3.98961 3.85835 3.85961C3.98835 3.72961 4.08835 3.60961 4.18835 3.40961C4.24835 3.21961 4.30835 3.02961 4.30835 2.76961C4.30835 2.50961 4.27835 2.31961 4.18835 2.11961C4.08835 1.92961 3.98835 1.76961 3.85835 1.66961C3.73835 1.54961 3.56835 1.47961 3.40835 1.41961C3.24835 1.34961 3.05835 1.31961 2.86835 1.31961C2.63835 1.31961 2.37835 1.37961 2.12835 1.47961C1.86835 1.60961 1.63835 1.82961 1.44835 2.11961L1.44835 3.43961C1.63835 3.76961 1.86835 3.95961 2.12835 4.08961Z " /><path id="分组 89" fill-rule="evenodd" style="fill:#FF6010" transform="translate(131.96107784431155 2.381736526946156)  rotate(0 2.864520958083715 2.8323353293413023)" opacity="1" d="M4.38 0.16L4.38 0.64C4.12 0.39 3.83 0.23 3.54 0.13C3.25 0.06 2.93 0 2.61 0C2.22 0 1.9 0.06 1.58 0.19C1.26 0.32 0.97 0.51 0.74 0.77C0.51 1.03 0.32 1.32 0.19 1.67C0.06 2.03 0 2.41 0 2.83C0 3.25 0.06 3.64 0.19 3.99C0.32 4.35 0.51 4.63 0.74 4.89C0.97 5.15 1.26 5.34 1.58 5.47C1.9 5.6 2.22 5.66 2.61 5.66C2.93 5.66 3.25 5.6 3.54 5.5C3.83 5.41 4.12 5.21 4.38 4.99L4.38 5.47L5.73 5.47L5.73 0.16L4.38 0.16Z M3.60835 1.5118C3.31835 1.4118 3.08835 1.3518 2.86835 1.3518C2.66835 1.3518 2.50835 1.3818 2.34835 1.4518C2.18835 1.5118 2.02835 1.6118 1.89835 1.7018C1.76835 1.8318 1.67835 1.9918 1.57835 2.1518C1.47835 2.3518 1.44835 2.5418 1.44835 2.8018C1.44835 3.0618 1.47835 3.2518 1.57835 3.4418C1.63835 3.6418 1.76835 3.7618 1.89835 3.8918C2.02835 4.0218 2.18835 4.1218 2.34835 4.1818C2.50835 4.2518 2.70835 4.2818 2.86835 4.2818C3.08835 4.2818 3.34835 4.2118 3.60835 4.1218C3.85835 3.9918 4.08835 3.8018 4.27835 3.4718L4.27835 2.1518C4.08835 1.8318 3.85835 1.6418 3.60835 1.5118Z " /><path id="路径 391" fill-rule="evenodd" style="fill:#FF6010" transform="translate(140.00748502994014 2.446107784431149)  rotate(0 1.6736526946106467 2.719685628742511)" opacity="1" d="M2.64,0.06C2.48,0.1 2.32,0.16 2.16,0.23C2,0.29 1.83,0.39 1.71,0.51C1.54,0.64 1.42,0.77 1.32,0.97L1.32,0.13L0,0.13L0.06,0.13L0.06,5.44L1.51,5.44L1.51,2.67C1.54,2.51 1.64,2.35 1.74,2.19C1.83,2.03 1.96,1.9 2.12,1.8C2.29,1.71 2.45,1.61 2.64,1.54C2.83,1.48 3.03,1.45 3.22,1.45L3.35,1.45L3.35,0C3.32,0 3.32,0 3.28,0C3.25,0 3.25,0 3.22,0C3.19,0 3.19,0 3.15,0C3.12,0 3.09,0 3.09,0C2.96,0 2.8,0.03 2.64,0.06Z " /><path id="路径 392" fill-rule="evenodd" style="fill:#FF6010" transform="translate(144.57784431137705 0.9977544910179859)  rotate(0 1.9794161676647 3.5082335329341245)" opacity="1" d="M2.25,0L0.8,0L0.8,1.58L0,1.58L0,2.8L0.8,2.8L0.8,4.76C0.8,5.15 0.87,5.47 0.97,5.76C1.06,6.05 1.19,6.28 1.38,6.47C1.54,6.66 1.77,6.79 2,6.89C2.22,6.98 2.48,7.02 2.74,7.02C2.93,7.02 3.12,6.98 3.35,6.95C3.54,6.92 3.77,6.82 3.96,6.73L3.6,5.57C3.41,5.66 3.22,5.73 3.03,5.73C2.77,5.73 2.57,5.63 2.45,5.44C2.32,5.25 2.25,4.99 2.25,4.67L2.25,2.8L3.8,2.8L3.8,1.58L2.25,1.58L2.25,0Z " /><g opacity="1" transform="translate(150.14595808383237 0)  rotate(0 0.869011976047992 3.9427395209580833)"><path id="路径 393" fill-rule="evenodd" style="fill:#FF6010" transform="translate(0 0)  rotate(0 0.869011976047992 0.8690119760478822)" opacity="1" d="M0.26,1.48C0.42,1.64 0.64,1.74 0.87,1.74C1.13,1.74 1.32,1.64 1.48,1.48C1.64,1.32 1.74,1.09 1.74,0.87C1.74,0.61 1.64,0.42 1.48,0.26C1.32,0.1 1.09,0 0.87,0C0.64,0 0.42,0.1 0.26,0.26C0.1,0.42 0,0.64 0,0.87C0,1.09 0.06,1.29 0.26,1.48Z " /><path id="路径 394" fill-rule="evenodd" style="fill:#FF6010" transform="translate(0.12874251496998568 2.5748502994011915)  rotate(0 0.7241766467065869 2.655314371257485)" opacity="1" d="M0,5.31L1.45,5.31L1.45,0L0,0L0,5.31Z " /></g><path id="路径 395" fill-rule="evenodd" style="fill:#FF6010" transform="translate(153.68637724550902 2.381736526946156)  rotate(0 2.590943113772514 2.8162425149700594)" opacity="1" d="M0.87,4.86C1.13,5.12 1.45,5.31 1.77,5.44C2.09,5.57 2.45,5.63 2.8,5.63C3.28,5.63 3.73,5.54 4.18,5.37C4.57,5.18 4.89,4.92 5.18,4.57L4.31,3.67C4.12,3.86 3.89,4.02 3.7,4.15C3.51,4.25 3.25,4.31 2.93,4.31C2.74,4.31 2.54,4.25 2.35,4.18C2.19,4.12 2.03,3.99 1.9,3.86C1.77,3.73 1.67,3.57 1.61,3.41C1.54,3.22 1.51,3.03 1.51,2.83C1.51,2.64 1.54,2.45 1.61,2.25C1.67,2.09 1.77,1.93 1.9,1.8C2.03,1.64 2.16,1.54 2.32,1.48C2.48,1.38 2.64,1.35 2.83,1.35C3.09,1.35 3.32,1.38 3.54,1.48C3.77,1.58 3.99,1.71 4.22,1.9L4.89,0.77C4.54,0.48 4.22,0.26 3.89,0.16C3.54,0.06 3.19,0 2.8,0C2.45,0 2.09,0.06 1.77,0.19C1.42,0.32 1.13,0.51 0.87,0.74C0.58,1 0.39,1.29 0.23,1.64C0.06,2 0,2.38 0,2.8C0,3.22 0.06,3.6 0.23,3.96C0.39,4.31 0.61,4.63 0.87,4.86Z " /><g opacity="1" transform="translate(160.41317365269464 0)  rotate(0 0.869011976047992 3.9427395209580833)"><path id="路径 396" fill-rule="evenodd" style="fill:#FF6010" transform="translate(0 0)  rotate(0 0.869011976047992 0.8690119760478822)" opacity="1" d="M0.26,1.48C0.42,1.64 0.64,1.74 0.87,1.74C1.13,1.74 1.32,1.64 1.48,1.48C1.64,1.32 1.74,1.09 1.74,0.87C1.74,0.61 1.64,0.42 1.48,0.26C1.32,0.1 1.09,0 0.87,0C0.64,0 0.42,0.1 0.26,0.26C0.1,0.42 0,0.64 0,0.87C0,1.09 0.1,1.32 0.26,1.48Z " /><path id="路径 397" fill-rule="evenodd" style="fill:#FF6010" transform="translate(0.16092814371256736 2.5748502994011915)  rotate(0 0.7241766467065869 2.655314371257485)" opacity="1" d="M0,5.31L1.45,5.31L1.45,0L0,0L0,5.31Z " /></g><path id="分组 92" fill-rule="evenodd" style="fill:#FF6010" transform="translate(164.2754491017963 2.446107784431149)  rotate(0 2.8806137724550314 3.9749251497005873)" opacity="1" d="M5.02 4.89C5.25 4.63 5.44 4.35 5.57 3.99C5.7 3.64 5.76 3.25 5.76 2.83C5.76 2.38 5.7 2 5.57 1.67C5.44 1.32 5.25 1.03 5.02 0.77C4.76 0.51 4.51 0.32 4.18 0.19C3.86 0.06 3.54 0 3.15 0C2.83 0 2.51 0.03 2.22 0.13C1.9 0.23 1.61 0.42 1.35 0.64L1.35 0.13L0 0.13L0 7.95L1.45 7.95L1.45 5.09C1.71 5.31 1.96 5.44 2.25 5.54C2.54 5.63 2.83 5.66 3.15 5.66C3.51 5.66 3.86 5.6 4.18 5.47C4.51 5.34 4.8 5.15 5.02 4.89Z M3.40835 1.41961C3.24835 1.34961 3.05835 1.31961 2.86835 1.31961C2.63835 1.31961 2.37835 1.37961 2.12835 1.47961C1.86835 1.60961 1.63835 1.82961 1.44835 2.11961L1.44835 3.43961C1.63835 3.76961 1.86835 3.95961 2.12835 4.08961C2.37835 4.17961 2.63835 4.24961 2.86835 4.24961C3.05835 4.24961 3.21835 4.21961 3.40835 4.14961C3.56835 4.08961 3.73835 3.98961 3.85835 3.85961C3.98835 3.72961 4.08835 3.60961 4.18835 3.40961C4.24835 3.21961 4.30835 3.02961 4.30835 2.76961C4.30835 2.50961 4.27835 2.31961 4.18835 2.11961C4.08835 1.92961 3.98835 1.76961 3.85835 1.66961C3.73835 1.54961 3.56835 1.47961 3.40835 1.41961Z " /><path id="分组 93" fill-rule="evenodd" style="fill:#FF6010" transform="translate(171.61377245508993 2.381736526946156)  rotate(0 2.864520958083715 2.8323353293413023)" opacity="1" d="M4.38 5.47L5.73 5.47L5.73 0.16L4.38 0.16L4.38 0.64C4.12 0.39 3.83 0.23 3.54 0.13C3.25 0.06 2.93 0 2.61 0C2.22 0 1.9 0.06 1.58 0.19C1.26 0.32 0.97 0.51 0.74 0.77C0.51 1.03 0.32 1.32 0.19 1.67C0.06 2.03 0 2.41 0 2.83C0 3.25 0.06 3.64 0.19 3.99C0.32 4.35 0.51 4.63 0.74 4.89C0.97 5.15 1.26 5.34 1.58 5.47C1.9 5.6 2.22 5.66 2.61 5.66C2.93 5.66 3.25 5.6 3.54 5.5C3.83 5.41 4.12 5.21 4.38 4.99L4.38 5.47Z M3.60835 1.5118C3.31835 1.4118 3.08835 1.3518 2.86835 1.3518C2.66835 1.3518 2.50835 1.3818 2.34835 1.4518C2.18835 1.5118 2.02835 1.6118 1.89835 1.7018C1.76835 1.8318 1.67835 1.9918 1.57835 2.1518C1.47835 2.3518 1.44835 2.5418 1.44835 2.8018C1.44835 3.0618 1.47835 3.2518 1.57835 3.4418C1.63835 3.6418 1.76835 3.7618 1.89835 3.8918C2.02835 4.0218 2.18835 4.1218 2.34835 4.1818C2.50835 4.2518 2.70835 4.2818 2.86835 4.2818C3.08835 4.2818 3.34835 4.2118 3.60835 4.1218C3.85835 3.9918 4.08835 3.8018 4.27835 3.4718L4.27835 2.1518C4.08835 1.8318 3.85835 1.6418 3.60835 1.5118Z " /><path id="路径 402" fill-rule="evenodd" style="fill:#FF6010" transform="translate(178.91991017964062 0.9977544910179859)  rotate(0 1.9794161676647 3.5082335329341245)" opacity="1" d="M0.8,4.76C0.8,5.15 0.87,5.47 0.97,5.76C1.06,6.05 1.19,6.28 1.38,6.47C1.54,6.66 1.77,6.79 2,6.89C2.22,6.98 2.48,7.02 2.74,7.02C2.93,7.02 3.12,6.98 3.35,6.95C3.54,6.92 3.77,6.82 3.96,6.73L3.6,5.57C3.41,5.66 3.22,5.73 3.03,5.73C2.77,5.73 2.57,5.63 2.45,5.44C2.32,5.25 2.25,4.99 2.25,4.67L2.25,2.8L3.8,2.8L3.8,1.58L2.25,1.58L2.25,0L0.8,0L0.8,1.58L0,1.58L0,2.8L0.8,2.8L0.8,4.76Z " /><g opacity="1" transform="translate(184.4558383233533 0)  rotate(0 0.869011976047992 3.9427395209580833)"><path id="路径 403" fill-rule="evenodd" style="fill:#FF6010" transform="translate(0 0)  rotate(0 0.869011976047992 0.8690119760478822)" opacity="1" d="M0.26,1.48C0.42,1.64 0.64,1.74 0.87,1.74C1.13,1.74 1.32,1.64 1.48,1.48C1.64,1.32 1.74,1.09 1.74,0.87C1.74,0.61 1.64,0.42 1.48,0.26C1.32,0.1 1.09,0 0.87,0C0.64,0 0.42,0.1 0.26,0.26C0.1,0.42 0,0.64 0,0.87C0,1.09 0.1,1.29 0.26,1.48Z " /><path id="路径 404" fill-rule="evenodd" style="fill:#FF6010" transform="translate(0.16092814371256736 2.5748502994011915)  rotate(0 0.7241766467065869 2.655314371257485)" opacity="1" d="M0,5.31L1.45,5.31L1.45,0L0,0L0,5.31Z " /></g><path id="路径 405" fill-rule="evenodd" style="fill:#FF6010" transform="translate(188.28592814371245 2.413922155688624)  rotate(0 2.7035928143712136 2.751871257485015)" opacity="1" d="M5.41,2.51C5.41,1.67 5.21,1.06 4.8,0.64C4.38,0.23 3.83,0 3.15,0C2.8,0 2.45,0.06 2.16,0.19C1.83,0.32 1.54,0.51 1.32,0.74L1.32,0.16L0,0.16L0,5.47L1.45,5.47L1.45,2.19C1.61,1.96 1.83,1.74 2.06,1.58C2.32,1.42 2.57,1.32 2.86,1.32C3.22,1.32 3.48,1.42 3.67,1.64C3.86,1.83 3.96,2.16 3.96,2.54L3.96,5.5L5.41,5.5L5.41,2.51Z " /><path id="分组 95" fill-rule="evenodd" style="fill:#FF6010" transform="translate(195.5920658682636 2.381736526946156)  rotate(0 2.864520958083715 4.087574850299397)" opacity="1" d="M4.31 5.02L4.31 5.5C4.31 5.63 4.28 5.79 4.22 5.95C4.15 6.08 4.09 6.24 3.96 6.37C3.83 6.5 3.7 6.63 3.51 6.69C3.32 6.79 3.12 6.82 2.9 6.82C2.54 6.82 2.19 6.76 1.87 6.66C1.51 6.57 1.22 6.4 0.97 6.21L0.32 7.43C0.64 7.63 1 7.79 1.42 7.95C1.83 8.11 2.29 8.18 2.8 8.18C3.15 8.18 3.51 8.11 3.86 8.01C4.22 7.92 4.51 7.76 4.8 7.53C5.09 7.31 5.31 7.02 5.47 6.63C5.63 6.28 5.73 5.83 5.73 5.28L5.73 0.13L4.38 0.13L4.38 0.64C4.12 0.42 3.83 0.23 3.54 0.13C3.25 0.06 2.93 0 2.61 0C2.22 0 1.9 0.06 1.58 0.19C1.26 0.32 0.97 0.51 0.74 0.77C0.51 1.03 0.32 1.32 0.19 1.67C0.06 2.03 0 2.41 0 2.83C0 3.25 0.06 3.64 0.19 3.99C0.32 4.31 0.51 4.63 0.74 4.86C0.97 5.12 1.26 5.31 1.58 5.44C1.9 5.57 2.22 5.63 2.61 5.63C2.93 5.63 3.22 5.6 3.48 5.47C3.77 5.38 4.06 5.25 4.31 5.02Z M2.34835 1.4518C2.18835 1.5118 2.02835 1.6118 1.89835 1.7418C1.76835 1.8618 1.67835 2.0318 1.57835 2.1918C1.47835 2.3818 1.44835 2.5718 1.44835 2.8318C1.44835 3.0918 1.47835 3.2818 1.57835 3.4718C1.63835 3.6718 1.76835 3.8318 1.89835 3.9218C2.02835 4.0518 2.15835 4.1518 2.34835 4.1818C2.50835 4.2518 2.70835 4.2818 2.86835 4.2818C3.08835 4.2818 3.34835 4.2118 3.60835 4.1218C3.85835 3.9918 4.08835 3.8018 4.27835 3.4718L4.27835 2.1518C4.08835 1.8318 3.85835 1.6418 3.60835 1.5118C3.34835 1.4118 3.11835 1.3518 2.86835 1.3518C2.66835 1.3518 2.50835 1.3818 2.34835 1.4518Z " /><g opacity="1" transform="translate(207.01796407185623 0)  rotate(0 0.869011976047992 3.9427395209580833)"><path id="路径 408" fill-rule="evenodd" style="fill:#FF6010" transform="translate(0 0)  rotate(0 0.869011976047992 0.8690119760478822)" opacity="1" d="M0.26,1.48C0.42,1.64 0.64,1.74 0.87,1.74C1.13,1.74 1.32,1.64 1.48,1.48C1.64,1.32 1.74,1.09 1.74,0.87C1.74,0.61 1.64,0.42 1.48,0.26C1.32,0.1 1.09,0 0.87,0C0.64,0 0.42,0.1 0.26,0.26C0.1,0.42 0,0.64 0,0.87C0,1.09 0.06,1.29 0.26,1.48Z " /><path id="路径 409" fill-rule="evenodd" style="fill:#FF6010" transform="translate(0.12874251497009936 2.5748502994011915)  rotate(0 0.7241766467065869 2.655314371257485)" opacity="1" d="M0,5.31L1.45,5.31L1.45,0L0,0L0,5.31Z " /></g><path id="路径 410" fill-rule="evenodd" style="fill:#FF6010" transform="translate(210.8158682634729 2.413922155688624)  rotate(0 2.7035928143712136 2.751871257485015)" opacity="1" d="M5.41,5.5L5.41,2.51C5.41,1.67 5.21,1.06 4.8,0.64C4.38,0.23 3.83,0 3.15,0C2.8,0 2.45,0.06 2.16,0.19C1.83,0.32 1.54,0.51 1.32,0.74L1.32,0.16L0,0.16L0,5.47L1.45,5.47L1.45,2.19C1.61,1.96 1.83,1.74 2.06,1.58C2.32,1.42 2.57,1.32 2.86,1.32C3.22,1.32 3.48,1.42 3.67,1.64C3.86,1.83 3.96,2.16 3.96,2.54L3.96,5.5L5.41,5.5Z " /><path id="路径 411" fill-rule="evenodd" style="fill:#FF6010" transform="translate(221.43712574850287 0.9977544910179859)  rotate(0 1.9794161676647 3.5082335329341245)" opacity="1" d="M2.25,1.58L2.25,0L0.8,0L0.8,1.58L0,1.58L0,2.8L0.8,2.8L0.8,4.76C0.8,5.15 0.87,5.47 0.97,5.76C1.06,6.05 1.19,6.28 1.38,6.47C1.54,6.66 1.77,6.79 2,6.89C2.22,6.98 2.48,7.02 2.74,7.02C2.96,7.02 3.15,6.98 3.35,6.95C3.54,6.92 3.77,6.82 3.96,6.73L3.6,5.57C3.41,5.66 3.22,5.73 3.03,5.73C2.77,5.73 2.57,5.63 2.45,5.44C2.32,5.25 2.25,4.99 2.25,4.67L2.25,2.8L3.8,2.8L3.8,1.58L2.25,1.58Z " /><path id="路径 412" fill-rule="evenodd" style="fill:#FF6010" transform="translate(227.16616766467058 0.6758982035928511)  rotate(0 2.687500000000044 3.6208832335329157)" opacity="1" d="M3.93,4.28L3.93,7.24L5.38,7.24L5.38,4.25C5.38,3.41 5.18,2.8 4.76,2.38C4.35,1.96 3.8,1.74 3.12,1.74C2.8,1.74 2.51,1.8 2.22,1.9C1.93,2 1.67,2.16 1.45,2.35L1.45,0L0,0L0,7.21L1.45,7.21L1.45,3.93C1.61,3.7 1.83,3.48 2.06,3.32C2.32,3.15 2.57,3.06 2.86,3.06C3.22,3.06 3.48,3.15 3.67,3.38C3.86,3.57 3.96,3.89 3.96,4.28L3.93,4.28Z " /><path id="分组 97" fill-rule="evenodd" style="fill:#FF6010" transform="translate(234.47230538922173 2.446107784431092)  rotate(0 2.6613491766466186 2.800149700598817)" opacity="1" d="M2.86 4.28C2.51 4.28 2.22 4.18 2 4.06C1.74 3.86 1.58 3.6 1.51 3.22L5.31 3.22C5.34 2.7 5.31 2.25 5.21 1.87C5.09 1.48 4.92 1.16 4.7 0.87C4.47 0.58 4.18 0.35 3.86 0.23C3.51 0.06 3.15 0 2.74 0C2.38 0 2.03 0.06 1.71 0.19C1.38 0.32 1.09 0.51 0.84 0.77C0.58 1.03 0.35 1.32 0.23 1.67C0.06 2.03 0 2.41 0 2.83C0 3.28 0.1 3.67 0.23 4.02C0.35 4.38 0.55 4.67 0.8 4.89C1.03 5.12 1.35 5.28 1.67 5.41C2.03 5.54 2.38 5.6 2.77 5.6C3.22 5.6 3.64 5.54 4.02 5.38C4.44 5.21 4.76 5.02 5.02 4.8L4.41 3.73C4.22 3.86 4.02 3.99 3.8 4.12C3.57 4.22 3.25 4.28 2.86 4.28Z M1.99272 1.41868C1.77272 1.57868 1.61272 1.83868 1.51272 2.12868L3.92272 2.12868C3.86272 1.83868 3.70272 1.57868 3.51272 1.41868C3.31272 1.25868 3.05272 1.15868 2.73272 1.15868C2.44272 1.15868 2.19272 1.25868 1.99272 1.41868Z " /><path id="路径 415" fill-rule="evenodd" style="fill:#FF6010" transform="translate(0 17.734281437125787)  rotate(0 3.6047904191617275 3.620883233532934)" opacity="1" d="M2.9,7.24L4.31,7.24L7.21,0L5.63,0L3.64,5.47L3.57,5.47L1.58,0L0,0L2.9,7.24Z " /><path id="分组 98" fill-rule="evenodd" style="fill:#FF6010" transform="translate(8.142964071856284 19.440119760479092)  rotate(0 2.864520958083825 2.8323353293413023)" opacity="1" d="M0.74 0.77C0.51 1.03 0.32 1.32 0.19 1.67C0.06 2.03 0 2.41 0 2.83C0 3.25 0.06 3.64 0.19 3.99C0.32 4.35 0.51 4.63 0.74 4.89C0.97 5.15 1.26 5.34 1.58 5.47C1.9 5.6 2.22 5.66 2.61 5.66C2.93 5.66 3.25 5.6 3.54 5.5C3.83 5.41 4.12 5.21 4.38 4.99L4.38 5.47L5.73 5.47L5.73 0.16L4.38 0.16L4.38 0.64C4.12 0.39 3.83 0.23 3.54 0.13C3.25 0.06 2.93 0 2.61 0C2.22 0 1.9 0.06 1.58 0.19C1.26 0.32 0.97 0.51 0.74 0.77Z M1.89835 1.7018C1.76835 1.8318 1.67835 1.9918 1.57835 2.1518C1.47835 2.3518 1.44835 2.5418 1.44835 2.8018C1.44835 3.0618 1.47835 3.2518 1.57835 3.4418C1.63835 3.6418 1.76835 3.7618 1.89835 3.8918C2.02835 4.0218 2.18835 4.1218 2.34835 4.1818C2.50835 4.2518 2.70835 4.2818 2.86835 4.2818C3.08835 4.2818 3.34835 4.2118 3.60835 4.1218C3.85835 3.9918 4.08835 3.8018 4.27835 3.4718L4.27835 2.1518C4.08835 1.8318 3.85835 1.6418 3.60835 1.5118C3.34835 1.4118 3.08835 1.3518 2.86835 1.3518C2.66835 1.3518 2.50835 1.3818 2.34835 1.4518C2.18835 1.5118 2.02835 1.6118 1.89835 1.7018Z " /><path id="路径 418" fill-rule="evenodd" style="fill:#FF6010" transform="translate(16.189371257485107 17.734281437125787)  rotate(0 1.1586826347305828 3.6530688622754557)" opacity="1" d="M1.67,7.31C1.77,7.31 1.87,7.31 1.96,7.31L2,7.31C2.09,7.27 2.22,7.27 2.32,7.24L2.32,6.05C2.29,6.05 2.22,6.05 2.19,6.05C2.16,6.05 2.09,6.05 2.06,6.05C1.87,6.05 1.71,5.99 1.61,5.92C1.51,5.86 1.45,5.7 1.45,5.5L1.45,0L0,0L0,5.6C0,5.95 0.06,6.24 0.16,6.47C0.26,6.69 0.39,6.86 0.55,6.98C0.71,7.11 0.9,7.21 1.09,7.24C1.32,7.27 1.51,7.31 1.67,7.31Z " /><path id="路径 419" fill-rule="evenodd" style="fill:#FF6010" transform="translate(20.212574850299347 19.568862275449135)  rotate(0 2.6875000000001172 2.751871257485015)" opacity="1" d="M1.45,0.03L0,0.03L0,2.99C0,3.83 0.19,4.44 0.61,4.86C1.03,5.28 1.58,5.5 2.25,5.5C2.57,5.5 2.86,5.44 3.15,5.34C3.44,5.25 3.7,5.12 3.93,4.92L3.93,5.31L5.38,5.31L5.38,0L3.93,0L3.93,3.25C3.8,3.51 3.6,3.73 3.35,3.86C3.09,4.02 2.83,4.09 2.57,4.09C2.45,4.09 2.29,4.09 2.16,4.02C2.03,3.99 1.9,3.89 1.8,3.8C1.71,3.7 1.61,3.57 1.54,3.41C1.48,3.25 1.45,3.09 1.45,2.86L1.45,0.03Z " /><path id="分组 99" fill-rule="evenodd" style="fill:#FF6010" transform="translate(27.583083832335433 19.50449101796403)  rotate(0 2.6613491766466186 2.800149700598817)" opacity="1" d="M5.21 1.87C5.09 1.48 4.92 1.16 4.7 0.87C4.47 0.58 4.18 0.35 3.86 0.23C3.51 0.06 3.15 0 2.74 0C2.38 0 2.03 0.06 1.71 0.19C1.38 0.32 1.09 0.51 0.84 0.77C0.58 1.03 0.35 1.32 0.23 1.67C0.06 2.03 0 2.41 0 2.83C0 3.28 0.1 3.67 0.23 4.02C0.35 4.38 0.55 4.67 0.8 4.89C1.03 5.12 1.35 5.28 1.67 5.41C2.03 5.54 2.38 5.6 2.77 5.6C3.22 5.6 3.64 5.54 4.02 5.38C4.44 5.21 4.76 5.02 5.02 4.8L4.41 3.73C4.22 3.86 4.02 3.99 3.8 4.12C3.57 4.22 3.25 4.28 2.86 4.28C2.51 4.28 2.22 4.18 2 4.06C1.74 3.86 1.58 3.6 1.51 3.22L5.31 3.22C5.34 2.7 5.31 2.25 5.21 1.87Z M1.99272 1.41868C1.77272 1.57868 1.61272 1.83868 1.51272 2.12868L3.92272 2.12868C3.86272 1.83868 3.70272 1.57868 3.51272 1.41868C3.31272 1.25868 3.05272 1.15868 2.73272 1.15868C2.44272 1.15868 2.19272 1.25868 1.99272 1.41868Z " /><path id="路径 422" fill-rule="evenodd" style="fill:#FF6010" transform="translate(38.01122754491017 17.60553892215563)  rotate(0 3.266841317365299 3.733532934131762)" opacity="1" d="M4.57,1.54C4.89,1.64 5.21,1.83 5.54,2.12L6.4,1.06C6.08,0.74 5.7,0.48 5.25,0.29C4.8,0.1 4.28,0 3.73,0C3.15,0 2.64,0.1 2.16,0.32C1.71,0.55 1.32,0.84 1,1.19C0.68,1.54 0.42,1.93 0.26,2.38C0.1,2.83 0,3.28 0,3.73C0,4.22 0.1,4.67 0.26,5.12C0.42,5.57 0.68,5.95 0.97,6.31C1.26,6.66 1.64,6.95 2.09,7.15C2.54,7.37 3.06,7.47 3.64,7.47C3.93,7.47 4.22,7.43 4.44,7.4C4.73,7.34 5.02,7.24 5.28,7.15C5.54,7.05 5.76,6.92 5.99,6.76C6.21,6.6 6.4,6.44 6.53,6.28L5.63,5.21C5.44,5.44 5.18,5.63 4.86,5.83C4.57,5.99 4.18,6.08 3.7,6.08C3.35,6.08 3.06,6.02 2.77,5.89C2.48,5.76 2.25,5.6 2.06,5.37C1.87,5.15 1.71,4.92 1.61,4.63C1.51,4.35 1.45,4.06 1.45,3.73C1.45,3.41 1.51,3.12 1.61,2.83C1.71,2.54 1.87,2.32 2.06,2.09C2.25,1.87 2.48,1.71 2.74,1.58C2.99,1.45 3.32,1.38 3.64,1.38C3.93,1.38 4.25,1.45 4.57,1.54Z " /><path id="分组 100" fill-rule="evenodd" style="fill:#FF6010" transform="translate(46.02544910179641 19.47230538922156)  rotate(0 2.784056886227501 2.8162425149700594)" opacity="1" d="M5.57 2.8C5.57 2.38 5.5 2 5.34 1.64C5.21 1.29 4.99 1 4.73 0.74C4.47 0.51 4.18 0.32 3.83 0.19C3.51 0.06 3.15 0 2.8 0C2.45 0 2.09 0.06 1.77 0.19C1.42 0.32 1.13 0.51 0.87 0.74C0.58 1 0.39 1.29 0.23 1.64C0.06 2 0 2.38 0 2.8C0 3.22 0.06 3.6 0.23 3.96C0.39 4.31 0.61 4.63 0.87 4.86C1.13 5.12 1.45 5.31 1.77 5.44C2.09 5.57 2.45 5.63 2.8 5.63C3.15 5.63 3.51 5.57 3.83 5.44C4.18 5.31 4.47 5.12 4.73 4.86C4.99 4.6 5.18 4.31 5.34 3.96C5.5 3.6 5.57 3.22 5.57 2.8Z M1.51617 3.37961C1.57617 3.53961 1.67617 3.69961 1.80617 3.82961C1.92617 3.95961 2.05617 4.08961 2.21617 4.14961C2.38617 4.21961 2.57617 4.27961 2.76617 4.27961C2.95617 4.27961 3.15617 4.24961 3.31617 4.14961C3.47617 4.08961 3.63617 3.95961 3.73617 3.82961C3.86617 3.69961 3.95617 3.53961 4.02617 3.37961C4.08617 3.21961 4.11617 2.98961 4.11617 2.79961C4.11617 2.60961 4.08617 2.40961 4.02617 2.21961C3.95617 2.02961 3.86617 1.89961 3.73617 1.76961C3.60617 1.63961 3.47617 1.54961 3.31617 1.44961C3.15617 1.37961 2.99617 1.31961 2.76617 1.31961C2.57617 1.31961 2.38617 1.34961 2.21617 1.44961C2.05617 1.50961 1.92617 1.60961 1.80617 1.76961C1.67617 1.89961 1.57617 2.05961 1.51617 2.21961C1.44617 2.40961 1.41617 2.60961 1.41617 2.79961C1.41617 2.98961 1.44617 3.18961 1.51617 3.37961Z " /><path id="路径 425" fill-rule="evenodd" style="fill:#FF6010" transform="translate(53.58907185628743 19.53667664670661)  rotate(0 4.409431137724566 2.751871257485015)" opacity="1" d="M8.27,0.64C7.92,0.23 7.4,0 6.69,0C6.28,0 5.89,0.1 5.57,0.26C5.25,0.42 4.96,0.64 4.76,0.9C4.41,0.32 3.83,0 2.99,0C2.64,0 2.35,0.06 2.06,0.19C1.8,0.35 1.54,0.51 1.32,0.74L1.32,0.16L0,0.16L0,5.47L1.45,5.47L1.45,2.19C1.58,1.93 1.74,1.71 1.96,1.58C2.19,1.42 2.41,1.35 2.67,1.35C2.99,1.35 3.22,1.45 3.41,1.64C3.6,1.83 3.7,2.16 3.7,2.57L3.7,5.44L5.15,5.44L5.15,2.16C5.28,1.9 5.44,1.67 5.66,1.54C5.89,1.38 6.12,1.32 6.37,1.32C6.69,1.32 6.92,1.42 7.11,1.61C7.31,1.8 7.4,2.12 7.4,2.54L7.37,2.54L7.37,5.5L8.82,5.5L8.82,2.51C8.82,1.67 8.63,1.06 8.27,0.64Z " /><path id="路径 426" fill-rule="evenodd" style="fill:#FF6010" transform="translate(64.66092814371262 19.53667664670661)  rotate(0 4.409431137724566 2.751871257485015)" opacity="1" d="M8.27,0.64C7.92,0.23 7.4,0 6.69,0C6.28,0 5.89,0.1 5.57,0.26C5.25,0.42 4.96,0.64 4.76,0.9C4.41,0.32 3.83,0 2.99,0C2.64,0 2.35,0.06 2.06,0.19C1.8,0.35 1.54,0.51 1.32,0.74L1.32,0.16L0,0.16L0,5.47L1.45,5.47L1.45,2.19C1.58,1.93 1.74,1.71 1.96,1.58C2.19,1.42 2.41,1.35 2.67,1.35C2.99,1.35 3.22,1.45 3.41,1.64C3.6,1.83 3.7,2.16 3.7,2.57L3.7,5.44L5.15,5.44L5.15,2.16C5.28,1.9 5.44,1.67 5.66,1.54C5.89,1.38 6.12,1.32 6.37,1.32C6.69,1.32 6.92,1.42 7.11,1.61C7.31,1.8 7.4,2.12 7.4,2.54L7.37,2.54L7.37,5.5L8.82,5.5L8.82,2.51C8.82,1.67 8.63,1.06 8.27,0.64Z " /><g opacity="1" transform="translate(75.50748502994011 17.058383233532993)  rotate(0 0.869011976047992 3.9427395209580833)"><path id="路径 427" fill-rule="evenodd" style="fill:#FF6010" transform="translate(0 0)  rotate(0 0.869011976047992 0.8690119760478822)" opacity="1" d="M0.26,1.48C0.42,1.64 0.64,1.74 0.87,1.74C1.13,1.74 1.32,1.64 1.48,1.48C1.64,1.32 1.74,1.09 1.74,0.87C1.74,0.61 1.64,0.42 1.48,0.26C1.32,0.1 1.09,0 0.87,0C0.64,0 0.42,0.1 0.26,0.26C0.1,0.42 0,0.64 0,0.87C0,1.09 0.1,1.32 0.26,1.48Z " /><path id="路径 428" fill-rule="evenodd" style="fill:#FF6010" transform="translate(0.16092814371256736 2.5748502994011915)  rotate(0 0.7241766467065869 2.655314371257485)" opacity="1" d="M0,5.31L1.45,5.31L1.45,0L0,0L0,5.31Z " /></g><path id="路径 429" fill-rule="evenodd" style="fill:#FF6010" transform="translate(78.82260479041906 18.056137724550922)  rotate(0 1.9794161676647 3.5082335329341245)" opacity="1" d="M0.8,4.76C0.8,5.15 0.87,5.47 0.97,5.76C1.06,6.05 1.19,6.28 1.38,6.47C1.54,6.66 1.77,6.79 2,6.89C2.22,6.98 2.48,7.02 2.74,7.02C2.93,7.02 3.12,6.98 3.35,6.95C3.54,6.92 3.77,6.82 3.96,6.73L3.6,5.57C3.41,5.66 3.22,5.73 3.03,5.73C2.77,5.73 2.57,5.63 2.45,5.44C2.32,5.25 2.25,4.99 2.25,4.67L2.25,2.8L3.8,2.8L3.8,1.58L2.25,1.58L2.25,0L0.8,0L0.8,1.58L0,1.58L0,2.8L0.8,2.8L0.8,4.76Z " /><path id="路径 430" fill-rule="evenodd" style="fill:#FF6010" transform="translate(83.81137724550888 18.056137724550922)  rotate(0 1.9794161676647 3.5082335329341245)" opacity="1" d="M2.25,4.67L2.25,2.8L3.8,2.8L3.8,1.58L2.25,1.58L2.25,0L0.8,0L0.8,1.58L0,1.58L0,2.8L0.8,2.8L0.8,4.76C0.8,5.15 0.87,5.47 0.97,5.76C1.06,6.05 1.19,6.28 1.38,6.47C1.54,6.66 1.77,6.79 2,6.89C2.22,6.98 2.48,7.02 2.74,7.02C2.93,7.02 3.12,6.98 3.35,6.95C3.54,6.92 3.77,6.82 3.96,6.73L3.6,5.57C3.41,5.66 3.22,5.73 3.03,5.73C2.77,5.73 2.57,5.63 2.45,5.44C2.32,5.25 2.25,4.99 2.25,4.67Z " /><path id="分组 102" fill-rule="evenodd" style="fill:#FF6010" transform="translate(89.05763473053901 19.50449101796403)  rotate(0 2.6613491766466186 2.800149700598817)" opacity="1" d="M4.41 3.73C4.22 3.86 4.02 3.99 3.8 4.12C3.57 4.22 3.25 4.28 2.86 4.28C2.51 4.28 2.19 4.18 2 4.06C1.74 3.86 1.58 3.6 1.51 3.22L5.31 3.22C5.34 2.7 5.31 2.25 5.21 1.87C5.09 1.48 4.92 1.16 4.7 0.87C4.47 0.58 4.18 0.35 3.86 0.23C3.51 0.06 3.15 0 2.74 0C2.38 0 2.03 0.06 1.71 0.19C1.38 0.32 1.09 0.51 0.84 0.77C0.58 1.03 0.35 1.32 0.23 1.67C0.06 2.03 0 2.41 0 2.83C0 3.28 0.1 3.67 0.23 4.02C0.35 4.38 0.55 4.67 0.8 4.89C1.03 5.12 1.35 5.28 1.67 5.41C2.03 5.54 2.38 5.6 2.77 5.6C3.22 5.6 3.64 5.54 4.02 5.38C4.44 5.21 4.76 5.02 5.02 4.8L4.41 3.73Z M1.99272 1.41868C1.77272 1.57868 1.61272 1.83868 1.51272 2.12868L3.92272 2.12868C3.86272 1.83868 3.70272 1.57868 3.51272 1.41868C3.31272 1.25868 3.05272 1.15868 2.73272 1.15868C2.44272 1.15868 2.19272 1.25868 1.99272 1.41868Z " /><path id="分组 103" fill-rule="evenodd" style="fill:#FF6010" transform="translate(96.00973053892224 19.50449101796403)  rotate(0 2.6613491766466186 2.800149700598817)" opacity="1" d="M4.02 5.38C4.44 5.21 4.76 5.02 5.02 4.8L4.41 3.73C4.22 3.86 4.02 3.99 3.8 4.12C3.57 4.22 3.25 4.28 2.86 4.28C2.51 4.28 2.19 4.18 2 4.06C1.74 3.86 1.58 3.6 1.51 3.22L5.31 3.22C5.34 2.7 5.31 2.25 5.21 1.87C5.09 1.48 4.92 1.16 4.7 0.87C4.47 0.58 4.18 0.35 3.86 0.23C3.51 0.06 3.15 0 2.74 0C2.38 0 2.03 0.06 1.71 0.19C1.38 0.32 1.09 0.51 0.84 0.77C0.58 1.03 0.35 1.32 0.23 1.67C0.06 2.03 0 2.41 0 2.83C0 3.28 0.1 3.67 0.23 4.02C0.35 4.38 0.55 4.67 0.8 4.89C1.03 5.12 1.35 5.28 1.67 5.41C2.03 5.54 2.38 5.6 2.77 5.6C3.22 5.6 3.64 5.54 4.02 5.38Z M1.96054 1.41868C1.74054 1.57868 1.58054 1.83868 1.48054 2.12868L3.89054 2.12868C3.83054 1.83868 3.67054 1.57868 3.48054 1.41868C3.28054 1.25868 3.02054 1.15868 2.70054 1.15868C2.41054 1.15868 2.16054 1.25868 1.96054 1.41868Z " /><path id="路径 435" fill-rule="evenodd" style="fill:#FF6010" transform="translate(106.5022455089821 17.637724550898213)  rotate(0 2.655314371257558 3.6852544910179965)" opacity="1" d="M0.55,5.05C0.19,5.5 0.03,6.05 0.03,6.63L0,6.63L0,7.37L5.28,7.37L5.28,6.08L1.58,6.08C1.61,5.95 1.67,5.86 1.77,5.73C1.87,5.6 2,5.47 2.16,5.38C2.32,5.28 2.48,5.15 2.64,5.05C2.8,4.96 2.96,4.86 3.09,4.76C3.25,4.67 3.44,4.54 3.7,4.41C3.96,4.28 4.22,4.09 4.44,3.89C4.67,3.7 4.89,3.48 5.05,3.19C5.21,2.9 5.31,2.57 5.31,2.19C5.31,1.9 5.28,1.61 5.18,1.35C5.09,1.09 4.92,0.84 4.73,0.64C4.51,0.45 4.25,0.29 3.96,0.16C3.67,0.06 3.32,0 2.9,0C2.35,0 1.87,0.06 1.45,0.26C1.03,0.45 0.61,0.71 0.23,1.03L0.97,2.06C1.29,1.8 1.61,1.61 1.9,1.48C2.19,1.38 2.48,1.32 2.74,1.32C2.93,1.32 3.12,1.35 3.25,1.38C3.41,1.42 3.51,1.48 3.6,1.58C3.7,1.67 3.77,1.77 3.8,1.87C3.83,1.96 3.86,2.06 3.86,2.19C3.86,2.35 3.8,2.48 3.73,2.61C3.67,2.74 3.54,2.86 3.41,2.99C3.25,3.12 3.09,3.25 2.86,3.38C2.67,3.51 2.41,3.67 2.16,3.8C1.42,4.18 0.87,4.6 0.55,5.05Z " /><path id="分组 104" fill-rule="evenodd" style="fill:#FF6010" transform="translate(113.67964071856284 17.605538922155688)  rotate(0 2.6070359281438296 3.7335329341317434)" opacity="1" d="M4.63 1.13C4.44 0.77 4.15 0.48 3.83 0.29C3.51 0.1 3.09 0 2.61 0C2.12 0 1.71 0.1 1.38 0.29C1.06 0.51 0.77 0.77 0.58 1.13C0.35 1.48 0.23 1.87 0.13 2.32C0.03 2.77 0 3.25 0 3.73C0 4.25 0.03 4.7 0.13 5.15C0.23 5.6 0.39 5.99 0.58 6.34C0.77 6.66 1.06 6.95 1.38 7.15C1.71 7.37 2.12 7.47 2.61 7.47C3.09 7.47 3.51 7.34 3.83 7.15C4.15 6.95 4.44 6.69 4.63 6.34C4.86 5.99 4.99 5.6 5.09 5.15C5.18 4.7 5.21 4.22 5.21 3.73C5.21 3.25 5.18 2.77 5.09 2.32C4.99 1.87 4.83 1.48 4.63 1.13Z M1.67054 5.43868C1.77054 5.66868 1.87054 5.85868 2.03054 6.01868C2.19054 6.14868 2.38054 6.24868 2.64054 6.24868C2.90054 6.24868 3.12054 6.17868 3.25054 6.01868C3.41054 5.88868 3.51054 5.69868 3.60054 5.43868C3.70054 5.21868 3.73054 4.95868 3.77054 4.63868C3.77054 4.34868 3.80054 4.01868 3.80054 3.72868C3.80054 3.44868 3.80054 3.11868 3.77054 2.82868C3.73054 2.53868 3.67054 2.24868 3.60054 1.99868C3.51054 1.76868 3.41054 1.54868 3.25054 1.38868C3.09054 1.21868 2.90054 1.15868 2.64054 1.15868C2.38054 1.15868 2.19054 1.21868 2.03054 1.38868C1.87054 1.54868 1.74054 1.73868 1.67054 1.99868C1.58054 2.24868 1.54054 2.50868 1.51054 2.82868C1.48054 3.15868 1.48054 3.44868 1.48054 3.72868C1.48054 4.01868 1.48054 4.30868 1.51054 4.63868C1.54054 4.92868 1.61054 5.17868 1.67054 5.43868Z " /><path id="路径 438" fill-rule="evenodd" style="fill:#FF6010" transform="translate(120.72829341317365 17.637724550898213)  rotate(0 2.655314371257558 3.6852544910179965)" opacity="1" d="M0.55,5.05C0.19,5.5 0.03,6.05 0.03,6.63L0,6.63L0,7.37L5.28,7.37L5.28,6.08L1.58,6.08C1.61,5.95 1.67,5.86 1.77,5.73C1.87,5.6 2,5.47 2.16,5.38C2.32,5.28 2.48,5.15 2.64,5.05C2.8,4.96 2.96,4.86 3.09,4.76C3.25,4.67 3.44,4.54 3.7,4.41C3.96,4.28 4.22,4.09 4.44,3.89C4.67,3.7 4.89,3.48 5.05,3.19C5.21,2.9 5.31,2.57 5.31,2.19C5.31,1.9 5.28,1.61 5.18,1.35C5.09,1.09 4.92,0.84 4.73,0.64C4.51,0.45 4.25,0.29 3.96,0.16C3.67,0.06 3.32,0 2.9,0C2.35,0 1.87,0.06 1.45,0.26C1.03,0.45 0.61,0.71 0.23,1.03L0.97,2.06C1.29,1.8 1.61,1.61 1.9,1.48C2.19,1.38 2.48,1.32 2.74,1.32C2.93,1.32 3.12,1.35 3.25,1.38C3.41,1.42 3.51,1.48 3.6,1.58C3.7,1.67 3.77,1.77 3.8,1.87C3.83,1.96 3.86,2.06 3.86,2.19C3.86,2.35 3.8,2.48 3.73,2.61C3.67,2.74 3.54,2.86 3.41,2.99C3.25,3.12 3.09,3.25 2.86,3.38C2.67,3.51 2.41,3.67 2.16,3.8C1.42,4.18 0.87,4.6 0.55,5.05Z " /><path id="路径 439" fill-rule="evenodd" style="fill:#FF6010" transform="translate(127.84131736526939 17.637724550898213)  rotate(0 2.655314371257558 3.6852544910179965)" opacity="1" d="M3.7,4.41C3.96,4.28 4.22,4.09 4.44,3.89C4.67,3.7 4.89,3.48 5.05,3.19C5.21,2.9 5.31,2.57 5.31,2.19C5.31,1.9 5.28,1.61 5.18,1.35C5.09,1.09 4.92,0.84 4.73,0.64C4.51,0.45 4.25,0.29 3.96,0.16C3.67,0.06 3.32,0 2.9,0C2.35,0 1.87,0.06 1.45,0.26C1.03,0.45 0.61,0.71 0.23,1.03L0.97,2.06C1.29,1.8 1.61,1.61 1.9,1.48C2.19,1.38 2.48,1.32 2.74,1.32C2.93,1.32 3.12,1.35 3.25,1.38C3.41,1.42 3.51,1.48 3.6,1.58C3.7,1.67 3.77,1.77 3.8,1.87C3.83,1.96 3.86,2.06 3.86,2.19C3.86,2.35 3.8,2.48 3.73,2.61C3.67,2.74 3.57,2.86 3.41,2.99C3.25,3.12 3.09,3.25 2.86,3.38C2.67,3.51 2.41,3.67 2.16,3.8C1.42,4.18 0.87,4.6 0.55,5.05C0.19,5.5 0.03,6.05 0.03,6.63L0,6.63L0,7.37L5.28,7.37L5.28,6.08L1.58,6.08C1.61,5.95 1.67,5.86 1.77,5.73C1.87,5.6 2,5.47 2.16,5.38C2.32,5.28 2.48,5.15 2.64,5.05C2.8,4.96 2.96,4.86 3.09,4.76C3.25,4.67 3.44,4.54 3.7,4.41Z " /><path id="分组 105" fill-rule="evenodd" style="fill:#FF6010" transform="translate(138.04416167664672 17.702095808383262)  rotate(0 3.6047904191616915 3.620883233532934)" opacity="1" d="M5.63 7.24L7.21 7.24L4.31 0L2.9 0L0 7.24L1.58 7.24L2.12 5.73L5.09 5.73L5.63 7.24Z M4.63704 4.44584L3.63704 1.70584L2.60704 4.44584L4.63704 4.44584Z " /><path id="路径 442" fill-rule="evenodd" style="fill:#FF6010" transform="translate(146.83083832335325 19.47230538922156)  rotate(0 2.7035928143712136 2.751871257485015)" opacity="1" d="M3.96,5.5L5.41,5.5L5.41,2.51C5.41,1.67 5.21,1.06 4.8,0.64C4.38,0.23 3.83,0 3.15,0C2.8,0 2.45,0.06 2.16,0.19C1.83,0.32 1.54,0.51 1.32,0.74L1.32,0.16L0,0.16L0,5.47L1.45,5.47L1.45,2.19C1.61,1.96 1.83,1.74 2.06,1.58C2.32,1.42 2.57,1.32 2.86,1.32C3.22,1.32 3.48,1.42 3.67,1.64C3.86,1.83 3.96,2.16 3.96,2.54L3.96,5.5Z " /><path id="路径 443" fill-rule="evenodd" style="fill:#FF6010" transform="translate(154.42664670658678 19.47230538922156)  rotate(0 2.7035928143712136 2.751871257485015)" opacity="1" d="M5.41,2.51C5.41,1.67 5.21,1.06 4.8,0.64C4.38,0.23 3.83,0 3.15,0C2.8,0 2.45,0.06 2.16,0.19C1.83,0.32 1.54,0.51 1.32,0.74L1.32,0.16L0,0.16L0,5.47L1.45,5.47L1.45,2.19C1.61,1.96 1.83,1.74 2.06,1.58C2.32,1.42 2.57,1.32 2.86,1.32C3.22,1.32 3.48,1.42 3.67,1.64C3.86,1.83 3.96,2.16 3.96,2.54L3.96,5.5L5.41,5.5L5.41,2.51Z " /><path id="路径 444" fill-rule="evenodd" style="fill:#FF6010" transform="translate(161.95808383233526 19.568862275449135)  rotate(0 2.6875000000001172 2.751871257485015)" opacity="1" d="M3.35,3.86C3.09,4.02 2.83,4.09 2.57,4.09C2.45,4.09 2.29,4.09 2.16,4.02C2.03,3.99 1.9,3.89 1.8,3.8C1.71,3.7 1.61,3.57 1.54,3.41C1.48,3.25 1.45,3.09 1.45,2.86L1.45,0.03L0,0.03L0,2.99C0,3.83 0.19,4.44 0.61,4.86C1.03,5.28 1.58,5.5 2.25,5.5C2.57,5.5 2.86,5.44 3.15,5.34C3.44,5.25 3.7,5.12 3.93,4.92L3.93,5.31L5.38,5.31L5.38,0L3.93,0L3.93,3.25C3.8,3.51 3.6,3.73 3.35,3.86Z " /><path id="分组 106" fill-rule="evenodd" style="fill:#FF6010" transform="translate(169.3607784431139 19.440119760479092)  rotate(0 2.864520958083715 2.8323353293413023)" opacity="1" d="M1.58 0.19C1.26 0.32 0.97 0.51 0.74 0.77C0.51 1.03 0.32 1.32 0.19 1.67C0.06 2.03 0 2.41 0 2.83C0 3.25 0.06 3.64 0.19 3.99C0.32 4.35 0.51 4.63 0.74 4.89C0.97 5.15 1.26 5.34 1.58 5.47C1.9 5.6 2.22 5.66 2.61 5.66C2.93 5.66 3.25 5.6 3.54 5.5C3.83 5.41 4.12 5.21 4.38 4.99L4.38 5.47L5.73 5.47L5.73 0.16L4.38 0.16L4.38 0.64C4.12 0.39 3.83 0.23 3.54 0.13C3.25 0.06 2.93 0 2.61 0C2.22 0 1.9 0.06 1.58 0.19Z M4.27835 2.1518C4.08835 1.8318 3.85835 1.6418 3.60835 1.5118C3.31835 1.4118 3.08835 1.3518 2.86835 1.3518C2.66835 1.3518 2.50835 1.3818 2.34835 1.4518C2.18835 1.5118 2.02835 1.6118 1.89835 1.7018C1.76835 1.8318 1.67835 1.9918 1.57835 2.1518C1.47835 2.3518 1.44835 2.5418 1.44835 2.8018C1.44835 3.0618 1.47835 3.2518 1.57835 3.4418C1.63835 3.6418 1.76835 3.7618 1.89835 3.8918C2.02835 4.0218 2.18835 4.1218 2.34835 4.1818C2.50835 4.2518 2.70835 4.2818 2.86835 4.2818C3.08835 4.2818 3.34835 4.2118 3.60835 4.1218C3.85835 3.9918 4.08835 3.8018 4.27835 3.4718L4.27835 2.1518Z " /><path id="路径 447" fill-rule="evenodd" style="fill:#FF6010" transform="translate(177.40718562874264 17.734281437125787)  rotate(0 1.1586826347305828 3.6530688622754557)" opacity="1" d="M1.61,5.92C1.51,5.86 1.45,5.7 1.45,5.5L1.45,0L0,0L0,5.6C0,5.95 0.06,6.24 0.16,6.47C0.26,6.69 0.39,6.86 0.55,6.98C0.71,7.11 0.9,7.21 1.09,7.24C1.32,7.27 1.51,7.31 1.67,7.31C1.74,7.31 1.83,7.31 1.96,7.31L2,7.31C2.09,7.27 2.22,7.27 2.32,7.24L2.32,6.05C2.29,6.05 2.22,6.05 2.19,6.05C2.16,6.05 2.09,6.05 2.06,6.05C1.87,6.05 1.71,5.99 1.61,5.92Z " /><path id="分组 107" fill-rule="evenodd" style="fill:#FF6010" transform="translate(185.13173652694604 17.734281437125787)  rotate(0 2.5587574850298815 3.5886976047904118)" opacity="1" d="M4.44 4.09C4.67 3.86 4.83 3.6 4.96 3.32C5.05 2.99 5.12 2.7 5.12 2.38C5.12 2.06 5.09 1.77 4.96 1.48C4.83 1.19 4.67 0.93 4.44 0.71C4.22 0.48 3.93 0.32 3.6 0.19C3.25 0.06 2.86 0 2.45 0L0 0L0 7.18L1.45 7.18L1.45 4.83L2.45 4.83C2.9 4.83 3.28 4.76 3.6 4.63C3.93 4.51 4.22 4.31 4.44 4.09Z M2.41617 3.60961C2.63617 3.60961 2.83617 3.56961 2.99617 3.47961C3.15617 3.40961 3.28617 3.31961 3.37617 3.18961C3.47617 3.05961 3.53617 2.92961 3.60617 2.79961C3.66617 2.66961 3.66617 2.53961 3.66617 2.40961C3.66617 2.28961 3.63617 2.15961 3.60617 2.02961C3.57617 1.89961 3.47617 1.76961 3.37617 1.66961C3.28617 1.57961 3.15617 1.47961 2.99617 1.41961C2.83617 1.34961 2.63617 1.31961 2.41617 1.31961L1.41617 1.31961L1.41617 3.60961L2.41617 3.60961Z " /><path id="路径 450" fill-rule="evenodd" style="fill:#FF6010" transform="translate(192.21257485029952 17.734281437125787)  rotate(0 1.1586826347305828 3.6530688622754557)" opacity="1" d="M1.96,7.31L2,7.31C2.09,7.27 2.22,7.27 2.32,7.24L2.32,6.05C2.29,6.05 2.22,6.05 2.19,6.05C2.16,6.05 2.09,6.05 2.06,6.05C1.87,6.05 1.71,5.99 1.61,5.92C1.51,5.86 1.45,5.7 1.45,5.5L1.45,0L0,0L0,5.6C0,5.95 0.06,6.24 0.16,6.47C0.26,6.69 0.39,6.86 0.55,6.98C0.71,7.11 0.9,7.21 1.09,7.24C1.32,7.27 1.51,7.31 1.67,7.31C1.77,7.31 1.87,7.31 1.96,7.31Z " /><path id="分组 108" fill-rule="evenodd" style="fill:#FF6010" transform="translate(196.0104790419163 19.50449101796403)  rotate(0 2.6613491766466186 2.800149700598817)" opacity="1" d="M5.02 4.8L4.41 3.73C4.22 3.86 4.02 3.99 3.8 4.12C3.57 4.22 3.25 4.28 2.86 4.28C2.51 4.28 2.19 4.18 2 4.06C1.74 3.86 1.58 3.6 1.51 3.22L5.31 3.22C5.34 2.7 5.31 2.25 5.21 1.87C5.09 1.48 4.92 1.16 4.7 0.87C4.47 0.58 4.18 0.35 3.86 0.23C3.51 0.06 3.15 0 2.74 0C2.38 0 2.03 0.06 1.71 0.19C1.38 0.32 1.09 0.51 0.84 0.77C0.58 1.03 0.35 1.32 0.23 1.67C0.06 2.03 0 2.41 0 2.83C0 3.28 0.1 3.67 0.23 4.02C0.35 4.38 0.55 4.67 0.8 4.89C1.03 5.12 1.35 5.28 1.67 5.41C2.03 5.54 2.38 5.6 2.77 5.6C3.22 5.6 3.64 5.54 4.02 5.38C4.44 5.21 4.76 5.02 5.02 4.8Z M1.99272 1.41868C1.77272 1.57868 1.61272 1.83868 1.51272 2.12868L3.92272 2.12868C3.86272 1.83868 3.70272 1.57868 3.51272 1.41868C3.31272 1.25868 3.05272 1.15868 2.73272 1.15868C2.44272 1.15868 2.19272 1.25868 1.99272 1.41868Z " /><path id="路径 453" fill-rule="evenodd" style="fill:#FF6010" transform="translate(203.22005988023943 19.47230538922156)  rotate(0 2.7035928143712136 2.751871257485015)" opacity="1" d="M2.16,0.19C1.83,0.32 1.54,0.51 1.32,0.74L1.32,0.16L0,0.16L0,5.47L1.45,5.47L1.45,2.19C1.61,1.96 1.83,1.74 2.06,1.58C2.32,1.42 2.57,1.32 2.86,1.32C3.22,1.32 3.48,1.42 3.67,1.64C3.86,1.83 3.96,2.16 3.96,2.54L3.96,5.5L5.41,5.5L5.41,2.51C5.41,1.67 5.21,1.06 4.8,0.64C4.38,0.23 3.83,0 3.15,0C2.8,0 2.45,0.06 2.16,0.19Z " /><path id="分组 109" fill-rule="evenodd" style="fill:#FF6010" transform="translate(210.52619760479053 19.440119760479092)  rotate(0 2.864520958083715 2.8323353293413023)" opacity="1" d="M4.38 0.16L4.38 0.64C4.12 0.39 3.83 0.23 3.54 0.13C3.25 0.06 2.93 0 2.61 0C2.22 0 1.9 0.06 1.58 0.19C1.26 0.32 0.97 0.51 0.74 0.77C0.51 1.03 0.32 1.32 0.19 1.67C0.06 2.03 0 2.41 0 2.83C0 3.25 0.06 3.64 0.19 3.99C0.32 4.35 0.51 4.63 0.74 4.89C0.97 5.15 1.26 5.34 1.58 5.47C1.9 5.6 2.22 5.66 2.61 5.66C2.93 5.66 3.25 5.6 3.54 5.5C3.83 5.41 4.12 5.21 4.38 4.99L4.38 5.47L5.73 5.47L5.73 0.16L4.38 0.16Z M1.44835 2.8018C1.44835 3.0618 1.47835 3.2518 1.57835 3.4418C1.63835 3.6418 1.76835 3.7618 1.89835 3.8918C2.02835 4.0218 2.18835 4.1218 2.34835 4.1818C2.50835 4.2518 2.70835 4.2818 2.86835 4.2818C3.08835 4.2818 3.34835 4.2118 3.60835 4.1218C3.85835 3.9918 4.08835 3.8018 4.27835 3.4718L4.27835 2.1518C4.08835 1.8318 3.85835 1.6418 3.60835 1.5118C3.34835 1.4118 3.08835 1.3518 2.86835 1.3518C2.66835 1.3518 2.50835 1.3818 2.34835 1.4518C2.18835 1.5118 2.02835 1.6118 1.89835 1.7018C1.76835 1.8318 1.67835 1.9918 1.57835 2.1518C1.47835 2.3518 1.44835 2.5418 1.44835 2.8018Z " /><path id="路径 456" fill-rule="evenodd" style="fill:#FF6010" transform="translate(218.57260479041912 19.504491017964142)  rotate(0 1.6736526946106467 2.719685628742511)" opacity="1" d="M2.16,0.23C2,0.29 1.83,0.39 1.71,0.51C1.54,0.64 1.42,0.77 1.32,0.97L1.32,0.13L0,0.13L0.06,0.13L0.06,5.44L1.51,5.44L1.51,2.67C1.54,2.51 1.64,2.35 1.74,2.19C1.83,2.03 1.96,1.9 2.12,1.8C2.29,1.71 2.45,1.61 2.64,1.54C2.83,1.48 3.03,1.45 3.22,1.45L3.35,1.45L3.35,0C3.32,0 3.32,0 3.28,0C3.25,0 3.22,0 3.22,0C3.19,0 3.19,0 3.15,0C3.12,0 3.09,0 3.09,0C2.96,0 2.8,0.03 2.64,0.06C2.48,0.1 2.32,0.16 2.16,0.23Z " /><path id="路径 457" fill-rule="evenodd" style="fill:#FF6010" transform="translate(223.11077844311387 19.60104790419166)  rotate(0 3.089820359281335 3.958832335329326)" opacity="1" d="M3.19,3.48L1.67,0L0,0L2.48,5.18L2.35,5.5C2.25,5.79 2.09,6.05 1.9,6.24C1.71,6.44 1.48,6.53 1.16,6.53C1.06,6.53 0.97,6.53 0.87,6.47C0.77,6.44 0.68,6.4 0.55,6.37L0.16,7.72C0.58,7.85 0.9,7.92 1.22,7.92C1.51,7.92 1.77,7.89 2,7.79C2.22,7.69 2.45,7.56 2.64,7.37C2.83,7.21 3.03,7.02 3.19,6.73C3.35,6.44 3.51,6.15 3.64,5.83L6.18,0L4.51,0L3.19,3.48Z " /><path id="路径 458" fill-rule="evenodd" style="fill:#FF6010" transform="translate(233.9573353293411 17.637724550898213)  rotate(0 2.655314371257485 3.7013473053892394)" opacity="1" d="M4.67,0.58C4.51,0.48 4.31,0.39 4.12,0.29C3.89,0.19 3.67,0.1 3.41,0.06C3.15,0.03 2.86,0 2.51,0C2.12,0 1.77,0.06 1.48,0.19C1.19,0.32 0.97,0.48 0.77,0.68C0.58,0.87 0.45,1.09 0.35,1.32C0.26,1.58 0.23,1.8 0.23,2.06C0.23,2.41 0.26,2.74 0.39,2.96C0.48,3.19 0.64,3.41 0.84,3.57C1.03,3.73 1.26,3.86 1.51,3.96C1.77,4.09 2.03,4.18 2.29,4.25C2.48,4.31 2.67,4.38 2.86,4.44C3.06,4.51 3.22,4.57 3.35,4.67C3.48,4.76 3.57,4.86 3.67,4.96C3.77,5.05 3.8,5.18 3.8,5.31C3.8,5.57 3.7,5.79 3.51,5.92C3.32,6.08 3.03,6.15 2.67,6.15C2.51,6.15 2.35,6.12 2.19,6.05C2.03,6.02 1.83,5.99 1.64,5.92C1.45,5.86 1.29,5.79 1.09,5.7C0.9,5.6 0.74,5.54 0.61,5.44L0,6.63C0.51,6.92 0.97,7.15 1.42,7.24C1.87,7.34 2.29,7.4 2.67,7.4C3.12,7.4 3.51,7.34 3.83,7.21C4.18,7.08 4.44,6.92 4.67,6.69C4.89,6.5 5.05,6.24 5.15,5.99C5.25,5.7 5.31,5.44 5.31,5.15C5.31,4.89 5.28,4.63 5.18,4.41C5.09,4.18 4.96,3.99 4.76,3.8C4.57,3.64 4.35,3.48 4.09,3.35C3.8,3.19 3.48,3.06 3.12,2.96C2.64,2.8 2.29,2.67 2.06,2.54C1.83,2.41 1.71,2.22 1.71,2C1.71,1.9 1.74,1.83 1.77,1.74C1.8,1.67 1.87,1.58 1.93,1.51C2,1.45 2.09,1.38 2.22,1.35C2.32,1.32 2.48,1.29 2.67,1.29C2.99,1.29 3.32,1.35 3.6,1.48C3.89,1.61 4.18,1.77 4.47,1.96L5.12,0.9C4.99,0.8 4.86,0.71 4.73,0.61C4.7,0.61 4.7,0.58 4.67,0.58Z " /><path id="分组 110" fill-rule="evenodd" style="fill:#FF6010" transform="translate(240.87724550898207 19.50449101796403)  rotate(0 2.6613491766466186 2.800149700598817)" opacity="1" d="M1.71 0.19C1.38 0.32 1.09 0.51 0.84 0.77C0.58 1.03 0.35 1.32 0.23 1.67C0.06 2.03 0 2.41 0 2.83C0 3.28 0.1 3.67 0.23 4.02C0.35 4.38 0.55 4.67 0.8 4.89C1.03 5.12 1.35 5.28 1.67 5.41C2.03 5.54 2.38 5.6 2.77 5.6C3.22 5.6 3.64 5.54 4.02 5.38C4.44 5.21 4.76 5.02 5.02 4.8L4.41 3.73C4.22 3.86 4.02 3.99 3.8 4.12C3.57 4.22 3.25 4.28 2.86 4.28C2.51 4.28 2.19 4.18 2 4.06C1.74 3.86 1.58 3.6 1.51 3.22L5.31 3.22C5.34 2.7 5.31 2.25 5.21 1.87C5.09 1.48 4.92 1.16 4.7 0.87C4.47 0.58 4.18 0.35 3.86 0.23C3.51 0.06 3.15 0 2.74 0C2.38 0 2.03 0.06 1.71 0.19Z M1.99272 1.41868C1.77272 1.57868 1.61272 1.83868 1.51272 2.12868L3.92272 2.12868C3.86272 1.83868 3.70272 1.57868 3.51272 1.41868C3.31272 1.25868 3.05272 1.15868 2.73272 1.15868C2.44272 1.15868 2.19272 1.25868 1.99272 1.41868Z " /><path id="路径 461" fill-rule="evenodd" style="fill:#FF6010" transform="translate(247.82934131736545 19.50449101796403)  rotate(0 2.204715568862246 2.784056886227537)" opacity="1" d="M2.09,3.38C2.12,3.38 2.19,3.41 2.25,3.41C2.38,3.44 2.51,3.48 2.61,3.54C2.7,3.57 2.77,3.64 2.83,3.7C2.9,3.77 2.93,3.83 2.93,3.93C2.93,4.06 2.9,4.18 2.77,4.28C2.64,4.38 2.45,4.41 2.22,4.41C2,4.41 1.67,4.35 1.35,4.28C1.03,4.18 0.71,4.06 0.39,3.89L0,5.05C0.35,5.21 0.74,5.34 1.13,5.44C1.51,5.54 1.9,5.57 2.29,5.57C2.57,5.57 2.86,5.54 3.12,5.44C3.38,5.37 3.6,5.25 3.8,5.09C3.99,4.92 4.15,4.73 4.25,4.51C4.35,4.28 4.41,4.02 4.41,3.73C4.41,3.51 4.38,3.32 4.28,3.15C4.18,2.99 4.06,2.83 3.93,2.7C3.77,2.57 3.6,2.48 3.38,2.38C3.15,2.29 2.93,2.22 2.67,2.16C2.51,2.09 2.35,2.06 2.22,2.03C2.06,2 1.93,1.96 1.83,1.93C1.74,1.9 1.64,1.83 1.58,1.77C1.51,1.71 1.48,1.64 1.48,1.54C1.48,1.51 1.48,1.48 1.51,1.42C1.54,1.38 1.58,1.32 1.64,1.29C1.71,1.22 1.77,1.19 1.87,1.16C1.96,1.13 2.09,1.13 2.25,1.13C2.51,1.13 2.8,1.16 3.06,1.26C3.32,1.35 3.57,1.48 3.83,1.67L4.35,0.61C4.31,0.58 4.28,0.55 4.25,0.55C4.12,0.48 3.99,0.42 3.86,0.35C3.73,0.29 3.57,0.23 3.38,0.16C3.19,0.1 2.99,0.06 2.8,0.03C2.61,0 2.38,0 2.12,0C1.77,0 1.48,0.03 1.22,0.13C0.97,0.23 0.77,0.32 0.58,0.48C0.42,0.64 0.29,0.84 0.19,1.03C0.1,1.22 0.06,1.45 0.06,1.67C0.06,1.96 0.13,2.22 0.26,2.41C0.39,2.61 0.55,2.77 0.74,2.9C0.93,3.03 1.13,3.09 1.32,3.15C1.38,3.19 1.45,3.22 1.51,3.22C1.61,3.28 1.74,3.28 1.83,3.32C1.93,3.35 2,3.35 2.09,3.38Z " /><path id="路径 462" fill-rule="evenodd" style="fill:#FF6010" transform="translate(253.91242514970065 19.50449101796403)  rotate(0 2.204715568862246 2.784056886227537)" opacity="1" d="M1.51,3.22C1.61,3.28 1.74,3.28 1.83,3.32C1.93,3.35 2,3.35 2.09,3.38C2.12,3.38 2.19,3.41 2.25,3.41C2.38,3.44 2.51,3.48 2.61,3.54C2.7,3.57 2.77,3.64 2.83,3.7C2.9,3.77 2.93,3.83 2.93,3.93C2.93,4.06 2.9,4.18 2.77,4.28C2.64,4.38 2.45,4.41 2.22,4.41C1.96,4.41 1.67,4.35 1.35,4.28C1.03,4.18 0.71,4.06 0.39,3.89L0,5.05C0.35,5.21 0.74,5.34 1.13,5.44C1.51,5.54 1.9,5.57 2.29,5.57C2.57,5.57 2.86,5.54 3.12,5.44C3.38,5.37 3.6,5.25 3.8,5.09C3.99,4.92 4.15,4.73 4.25,4.51C4.35,4.28 4.41,4.02 4.41,3.73C4.41,3.51 4.38,3.32 4.28,3.15C4.18,2.99 4.06,2.83 3.93,2.7C3.77,2.57 3.6,2.48 3.38,2.38C3.15,2.29 2.93,2.22 2.67,2.16C2.51,2.09 2.35,2.06 2.22,2.03C2.06,2 1.93,1.96 1.83,1.93C1.74,1.9 1.64,1.83 1.58,1.77C1.51,1.71 1.48,1.64 1.48,1.54C1.48,1.51 1.48,1.48 1.51,1.42C1.54,1.38 1.58,1.32 1.64,1.29C1.71,1.22 1.77,1.19 1.87,1.16C1.96,1.13 2.09,1.13 2.25,1.13C2.51,1.13 2.8,1.16 3.06,1.26C3.32,1.35 3.57,1.48 3.83,1.67L4.35,0.61C4.31,0.58 4.28,0.55 4.25,0.55C4.12,0.48 3.99,0.42 3.86,0.35C3.73,0.29 3.57,0.23 3.38,0.16C3.19,0.1 2.99,0.06 2.8,0.03C2.61,0 2.38,0 2.12,0C1.77,0 1.48,0.03 1.22,0.13C0.97,0.23 0.77,0.32 0.58,0.48C0.42,0.64 0.29,0.84 0.19,1.03C0.1,1.22 0.06,1.45 0.06,1.67C0.06,1.96 0.13,2.22 0.26,2.41C0.39,2.61 0.55,2.77 0.74,2.9C0.93,3.03 1.13,3.09 1.32,3.15C1.38,3.19 1.45,3.22 1.51,3.22Z " /><g opacity="1" transform="translate(260.09206586826343 17.058383233532993)  rotate(0 0.869011976047992 3.9427395209580833)"><path id="路径 463" fill-rule="evenodd" style="fill:#FF6010" transform="translate(0 0)  rotate(0 0.869011976047992 0.8690119760478822)" opacity="1" d="M0.26,1.48C0.42,1.64 0.64,1.74 0.87,1.74C1.13,1.74 1.32,1.64 1.48,1.48C1.64,1.32 1.74,1.09 1.74,0.87C1.74,0.61 1.64,0.42 1.48,0.26C1.32,0.1 1.09,0 0.87,0C0.64,0 0.42,0.1 0.26,0.26C0.1,0.42 0,0.64 0,0.87C0,1.09 0.1,1.32 0.26,1.48Z " /><path id="路径 464" fill-rule="evenodd" style="fill:#FF6010" transform="translate(0.12874251497021305 2.5748502994011915)  rotate(0 0.7241766467065869 2.655314371257485)" opacity="1" d="M0,5.31L1.45,5.31L1.45,0L0,0L0,5.31Z " /></g><path id="分组 112" fill-rule="evenodd" style="fill:#FF6010" transform="translate(263.6324850299401 19.47230538922156)  rotate(0 2.784056886227501 2.8162425149700594)" opacity="1" d="M0 2.8C0 3.22 0.06 3.6 0.23 3.96C0.39 4.31 0.61 4.63 0.87 4.86C1.13 5.12 1.45 5.31 1.77 5.44C2.09 5.57 2.45 5.63 2.8 5.63C3.15 5.63 3.51 5.57 3.83 5.44C4.18 5.31 4.47 5.12 4.73 4.86C4.99 4.6 5.18 4.31 5.34 3.96C5.5 3.6 5.57 3.22 5.57 2.8C5.57 2.38 5.5 2 5.34 1.64C5.21 1.29 4.99 1 4.73 0.74C4.47 0.51 4.18 0.32 3.83 0.19C3.51 0.06 3.15 0 2.8 0C2.45 0 2.12 0.06 1.77 0.19C1.42 0.32 1.13 0.51 0.87 0.74C0.58 1 0.39 1.29 0.23 1.64C0.06 2 0 2.38 0 2.8Z M2.76617 4.27961C2.95617 4.27961 3.15617 4.24961 3.31617 4.14961C3.47617 4.08961 3.63617 3.95961 3.73617 3.82961C3.86617 3.69961 3.95617 3.53961 4.02617 3.37961C4.08617 3.18961 4.11617 2.98961 4.11617 2.79961C4.11617 2.60961 4.08617 2.40961 4.02617 2.21961C3.95617 2.02961 3.86617 1.89961 3.73617 1.76961C3.60617 1.63961 3.47617 1.54961 3.31617 1.44961C3.15617 1.37961 2.99617 1.31961 2.76617 1.31961C2.57617 1.31961 2.38617 1.34961 2.21617 1.44961C2.05617 1.50961 1.92617 1.60961 1.80617 1.76961C1.67617 1.89961 1.57617 2.05961 1.51617 2.21961C1.44617 2.40961 1.41617 2.60961 1.41617 2.79961C1.41617 2.98961 1.44617 3.18961 1.51617 3.37961C1.57617 3.53961 1.67617 3.69961 1.80617 3.82961C1.92617 3.95961 2.05617 4.08961 2.21617 4.14961C2.38617 4.21961 2.57617 4.27961 2.76617 4.27961Z " /><path id="路径 467" fill-rule="evenodd" style="fill:#FF6010" transform="translate(271.16392215568845 19.47230538922156)  rotate(0 2.7035928143712136 2.751871257485015)" opacity="1" d="M2.16,0.19C1.83,0.32 1.54,0.51 1.32,0.74L1.32,0.16L0,0.16L0,5.47L1.45,5.47L1.45,2.19C1.61,1.96 1.83,1.74 2.06,1.58C2.32,1.42 2.57,1.32 2.86,1.32C3.22,1.32 3.48,1.42 3.67,1.64C3.86,1.83 3.96,2.16 3.96,2.54L3.96,5.5L5.41,5.5L5.41,2.51C5.41,1.67 5.21,1.06 4.8,0.64C4.38,0.23 3.83,0 3.15,0C2.8,0 2.45,0.06 2.16,0.19Z " /></g></svg>