<svg xmlns="http://www.w3.org/2000/svg" xmlns:xlink="http://www.w3.org/1999/xlink" width="277" height="15" viewBox="0 0 277 15" fill="none"><g opacity="1" transform="translate(-0.000052629116822799915 0.00000438575960970411)  rotate(0 138.20508982035932 7.402694610778455)"><path id="分组 114" fill-rule="evenodd" style="fill:#FF6010" transform="translate(0 0.1287425149701562)  rotate(0 7.241766467065868 7.145209580838337)" opacity="1" d="M7.95 8.63C8.14 8.79 8.34 8.98 8.56 9.17C8.79 9.4 8.92 9.59 9.04 9.72C9.46 9.46 9.85 9.14 10.24 8.82C10.52 9.14 10.85 9.4 11.23 9.59C11.59 9.78 12.01 9.88 12.46 9.88C13.1 9.88 13.55 9.69 13.87 9.3C14.16 8.95 14.39 8.21 14.48 7.15C14.26 7.08 14 6.95 13.74 6.82C13.49 6.69 13.26 6.53 13.07 6.37C13.04 7.02 13 7.5 12.91 7.79C12.84 8.08 12.71 8.24 12.52 8.24C12.13 8.24 11.78 8.01 11.46 7.6C12.42 6.5 13.16 5.21 13.71 3.77L12.07 3.38C11.75 4.31 11.3 5.15 10.72 5.92C10.49 5.12 10.33 4.12 10.2 2.96L14.23 2.96L14.23 1.51L12.81 1.51L13.2 1.19C12.97 1 12.75 0.8 12.46 0.58C12.17 0.39 11.88 0.16 11.62 0L10.52 0.77C10.78 1 11.07 1.22 11.36 1.45C11.39 1.48 11.43 1.51 11.46 1.54L10.04 1.54C10.04 1.06 10.04 0.58 10.04 0.1L8.3 0.1C8.3 0.58 8.3 1.06 8.34 1.54L1.26 1.54L1.26 3.86C1.26 4.38 1.26 4.92 1.19 5.57C1.13 6.18 1.03 6.79 0.84 7.4C0.68 8.01 0.39 8.59 0 9.11C0.23 9.21 0.45 9.4 0.74 9.62C1.03 9.85 1.22 10.07 1.38 10.24C1.83 9.66 2.19 8.98 2.41 8.24C2.64 7.5 2.8 6.76 2.86 5.99C2.96 5.25 2.99 4.54 2.99 3.93L2.99 3.03L8.5 3.03C8.63 4.73 8.95 6.21 9.4 7.4C8.95 7.79 8.46 8.14 7.95 8.43L7.95 5.6L3.38 5.6L3.38 9.17L7.95 9.17L7.95 8.63Z M3.05437 11.3281C3.09437 11.2681 3.09437 11.2281 3.12437 11.1681C3.15437 11.1081 3.15437 11.0681 3.18437 11.0081L1.54437 10.4281C1.15437 11.4581 0.674371 12.3881 0.0643713 13.2581L1.80437 13.9381C2.25437 13.1281 2.67437 12.2581 3.05437 11.3281Z M3.34731 3.70135L3.34731 4.92135L8.10731 4.92135L8.10731 3.70135L3.34731 3.70135Z M11.6195 11.7128C11.3595 11.6828 11.0395 11.5828 10.7195 11.4928C10.4295 11.3928 10.1395 11.2628 9.94949 11.1328C9.90949 11.9128 9.84949 12.3928 9.71949 12.5828C9.58949 12.8128 9.32949 12.9028 8.94949 12.9028L6.33949 12.9028C5.88949 12.9028 5.62949 12.8728 5.43949 12.8128C5.30949 12.7728 5.24949 12.6528 5.24949 12.4228L5.24949 10.2028L3.37949 10.2028L3.37949 12.4228C3.37949 13.1328 3.53949 13.6428 3.92949 13.9028C4.30949 14.1628 5.01949 14.2928 6.11949 14.2928L9.03949 14.2928C9.97949 14.2928 10.5895 14.0928 10.9395 13.7428C11.2995 13.3928 11.5195 12.7128 11.6195 11.7128Z M6.53784 6.79117L4.82784 6.79117L4.82784 7.95117L6.53784 7.95117L6.53784 6.79117Z M5.91997 10.1404C6.23997 10.4904 6.56997 10.8804 6.91997 11.2604C7.26997 11.6804 7.55997 12.0404 7.75997 12.3604L9.29997 11.5904C9.07997 11.2604 8.78997 10.9104 8.39997 10.5204L8.36997 10.4904C8.00997 10.1104 7.65997 9.75039 7.33997 9.43039L5.88997 10.0704C5.91997 10.1104 5.91997 10.1104 5.91997 10.1404Z M11.944 12.2285C12.234 12.8085 12.454 13.2885 12.614 13.7085L14.384 13.0985C14.194 12.6785 13.964 12.1985 13.644 11.6485C13.324 11.1085 13.034 10.6185 12.714 10.1385L11.104 10.6485C11.364 11.1685 11.654 11.6785 11.944 12.2285Z " /><path id="分组 115" fill-rule="evenodd" style="fill:#FF6010" transform="translate(17.02619760479044 0.22529940119773073)  rotate(0 7.113023952095852 7.193488023952048)" opacity="1" d="M1.19 13.5157C1.38 13.7757 1.51 14.0357 1.61 14.2257C1.67 14.0957 1.8 13.9657 1.96 13.8057C2.12 13.6457 2.38 13.3857 2.77 13.0357C3.12 12.6857 3.67 12.1957 4.38 11.5857C4.31 11.4257 4.25 11.1957 4.18 10.9457C4.18 10.9157 4.15 10.8757 4.15 10.8457C4.09 10.5557 4.02 10.2957 3.99 10.0457L3.09 10.7857L3.09 10.8157L3.06 10.8157L3.09 10.7857L3.09 4.79566L0 4.79566L0 6.56566L1.51 6.56566L1.51 11.1957C1.51 11.5857 1.42 11.9057 1.22 12.2257C1.03 12.5157 0.84 12.7757 0.68 12.9057C0.8 13.0657 1 13.2557 1.19 13.5157Z M3.06 10.8157L3.09 10.8157L3.09 10.7857L3.06 10.8157Z M2.8306 1.5453C2.4106 1.0653 2.0306 0.615299 1.6406 0.225299L0.450599 1.1953C0.840599 1.6053 1.2206 2.0953 1.6106 2.5753C1.9906 3.0853 2.2806 3.5053 2.5106 3.8953L3.8006 2.7953C3.5706 2.4153 3.2506 2.0253 2.8306 1.5453Z M9.0426 1.74L7.53261 1.74C7.7526 1.26 7.9826 0.77 8.1726 0.26L6.3726 0C6.2726 0.55 6.1426 1.09 5.9826 1.74L4.57261 1.74L4.57261 7.98L3.8326 7.98L3.8326 9.49L6.24261 9.49C5.57261 10.78 4.6626 11.81 3.5726 12.62C3.7326 12.78 3.9226 12.97 4.1226 13.2C4.15261 13.26 4.1826 13.29 4.2526 13.36C4.4126 13.55 4.5026 13.68 4.6026 13.81C5.7626 12.84 6.7626 11.62 7.5626 10.14L7.5626 12.62C7.5626 12.78 7.5026 12.87 7.3026 12.87C7.2126 12.87 7.0126 12.87 6.7926 12.87C6.53261 12.87 6.2726 12.87 5.9826 12.87C6.11261 13.1 6.2126 13.32 6.3126 13.61C6.40261 13.9 6.4726 14.13 6.5026 14.35C6.95261 14.35 7.3426 14.32 7.66261 14.29C7.9826 14.26 8.24261 14.19 8.4626 14.07C8.69261 13.94 8.8526 13.78 8.91261 13.55C9.0126 13.36 9.0426 13.07 9.0426 12.68L9.0426 1.77L9.0426 1.74Z M7.52653 3.18638L5.98653 3.18638L5.98653 3.89638L7.52653 3.89638L7.52653 3.18638Z M5.98653 5.1497L5.98653 5.9197L7.52653 5.9197L7.52653 5.1497L5.98653 5.1497Z M5.98653 8.0174L7.52653 8.0174L7.52653 7.1774L5.98653 7.1774L5.98653 8.0174Z M11.1707 7.6956C10.9707 7.0156 10.7207 6.4056 10.4607 5.8256L9.14072 6.2156C9.40072 6.8256 9.59072 7.4356 9.78072 8.1156C9.98072 8.7556 10.1107 9.3356 10.1707 9.8156L11.5907 9.3656C11.5207 8.8856 11.3907 8.3056 11.1707 7.6956Z M10.236 13.6109Z M12.716 14.0609C13.136 13.8709 13.356 13.3609 13.356 12.5209L13.356 4.92093L14.226 4.92093L14.226 3.22093L13.326 3.22093L13.326 0.160928L11.686 0.160928L11.686 3.22093L9.36602 3.22093L9.36602 4.96093L11.686 4.96093L11.686 12.5509C11.686 12.6509 11.656 12.7109 11.616 12.7809C11.586 12.8109 11.526 12.8409 11.396 12.8409C11.296 12.8409 11.106 12.8409 10.816 12.8409C10.526 12.8409 10.236 12.8409 9.87602 12.8409C10.006 13.0709 10.106 13.3209 10.236 13.6109C10.366 13.9009 10.426 14.1609 10.496 14.3909C11.006 14.3909 11.456 14.3509 11.816 14.3209C12.166 14.2909 12.456 14.1909 12.716 14.0609Z " /><g opacity="1" transform="translate(33.601796407185674 0.1287425149701562)  rotate(0 7.1934880239520655 7.1291167664670585)"><path id="路径 483" fill-rule="evenodd" style="fill:#FF6010" transform="translate(0 0)  rotate(0 2.5909431137724406 4.5703592814371214)" opacity="1" d="M5.18,0.55L3.57,0C2.67,1.71 1.48,3.12 0,4.22C0.19,4.44 0.39,4.67 0.61,4.96C0.84,5.28 1,5.54 1.13,5.73C1.48,5.44 1.83,5.09 2.22,4.73L2.22,9.14L2.22,9.11L3.96,9.11L3.96,2.57C4.41,1.93 4.83,1.26 5.18,0.55Z " /><path id="路径 484" fill-rule="evenodd" style="fill:#FF6010" transform="translate(0.12874251497007094 9.72005988023949)  rotate(0 1.5610029940119468 2.108158682634734)" opacity="1" d="M2.48,2.48C2.74,1.83 2.93,1.26 3.12,0.68L1.48,0C1.09,1.26 0.61,2.38 0,3.41L1.74,4.22C2,3.73 2.25,3.15 2.48,2.48Z " /><path id="路径 485" fill-rule="evenodd" style="fill:#FF6010" transform="translate(3.5082335329338434 9.784431137724539)  rotate(0 4.135853293413291 2.236901197604787)" opacity="1" d="M5.76,4.47C6.66,4.47 7.27,4.31 7.63,3.93C7.95,3.57 8.18,2.86 8.27,1.8C8.01,1.77 7.72,1.67 7.4,1.54C7.08,1.42 6.82,1.29 6.6,1.16C6.57,1.87 6.5,2.32 6.37,2.51C6.24,2.74 6.02,2.83 5.63,2.83L2.93,2.83C2.48,2.83 2.19,2.8 2.06,2.74C1.93,2.67 1.87,2.54 1.87,2.29L1.87,0L0,0L0,2.32C0,3.12 0.19,3.7 0.58,4.02C0.93,4.31 1.67,4.47 2.77,4.47L5.76,4.47Z " /><path id="路径 486" fill-rule="evenodd" style="fill:#FF6010" transform="translate(4.312874251497021 0.12874251497004252)  rotate(0 4.98877245508982 2.317365269461074)" opacity="1" d="M8.4,1.26L3.57,1.26C3.7,0.97 3.8,0.71 3.89,0.42L2.22,0C1.74,1.42 1,2.57 0,3.48C0.19,3.6 0.45,3.8 0.71,4.02C0.97,4.25 1.19,4.47 1.35,4.63C1.87,4.12 2.35,3.51 2.8,2.8L7.76,2.8C7.6,3.22 7.43,3.6 7.21,3.99L8.75,4.31C9.17,3.51 9.59,2.57 9.98,1.51L8.66,1.22L8.4,1.26Z " /><path id="路径 487" fill-rule="evenodd" style="fill:#FF6010" transform="translate(4.602544910179688 4.473802395209532)  rotate(0 1.7863023952095662 1.8184880239520882)" opacity="1" d="M0,2.54C0.1,2.61 0.23,2.7 0.35,2.8C0.45,2.86 0.58,2.96 0.71,3.06C0.97,3.28 1.19,3.48 1.35,3.64C2.25,2.8 2.99,1.74 3.57,0.48L1.93,0C1.48,1 0.84,1.87 0,2.54Z " /><path id="路径 488" fill-rule="evenodd" style="fill:#FF6010" transform="translate(5.986526946107887 3.3151197604789786)  rotate(0 2.3012724550897765 4.312874251497035)" opacity="1" d="M1.61,5.41C1.54,5.34 1.48,5.28 1.42,5.21L0,6.02C0.39,6.4 0.77,6.86 1.13,7.34C1.48,7.79 1.74,8.24 1.93,8.63L3.44,7.76C3.09,7.11 2.61,6.47 1.96,5.79C2.41,5.79 2.77,5.76 3.09,5.73C3.41,5.7 3.7,5.63 3.93,5.5C4.22,5.37 4.38,5.18 4.47,4.96C4.57,4.7 4.6,4.41 4.6,4.02L4.6,0L2.83,0L2.83,3.99C2.83,4.06 2.83,4.12 2.8,4.15C2.77,4.18 2.7,4.18 2.61,4.18C2.48,4.18 2.32,4.18 2.06,4.18C1.8,4.18 1.51,4.18 1.19,4.18C1.42,4.57 1.58,5.02 1.71,5.5C1.67,5.47 1.64,5.44 1.61,5.41Z " /><path id="路径 489" fill-rule="evenodd" style="fill:#FF6010" transform="translate(10.943113772455092 4.441616766467064)  rotate(0 1.6575598802395501 1.8667664670658717)" opacity="1" d="M1,2.25C1.35,2.83 1.61,3.32 1.77,3.73L3.32,2.9C3.15,2.48 2.9,2 2.54,1.48C2.22,0.97 1.87,0.45 1.48,0L0,0.71C0.35,1.19 0.71,1.71 1,2.25Z " /><path id="路径 490" fill-rule="evenodd" style="fill:#FF6010" transform="translate(11.10404191616766 9.43038922155688)  rotate(0 1.6414670658682342 2.124251497005995)" opacity="1" d="M0.97,2.51C1.22,3.19 1.42,3.77 1.54,4.25L3.28,3.54C3.15,3.03 2.96,2.45 2.64,1.8C2.32,1.16 1.96,0.58 1.61,0L0,0.61C0.35,1.19 0.68,1.83 0.97,2.51Z " /></g><g opacity="1" transform="translate(50.40269461077841 0)  rotate(0 7.338323353293472 7.354416167664696)"><path id="路径 491" fill-rule="evenodd" style="fill:#FF6010" transform="translate(0 0)  rotate(0 7.338323353293472 5.342814371257511)" opacity="1" d="M0,9.21C0.23,9.43 0.48,9.66 0.74,9.95C0.8,10.01 0.84,10.07 0.9,10.14C1.06,10.36 1.22,10.52 1.35,10.69C2.29,10.24 3.12,9.69 3.86,9.01C4.15,9.27 4.38,9.56 4.54,9.82C5.34,9.62 6.15,9.4 7.02,9.08C7.85,8.75 8.66,8.4 9.33,8.01L7.82,7.21C6.98,7.63 5.89,7.98 4.6,8.3C5.05,7.85 5.47,7.34 5.86,6.76L8.85,6.76C10.07,8.5 11.59,9.78 13.42,10.69C13.58,10.46 13.78,10.2 14,9.91C14.23,9.62 14.45,9.4 14.68,9.21C13.26,8.66 12.04,7.82 11.01,6.76L14.39,6.76L14.39,5.15L6.86,5.15C7.02,4.8 7.18,4.44 7.31,4.09L11.26,3.93C11.59,4.22 11.88,4.51 12.1,4.76L13.65,3.73C13.2,3.25 12.58,2.7 11.84,2.12C11.1,1.54 10.4,1.03 9.69,0.58L8.24,1.51C8.69,1.8 9.14,2.12 9.59,2.48L5.31,2.57C6.15,2.06 6.95,1.51 7.69,0.9L6.05,0C5.47,0.55 4.89,1.03 4.28,1.42C3.67,1.8 3.25,2.09 2.96,2.22C2.51,2.48 2.12,2.64 1.77,2.74C1.87,2.96 1.93,3.22 2.03,3.48C2.03,3.51 2.03,3.54 2.06,3.6C2.16,3.96 2.25,4.22 2.29,4.41C2.48,4.35 2.77,4.28 3.15,4.25C3.51,4.22 4.15,4.18 5.02,4.15C5.09,4.15 5.15,4.15 5.21,4.15C5.09,4.47 4.92,4.8 4.73,5.12L0.39,5.12L0.39,6.73L3.57,6.73C2.61,7.79 1.42,8.63 0,9.21Z " /><path id="路径 492" fill-rule="evenodd" style="fill:#FF6010" transform="translate(2.09206586826366 10.52470059880244)  rotate(0 5.262350299401168 2.092065868263473)" opacity="1" d="M5.12,1.77C3.54,2.19 1.83,2.45 0,2.57C0.16,2.8 0.32,3.06 0.48,3.35C0.64,3.64 0.77,3.93 0.87,4.18C2.9,3.93 4.73,3.57 6.4,3.06C8.08,2.54 9.43,1.77 10.52,0.77L8.82,0C7.92,0.77 6.69,1.38 5.12,1.77Z " /><path id="路径 493" fill-rule="evenodd" style="fill:#FF6010" transform="translate(3.1220059880242275 8.979790419161759)  rotate(0 3.7496257485029503 1.6092814371257484)" opacity="1" d="M3.28,1.13C2.19,1.42 1.09,1.67 0,1.8C0.19,2 0.39,2.25 0.58,2.51C0.61,2.54 0.61,2.57 0.64,2.61C0.8,2.83 0.93,3.03 1.03,3.22C2.22,3.03 3.38,2.7 4.54,2.29C5.7,1.87 6.66,1.38 7.5,0.77L5.95,0C5.28,0.42 4.41,0.8 3.28,1.13Z " /></g><g opacity="1" transform="translate(67.68637724550905 0.48278443113775893)  rotate(0 6.6463323353293715 6.996351047904195)"><path id="路径 494" fill-rule="evenodd" style="fill:#FF6010" transform="translate(0 8.818862275449135)  rotate(0 4.79565868263476 0.8851047904191616)" opacity="1" d="M0,0L0,1.77L9.59,1.77L9.59,0L0,0Z " /><path id="路径 495" fill-rule="evenodd" style="fill:#FF6010" transform="translate(1.6414670658682553 0)  rotate(0 5.825598802395253 6.996351047904195)" opacity="1" d="M11.65,5.95C11.65,5.92 11.65,5.86 11.65,5.83C11.65,5.73 11.65,5.66 11.65,5.6L11.65,5.5L2.32,5.5C2.45,4.83 2.57,4.12 2.77,3.41L11.26,3.41L11.26,1.64L3.09,1.64C3.12,1.45 3.15,1.29 3.19,1.13C3.22,0.87 3.28,0.64 3.32,0.42C3.32,0.39 3.32,0.32 3.32,0.29C3.32,0.26 3.32,0.23 3.32,0.19L1.42,0C1.26,1.19 1.03,2.45 0.77,3.77C0.51,5.09 0.26,6.21 0,7.18L1.58,7.18L9.69,7.18C9.43,10.07 9.04,11.68 8.53,12.04C8.4,12.13 8.27,12.17 8.14,12.2C8.01,12.23 7.85,12.23 7.69,12.23C7.43,12.23 7.02,12.23 6.47,12.23C5.92,12.2 5.34,12.17 4.7,12.13C4.89,12.39 5.05,12.68 5.18,13.04C5.31,13.39 5.38,13.68 5.41,13.97C6.6,14 7.56,14 8.27,13.97C8.66,13.94 9.01,13.87 9.3,13.78C9.59,13.68 9.85,13.49 10.11,13.23C10.46,12.91 10.78,12.2 11.01,11.14C11.26,10.04 11.46,8.46 11.65,6.31C11.65,6.28 11.65,6.24 11.65,6.18C11.65,6.15 11.65,6.12 11.65,6.08C11.65,6.05 11.65,6.02 11.65,5.95Z " /></g><path id="路径 496" fill-rule="evenodd" style="fill:#FF6010" transform="translate(84.42290419161682 2.381736526946213)  rotate(0 3.991017964071813 5.519835329341309)" opacity="1" d="M7.98,3.25C7.98,2.83 7.89,2.41 7.76,2.03C7.6,1.61 7.37,1.29 7.08,0.97C6.76,0.68 6.37,0.42 5.92,0.26C5.47,0.1 4.96,0 4.35,0C3.51,0 2.8,0.13 2.16,0.39C1.51,0.68 0.9,1.06 0.32,1.54L1.45,3.09C1.96,2.7 2.45,2.41 2.86,2.22C3.28,2.06 3.7,1.96 4.09,1.96C4.38,1.96 4.63,2 4.86,2.06C5.05,2.16 5.25,2.25 5.38,2.38C5.5,2.48 5.6,2.64 5.66,2.8C5.7,2.93 5.73,3.12 5.73,3.28C5.73,3.51 5.7,3.73 5.57,3.93C5.47,4.12 5.31,4.31 5.09,4.51C4.86,4.67 4.6,4.86 4.28,5.05C3.96,5.25 3.57,5.44 3.19,5.66C2.09,6.24 1.29,6.89 0.77,7.56C0.26,8.24 0,9.01 0,9.91L0,11.04L7.95,11.04L7.95,9.11L2.38,9.11C2.41,8.92 2.51,8.72 2.67,8.56C2.83,8.37 3.03,8.21 3.25,8.05C3.48,7.89 3.73,7.72 3.99,7.56C4.25,7.4 4.47,7.27 4.7,7.15C4.92,6.98 5.21,6.82 5.6,6.63C5.95,6.44 6.34,6.18 6.69,5.86C7.05,5.54 7.34,5.18 7.6,4.76C7.85,4.31 7.98,3.83 7.98,3.25Z " /><path id="分组 119" fill-rule="evenodd" style="fill:#FF6010" transform="translate(95.20508982035935 2.3495508982036313)  rotate(0 3.9266467065867676 5.584206586826336)" opacity="1" d="M5.79 10.72C6.28 10.43 6.66 10.01 6.98 9.49C7.31 8.98 7.53 8.37 7.66 7.69C7.79 7.02 7.85 6.31 7.85 5.57C7.85 4.83 7.79 4.12 7.66 3.44C7.5 2.77 7.31 2.19 6.98 1.67C6.69 1.16 6.28 0.77 5.79 0.45C5.28 0.16 4.67 0 3.93 0C3.22 0 2.61 0.16 2.09 0.45C1.58 0.74 1.19 1.16 0.87 1.67C0.55 2.19 0.32 2.77 0.19 3.44C0.06 4.12 0 4.83 0 5.57C0 6.31 0.06 7.02 0.19 7.69C0.35 8.37 0.55 8.98 0.87 9.49C1.19 10.01 1.58 10.43 2.09 10.72C2.61 11.01 3.22 11.17 3.93 11.17C4.67 11.17 5.28 11.04 5.79 10.72Z M2.15644 5.56584C2.15644 6.01584 2.18644 6.46584 2.21644 6.91584C2.25644 7.36584 2.34644 7.75584 2.47644 8.10584C2.60644 8.46584 2.76644 8.75584 3.02644 8.94584C3.24644 9.17584 3.53644 9.26584 3.92644 9.26584C4.31644 9.26584 4.63644 9.17584 4.85644 8.94584C5.08644 8.72584 5.24644 8.43584 5.37644 8.10584C5.50644 7.75584 5.56644 7.36584 5.63644 6.91584C5.66644 6.46584 5.69644 6.01584 5.69644 5.56584C5.69644 5.11584 5.66644 4.66584 5.63644 4.18584C5.59644 3.73584 5.50644 3.31584 5.37644 2.96584C5.24644 2.60584 5.08644 2.31584 4.85644 2.05584C4.63644 1.83584 4.31644 1.70584 3.92644 1.70584C3.53644 1.70584 3.24644 1.83584 3.02644 2.05584C2.79644 2.28584 2.60644 2.60584 2.47644 2.96584C2.34644 3.34584 2.28644 3.73584 2.21644 4.18584C2.18644 4.63584 2.15644 5.11584 2.15644 5.56584Z " /><path id="路径 499" fill-rule="evenodd" style="fill:#FF6010" transform="translate(105.92290419161688 2.381736526946213)  rotate(0 3.991017964071813 5.519835329341309)" opacity="1" d="M2.38,9.11C2.41,8.92 2.51,8.75 2.67,8.56C2.83,8.37 3.03,8.21 3.25,8.05C3.48,7.89 3.73,7.72 3.99,7.56C4.25,7.4 4.47,7.27 4.7,7.15C4.92,6.98 5.21,6.82 5.6,6.63C5.95,6.44 6.34,6.18 6.69,5.86C7.05,5.54 7.34,5.18 7.6,4.76C7.85,4.31 7.98,3.83 7.98,3.25C7.98,2.83 7.89,2.41 7.76,2.03C7.6,1.61 7.37,1.29 7.08,0.97C6.76,0.68 6.37,0.42 5.92,0.26C5.47,0.1 4.96,0 4.35,0C3.51,0 2.8,0.13 2.16,0.39C1.51,0.68 0.9,1.06 0.32,1.54L1.45,3.09C1.96,2.7 2.45,2.41 2.86,2.22C3.28,2.06 3.7,1.96 4.09,1.96C4.38,1.96 4.63,2 4.86,2.06C5.05,2.16 5.25,2.25 5.38,2.38C5.5,2.48 5.6,2.64 5.66,2.8C5.7,2.93 5.73,3.12 5.73,3.28C5.73,3.51 5.7,3.73 5.57,3.93C5.47,4.12 5.31,4.31 5.09,4.51C4.86,4.67 4.6,4.86 4.28,5.05C3.96,5.25 3.57,5.44 3.19,5.66C2.09,6.24 1.29,6.89 0.77,7.56C0.26,8.24 0,9.01 0,9.91L0.06,9.91L0.06,11.04L7.95,11.04L7.95,9.11L2.38,9.11Z " /><path id="路径 500" fill-rule="evenodd" style="fill:#FF6010" transform="translate(116.6407185628743 2.381736526946213)  rotate(0 3.991017964071813 5.519835329341309)" opacity="1" d="M5.6,6.63C5.95,6.44 6.34,6.18 6.69,5.86C7.05,5.54 7.34,5.18 7.6,4.76C7.85,4.31 7.98,3.83 7.98,3.25C7.98,2.83 7.89,2.41 7.76,2.03C7.6,1.61 7.37,1.29 7.08,0.97C6.76,0.68 6.37,0.42 5.92,0.26C5.47,0.1 4.96,0 4.35,0C3.51,0 2.8,0.13 2.16,0.39C1.51,0.68 0.9,1.06 0.32,1.54L1.45,3.09C1.96,2.7 2.45,2.41 2.86,2.22C3.28,2.06 3.7,1.96 4.09,1.96C4.38,1.96 4.63,2 4.86,2.06C5.05,2.16 5.25,2.25 5.38,2.38C5.5,2.48 5.6,2.64 5.66,2.8C5.7,2.93 5.73,3.12 5.73,3.28C5.73,3.51 5.7,3.73 5.57,3.93C5.47,4.12 5.31,4.31 5.09,4.51C4.86,4.67 4.6,4.86 4.28,5.05C3.96,5.25 3.57,5.44 3.19,5.66C2.09,6.24 1.29,6.89 0.77,7.56C0.26,8.24 0,9.01 0,9.91L0.06,9.91L0.06,11.04L7.95,11.04L7.95,9.11L2.38,9.11C2.41,8.92 2.51,8.75 2.67,8.56C2.83,8.37 3.03,8.21 3.25,8.05C3.48,7.89 3.73,7.72 3.99,7.56C4.25,7.4 4.47,7.27 4.7,7.15C4.92,6.98 5.21,6.82 5.6,6.63Z " /><g opacity="1" transform="translate(127.06886227544916 0.1609281437126242)  rotate(0 7.354416167664641 7.306137724550894)"><path id="路径 501" fill-rule="evenodd" style="fill:#FF6010" transform="translate(0 0)  rotate(0 7.354416167664641 7.225673652694606)" opacity="1" d="M3.67,5.44L3.67,3.8C4.28,2.74 4.76,1.64 5.15,0.55L3.41,0C2.57,2.35 1.45,4.28 0,5.79C0.16,6.05 0.35,6.37 0.55,6.76C0.74,7.15 0.87,7.47 0.97,7.72C1.26,7.43 1.51,7.08 1.8,6.73L1.8,14.45L3.67,14.45L3.67,5.73C3.86,5.92 4.06,6.15 4.22,6.4C4.38,6.66 4.51,6.92 4.6,7.11C6.69,5.89 8.24,4.44 9.27,2.77C10.43,4.54 11.81,5.92 13.42,6.92C13.58,6.69 13.78,6.44 14.03,6.15C14.29,5.86 14.52,5.63 14.71,5.44C12.81,4.41 11.33,2.96 10.17,1.09C10.2,1.03 10.24,0.93 10.27,0.87C10.33,0.71 10.4,0.55 10.46,0.39L8.53,0.06C8.18,1.06 7.63,2.03 6.82,2.9C6.05,3.86 4.99,4.7 3.67,5.44Z " /><path id="路径 502" fill-rule="evenodd" style="fill:#FF6010" transform="translate(4.023203592814241 6.308383233532936)  rotate(0 2.011601796407259 4.1519461077844415)" opacity="1" d="M2.03,3.64C1.93,4.22 1.74,4.83 1.45,5.41C1.13,5.99 0.64,6.53 0,7.02C0.23,7.18 0.48,7.4 0.74,7.63C1,7.89 1.19,8.11 1.35,8.3C2.12,7.72 2.67,7.05 3.06,6.31C3.44,5.57 3.7,4.83 3.83,4.12C3.96,3.38 4.02,2.74 4.02,2.12L4.02,0L2.16,0L2.16,2.09C2.16,2.54 2.12,3.06 2.03,3.64Z " /><path id="路径 503" fill-rule="evenodd" style="fill:#FF6010" transform="translate(10.39595808383234 6.308383233532936)  rotate(0 0.9494760479042063 4.087574850299397)" opacity="1" d="M1.9,8.18L1.9,0L0,0L0,8.18L1.9,8.18Z " /></g><path id="分组 121" fill-rule="evenodd" style="fill:#FF6010" transform="translate(143.8375748502994 0.25748502994019873)  rotate(0 7.273952095808354 7.193488023952102)" opacity="1" d="M3.51 3.96219C4.09 2.83219 4.6 1.70219 4.99 0.582186L3.35 0.0321856C2.54 2.35219 1.42 4.28219 0 5.76219C0.16 6.02219 0.35 6.34219 0.55 6.72219C0.74 7.11219 0.87 7.43219 0.97 7.69219C1.26 7.37219 1.51 7.01219 1.8 6.66219L1.8 14.3822L3.51 14.3822L3.51 3.96219Z M10.0119 3.48C10.0119 3.38 10.0419 3.28 10.0719 3.15C10.0719 3.12 10.1019 3.09 10.1019 3.06C10.1019 3.03 10.1019 2.99 10.1019 2.96L14.1919 2.96L14.1919 1.38L10.3919 1.38C10.3919 1.29 10.4319 1.22 10.4319 1.13C10.4319 1.03 10.4619 0.97 10.4619 0.87C10.4919 0.61 10.5519 0.32 10.5919 0.06L8.66195 0C8.66195 0.32 8.62195 0.68 8.56195 1.03C8.56195 1.06 8.56195 1.13 8.56195 1.19C8.56195 1.26 8.56195 1.32 8.56195 1.38L4.83195 1.38L4.83195 2.96L8.33195 2.96C8.27195 3.35 8.21195 3.7 8.14195 4.02L5.47195 4.02L5.47195 12.58L4.15195 12.58L4.15195 14.13L14.5519 14.13L14.5519 12.58L13.3919 12.58L13.4519 12.58L13.4519 3.99L9.88195 3.99C9.91195 3.83 9.98195 3.64 10.0119 3.48Z M7.14521 5.375L7.14521 6.215L11.7152 6.215L11.7152 5.375L7.14521 5.375Z M11.7152 7.49925L7.14521 7.49925L7.14521 8.33925L11.7152 8.33925L11.7152 7.49925Z M7.14521 9.55913L7.14521 10.4291L11.7152 10.4291L11.7152 9.55913L7.14521 9.55913Z M7.11302 12.5856L11.683 12.5856L11.683 11.7156L7.11302 11.7156L7.11302 12.5856Z " /><path id="分组 122" fill-rule="evenodd" style="fill:#FF6010" transform="translate(160.83158682634723 0.1931137724550922)  rotate(0 7.225673652694552 7.225673652694606)" opacity="1" d="M7.02 7.27L8.11 7.27L8.11 5.02C9.56 6.37 11.3 7.34 13.26 7.85C13.39 7.63 13.58 7.37 13.81 7.08C14.03 6.79 14.26 6.57 14.45 6.37C12.81 5.99 11.36 5.41 10.11 4.6L14 4.6L14 3.06L8.08 3.06L8.08 1.9C9.82 1.74 11.36 1.54 12.71 1.26L11.39 0C10.2 0.26 8.69 0.42 6.89 0.55C5.09 0.68 3.28 0.74 1.48 0.77C1.58 0.97 1.67 1.19 1.74 1.45C1.8 1.74 1.87 1.96 1.9 2.19C3.32 2.19 4.8 2.16 6.34 2.06L6.34 3.09L0.42 3.09L0.42 4.63L4.38 4.63C3.09 5.5 1.64 6.15 0 6.53C0.23 6.73 0.42 6.95 0.61 7.21C0.8 7.5 0.97 7.72 1.09 7.95C3.12 7.34 4.89 6.34 6.34 4.96L6.34 7.05L5.57 6.86C5.34 7.34 5.05 7.79 4.73 8.27L0.23 8.27L0.23 9.82L3.6 9.82C3.22 10.36 2.8 10.85 2.41 11.26L2.19 11.46L2.22 11.46L2.25 11.46C3.35 11.72 4.41 11.94 5.44 12.2C4.09 12.55 2.41 12.75 0.42 12.84C0.55 13.07 0.71 13.32 0.84 13.61C0.97 13.9 1.06 14.16 1.13 14.45C4.09 14.23 6.4 13.71 8.08 12.91C9.82 13.42 11.26 13.87 12.42 14.32L14.03 13C12.87 12.62 11.43 12.2 9.75 11.75C10.27 11.23 10.72 10.59 11.1 9.85L14.26 9.85L14.26 8.3L6.89 8.3C7.08 7.98 7.27 7.69 7.43 7.37L7.02 7.27Z M5.79189 9.88099C5.60189 10.171 5.41189 10.431 5.18189 10.651C6.05189 10.851 6.89189 11.041 7.72189 11.231C8.27189 10.881 8.69189 10.431 9.04189 9.88099L5.79189 9.88099Z " /><path id="分组 123" fill-rule="evenodd" style="fill:#FF6010" transform="translate(178.0187125748504 0.8690119760479433)  rotate(0 6.919910179640719 6.968188622754483)" opacity="1" d="M5.6 9.81236C5.5 10.1024 5.25 10.4324 4.86 10.7224C4.47 11.0424 3.89 11.3324 3.12 11.6224C2.35 11.8724 1.32 12.1624 0 12.3924C0.26 12.5824 0.48 12.8424 0.74 13.1324C1 13.4224 1.16 13.6824 1.29 13.9024C2.67 13.5824 3.8 13.2324 4.67 12.8424C5.5 12.4524 6.18 12.0424 6.63 11.6224C7.08 11.2024 7.4 10.7824 7.56 10.3324C7.72 9.91236 7.79 9.49236 7.79 9.07236L7.79 7.69237L5.79 7.69237L5.76 7.69237L5.76 8.98236C5.76 9.23236 5.7 9.52237 5.6 9.81236Z M1.28743 10.9406L3.21743 10.9406L3.21743 6.98063L10.6874 6.98063L10.6874 10.7506L12.6774 10.7506L12.6774 5.31063L1.28743 5.31063L1.28743 10.9406Z M1.93114 4.31L11.9711 4.31L11.9711 0L1.93114 0L1.93114 4.31Z M3.86228 2.73491L9.91228 2.73491L9.91228 1.54491L3.86228 1.54491L3.86228 2.73491Z M10.3949 12.8381C11.4549 13.2581 12.2649 13.6181 12.9049 13.9381L13.8349 12.3881C13.1349 12.0681 12.2649 11.7481 11.2349 11.3581C10.1749 11.0081 9.20488 10.6881 8.33488 10.4281L7.43488 11.7781C8.36488 12.0681 9.33488 12.4281 10.3949 12.8381Z " /><path id="分组 124" fill-rule="evenodd" style="fill:#FF6010" transform="translate(194.4977544910179 0.1609281437126242)  rotate(0 7.2739520958085 7.241766467065887)" opacity="1" d="M10.88 5.25C11.65 5.7 12.46 6.08 13.26 6.44C13.42 6.18 13.61 5.92 13.87 5.6C14.13 5.28 14.35 5.02 14.55 4.83C12.1 3.99 10.01 2.86 8.34 1.45C8.53 1.22 8.69 1.03 8.85 0.8L7.18 0C6.44 1 5.41 1.96 4.15 2.83C2.86 3.7 1.48 4.41 0 4.99C0.23 5.18 0.48 5.44 0.74 5.76C0.97 6.08 1.19 6.34 1.32 6.6C2.12 6.21 2.93 5.79 3.67 5.37L3.67 6.4L10.88 6.4L10.88 5.25Z M10.0712 13.4224C10.4912 13.3924 10.9412 13.3524 11.4212 13.3224C11.7512 13.7424 12.0012 14.1324 12.2012 14.4824L13.8412 13.4824C13.4512 12.9024 12.9712 12.2324 12.3612 11.5224C11.7512 10.8124 11.0712 10.1724 10.3912 9.56237L8.8212 10.3624C9.2712 10.7824 9.7212 11.2324 10.1412 11.6824L4.7612 12.0024C5.6312 11.2324 6.4412 10.3624 7.1812 9.46237L13.6812 9.46237L13.6812 7.69237L0.901198 7.69237L0.901198 9.46237L4.6312 9.46237C4.2212 9.98236 3.8312 10.4324 3.4412 10.8124C3.0912 11.1724 2.8012 11.4624 2.6112 11.5824C2.1612 12.0024 1.7712 12.2624 1.3812 12.3624C1.4812 12.6124 1.6112 12.9424 1.7412 13.3224C1.8712 13.7124 1.9312 14.0024 1.9912 14.2224C2.2212 14.1324 2.5412 14.0624 2.9912 14.0024C3.4412 13.9324 4.2212 13.8724 5.3112 13.7724C5.9512 13.7124 6.7612 13.6824 7.7612 13.5824C8.4312 13.5524 9.2012 13.4824 10.0712 13.4224Z M10.0091 4.72704C8.9791 4.05704 8.0791 3.34704 7.2691 2.60704C6.4991 3.37704 5.6291 4.08704 4.6991 4.72704L10.0091 4.72704Z " /><path id="分组 125" fill-rule="evenodd" style="fill:#FF6010" transform="translate(211.45958083832338 0.1931137724552059)  rotate(0 7.096931137724609 7.257859281437111)" opacity="1" d="M0.06 9.43L0.06 11.2L7.02 11.2L7.02 14.52L8.92 14.52L8.92 11.2L14.19 11.2L14.19 9.43L8.88 9.43L8.88 7.08L12.97 7.08L12.97 5.37L8.88 5.37L8.88 3.51L13.32 3.51L13.32 1.74L4.6 1.74C4.83 1.35 4.99 0.9 5.12 0.48L3.25 0C2.51 2.12 1.45 3.83 0 5.15C0.23 5.28 0.48 5.44 0.77 5.66C0.8 5.66 0.8 5.66 0.84 5.7C1.16 5.92 1.42 6.15 1.61 6.31C2.35 5.57 3.06 4.63 3.7 3.51L7.02 3.51L7.02 5.37L2.51 5.37L2.51 9.43L0.06 9.43Z M7.01506 9.43084L7.01506 7.08084L4.34506 7.08084L4.34506 9.43084L7.01506 9.43084Z " /><path id="分组 126" fill-rule="evenodd" style="fill:#FF6010" transform="translate(228.00299401197591 0.1609281437126242)  rotate(0 7.4670658682635604 7.257859281437147)" opacity="1" d="M12.58 1.58L9.82 1.58C10.01 1.19 10.2 0.84 10.36 0.45L8.43 0.1C8.18 0.74 7.82 1.42 7.37 2.09C6.89 2.77 6.31 3.41 5.6 4.02L4.51 3.32C4.25 3.83 3.96 4.38 3.64 4.89L2.35 4.99C3.25 3.67 4.02 2.25 4.67 0.74L2.9 0C2.57 0.93 2.22 1.8 1.83 2.57C1.42 3.35 1.13 3.89 0.93 4.15C0.64 4.67 0.32 4.96 0 5.09C0.1 5.31 0.23 5.6 0.35 5.95C0.35 6.02 0.39 6.05 0.39 6.12C0.48 6.37 0.55 6.6 0.58 6.76C0.68 6.73 0.87 6.66 1.16 6.6C1.45 6.57 1.9 6.5 2.57 6.4C2.06 7.18 1.64 7.69 1.38 7.95C0.93 8.5 0.51 8.82 0.16 8.92C0.26 9.14 0.39 9.43 0.48 9.75C0.51 9.82 0.51 9.88 0.55 9.95C0.64 10.2 0.71 10.4 0.74 10.52C0.84 10.46 1.03 10.36 1.32 10.3C1.58 10.2 2.06 10.11 2.7 10.01C3.35 9.91 4.28 9.75 5.54 9.56C5.54 9.33 5.54 9.08 5.5 8.79C5.5 8.75 5.5 8.72 5.5 8.69C5.47 8.43 5.47 8.18 5.47 7.98L3.06 8.34C4.06 7.21 4.92 5.99 5.73 4.7C6.05 5.02 6.34 5.31 6.53 5.6C7.02 5.21 7.43 4.8 7.82 4.38C8.18 4.89 8.56 5.38 8.98 5.83C7.92 6.63 6.73 7.24 5.41 7.66C5.6 7.82 5.83 8.08 6.05 8.37C6.31 8.63 6.47 8.92 6.57 9.14C7.89 8.63 9.11 7.92 10.27 7.02C11.3 7.89 12.46 8.59 13.74 9.11C13.87 8.88 14.07 8.59 14.29 8.3C14.52 7.98 14.71 7.76 14.93 7.56C13.68 7.18 12.55 6.6 11.52 5.86C12.55 4.83 13.39 3.57 14 2.16L12.84 1.48L12.58 1.58Z M1.86874 13.5197C2.08874 13.4897 2.28874 13.4197 2.50874 13.3897C3.66874 13.1597 4.82874 12.9097 6.01874 12.6497L5.85874 11.0397C3.63874 11.4597 1.73874 11.7797 0.128743 12.0397L0.418743 13.8097C0.868743 13.6797 1.34874 13.5797 1.86874 13.5197Z M9.78587 13.1922C10.8459 13.6422 11.7459 14.1022 12.4859 14.5122L13.5459 13.0722C12.8059 12.6522 11.9059 12.2322 10.8159 11.8122C9.71587 11.3922 8.65587 11.0422 7.62587 10.7822L6.56587 12.0722C7.62587 12.3622 8.72587 12.7122 9.78587 13.1922Z M10.1017 10.2717C10.7517 10.5917 11.2617 10.9117 11.6517 11.2017L12.6817 9.88171C12.2617 9.59171 11.7517 9.30171 11.1317 9.01171C10.5217 8.72171 9.91171 8.46171 9.30171 8.27171L8.27171 9.46171C8.88171 9.69171 9.49171 9.94171 10.1017 10.2717Z M8.88323 3.12201C9.27323 3.70201 9.68323 4.25201 10.2032 4.76201C10.7532 4.28201 11.2032 3.73201 11.5532 3.12201L8.88323 3.12201Z " /><path id="分组 127" fill-rule="evenodd" style="fill:#FF6010" transform="translate(244.83607784431146 0.09655688622757452)  rotate(0 7.450973053892172 7.113023952095815)" opacity="1" d="M2.96 10.72L6.47 10.72L6.47 12.58L0.93 12.58L0.93 14.23L14.07 14.23L14.07 12.58L8.4 12.58L8.4 10.72L12.07 10.72L12.07 9.11L8.4 9.11L8.4 7.34L12.2 7.34L12.17 7.34L12.17 6.37C12.39 6.47 12.58 6.6 12.81 6.73C13.1 6.86 13.36 7.02 13.65 7.18C13.78 6.89 13.97 6.63 14.19 6.34C14.45 6.05 14.68 5.83 14.9 5.6C12.46 4.54 10.3 3.09 8.46 1.19C8.56 1.03 8.66 0.9 8.75 0.77L7.11 0C6.34 1.22 5.28 2.29 4.02 3.25C2.74 4.22 1.42 4.99 0 5.57C0.23 5.79 0.48 6.05 0.71 6.31C0.93 6.57 1.13 6.82 1.26 7.08C1.77 6.86 2.25 6.6 2.74 6.31L2.74 7.34L6.47 7.34L6.47 9.11L2.96 9.11L2.96 10.72Z M11.1992 5.73048C9.84916 4.86048 8.58916 3.80048 7.39916 2.51048C6.27916 3.73048 5.04916 4.80048 3.66916 5.73048L11.1992 5.73048Z " /><path id="分组 128" fill-rule="evenodd" style="fill:#FF6010" transform="translate(261.8622754491016 0.1609281437126242)  rotate(0 7.2739520958085 7.241766467065887)" opacity="1" d="M8.85 0.8L7.18 0C6.4 1 5.41 1.96 4.15 2.83C2.86 3.7 1.48 4.41 0 4.99C0.23 5.18 0.48 5.44 0.74 5.76C0.97 6.08 1.19 6.34 1.32 6.6C2.12 6.21 2.93 5.79 3.67 5.37L3.67 6.4L10.88 6.4L10.88 5.25C11.65 5.7 12.46 6.08 13.26 6.44C13.42 6.18 13.61 5.92 13.87 5.6C14.13 5.28 14.35 5.02 14.55 4.83C12.1 3.99 10.01 2.86 8.34 1.45C8.53 1.22 8.69 1.03 8.85 0.8Z M13.8412 13.4824C13.4512 12.9024 12.9712 12.2324 12.3612 11.5224C11.7512 10.8124 11.0712 10.1724 10.3912 9.56237L8.8212 10.3624C9.2712 10.7824 9.7212 11.2324 10.1412 11.6824L4.7612 12.0024C5.6312 11.2324 6.4412 10.3624 7.1812 9.46237L13.6812 9.46237L13.6812 7.69237L0.901198 7.69237L0.901198 9.46237L4.6312 9.46237C4.2212 9.98236 3.8312 10.4324 3.4412 10.8124C3.0912 11.1724 2.8012 11.4624 2.6112 11.5824C2.1612 12.0024 1.7712 12.2624 1.3812 12.3624C1.4812 12.6124 1.6112 12.9424 1.7412 13.3224C1.8712 13.7124 1.9312 14.0024 1.9912 14.2224C2.2212 14.1324 2.5412 14.0624 2.9912 14.0024C3.4412 13.9324 4.2212 13.8724 5.3112 13.7724C5.9512 13.7124 6.7612 13.6824 7.7612 13.5824C8.4312 13.5524 9.2012 13.4824 10.0712 13.4224C10.4912 13.3924 10.9412 13.3524 11.4212 13.3224C11.7512 13.7424 12.0012 14.1324 12.2012 14.4824L13.8412 13.4824Z M10.0091 4.72704C8.9791 4.05704 8.0791 3.34704 7.2691 2.60704C6.4991 3.37704 5.6291 4.08704 4.6991 4.72704L10.0091 4.72704Z " /></g></svg>