<svg xmlns="http://www.w3.org/2000/svg" xmlns:xlink="http://www.w3.org/1999/xlink" width="430" height="286" viewBox="0 0 430 286" fill="none"><g opacity="1" transform="translate(0 -0.0000058476797448747675)  rotate(0 215 142.74326347305384)"><path id="路径 283" fill-rule="evenodd" style="fill:#FFDAB6" transform="translate(0 0)  rotate(0 215 107.82185628742515)" opacity="1" d="M0,215.64L430,215.64L430,0C430,0 415.52,8.37 357.58,70.16C299.65,131.96 199.87,127.46 130.35,133.25C60.83,139.04 0,186.03 0,186.03L0,215.64Z " /><path id="路径 289" fill-rule="evenodd" style="fill:#FFD19F" transform="translate(0 101.06287425149696)  rotate(0 215 92.21182634730538)" opacity="1" d="M0,184.42L430,184.42L430,0C430,0 409.08,14.16 355.65,50.21C302.22,86.26 242.68,81.43 169.94,74.03C97.2,66.62 0,110.72 0,110.72L0,184.42Z " /></g></svg>